<svg width="40" height="38" viewBox="0 0 40 38" fill="none" xmlns="http://www.w3.org/2000/svg">
<path d="M19.9 30.2222C20.6 30.2222 21.192 29.9937 21.676 29.5365C22.16 29.0794 22.4013 28.521 22.4 27.8611C22.4 27.2 22.1587 26.6409 21.676 26.1838C21.1933 25.7267 20.6013 25.4987 19.9 25.5C19.2 25.5 18.6087 25.7286 18.126 26.1857C17.6433 26.6428 17.4013 27.2013 17.4 27.8611C17.4 28.5222 17.642 29.0813 18.126 29.5384C18.61 29.9956 19.2013 30.2235 19.9 30.2222ZM18.1 22.95H21.8C21.8 21.9111 21.9253 21.0926 22.176 20.4944C22.4267 19.8963 23.1347 19.0778 24.3 18.0389C25.1667 17.2204 25.85 16.4409 26.35 15.7004C26.85 14.96 27.1 14.071 27.1 13.0333C27.1 11.2704 26.4167 9.91667 25.05 8.97222C23.6833 8.02778 22.0667 7.55555 20.2 7.55555C18.3 7.55555 16.758 8.02778 15.574 8.97222C14.39 9.91667 13.5653 11.05 13.1 12.3722L16.4 13.6C16.5667 13.0333 16.942 12.4194 17.526 11.7583C18.11 11.0972 19.0013 10.7667 20.2 10.7667C21.2667 10.7667 22.0667 11.0424 22.6 11.594C23.1333 12.1456 23.4 12.7513 23.4 13.4111C23.4 14.0407 23.2 14.6313 22.8 15.1829C22.4 15.7344 21.9 16.2457 21.3 16.7167C19.8333 17.9444 18.9333 18.8731 18.6 19.5028C18.2667 20.1324 18.1 21.2815 18.1 22.95ZM20 37.7778C17.2333 37.7778 14.6333 37.2816 12.2 36.2893C9.76667 35.297 7.65 33.9515 5.85 32.2528C4.05 30.5528 2.62533 28.5537 1.576 26.2556C0.526667 23.9574 0.00133333 21.5018 0 18.8889C0 16.2759 0.525333 13.8204 1.576 11.5222C2.62667 9.22407 4.05133 7.225 5.85 5.525C7.65 3.825 9.76667 2.47948 12.2 1.48844C14.6333 0.497408 17.2333 0.00125926 20 0C22.7667 0 25.3667 0.496148 27.8 1.48844C30.2333 2.48074 32.35 3.82626 34.15 5.525C35.95 7.225 37.3753 9.22407 38.426 11.5222C39.4767 13.8204 40.0013 16.2759 40 18.8889C40 21.5018 39.4747 23.9574 38.424 26.2556C37.3733 28.5537 35.9487 30.5528 34.15 32.2528C32.35 33.9528 30.2333 35.2989 27.8 36.2912C25.3667 37.2835 22.7667 37.779 20 37.7778ZM20 34C24.4667 34 28.25 32.5361 31.35 29.6083C34.45 26.6805 36 23.1074 36 18.8889C36 14.6704 34.45 11.0972 31.35 8.16944C28.25 5.24167 24.4667 3.77778 20 3.77778C15.5333 3.77778 11.75 5.24167 8.65 8.16944C5.55 11.0972 4 14.6704 4 18.8889C4 23.1074 5.55 26.6805 8.65 29.6083C11.75 32.5361 15.5333 34 20 34Z" fill="white"/>
</svg>
