<svg width="40" height="41" viewBox="0 0 40 41" fill="none" xmlns="http://www.w3.org/2000/svg">
<path d="M7.5 35.875C7.5 35.875 5 35.875 5 33.3125C5 30.75 7.5 23.0625 20 23.0625C32.5 23.0625 35 30.75 35 33.3125C35 35.875 32.5 35.875 32.5 35.875H7.5ZM20 20.5C21.9891 20.5 23.8968 19.6901 25.3033 18.2484C26.7098 16.8067 27.5 14.8514 27.5 12.8125C27.5 10.7736 26.7098 8.8183 25.3033 7.37662C23.8968 5.93493 21.9891 5.125 20 5.125C18.0109 5.125 16.1032 5.93493 14.6967 7.37662C13.2902 8.8183 12.5 10.7736 12.5 12.8125C12.5 14.8514 13.2902 16.8067 14.6967 18.2484C16.1032 19.6901 18.0109 20.5 20 20.5Z" fill="#FDFDFD"/>
</svg>
