<svg width="140" height="140" viewBox="0 0 140 140" fill="none" xmlns="http://www.w3.org/2000/svg">
<g clip-path="url(#clip0_29_10)">
<path d="M123.356 1.17444C116.733 -0.968341 101.15 -0.385008 97.2533 4.68221C87.1228 4.87666 75.2422 14.0311 73.6828 26.11C72.1389 38.0644 75.5767 43.6139 76.7978 52.6011C78.1822 62.7822 83.9067 66.0411 88.4839 67.4061C95.0678 76.1056 102.068 75.7322 113.824 75.7322C125.658 75.7322 134.272 71.6217 139.996 64.0928V11.0211C135.819 6.75499 130.227 3.39499 123.356 1.17444Z" fill="#FFAC33"/>
<path d="M101.306 69.1678H120.979V108.057H101.306V69.1678Z" fill="#FFDC5D"/>
<path d="M137.076 35.4006C134.855 32.3245 132.012 29.8511 125.778 28.9722C128.116 30.0417 130.356 33.7439 130.647 35.7895C130.939 37.835 131.231 39.4917 129.379 37.4461C121.967 29.2522 113.894 32.48 105.894 27.475C100.306 23.9789 98.6028 20.1133 98.6028 20.1133C98.6028 20.1133 97.9222 25.2739 89.4483 30.5356C86.9906 32.06 84.0622 35.455 82.4367 40.4678C81.2661 44.0728 81.6317 47.285 81.6317 52.7761C81.6317 57.2289 82.6817 61.4678 84.5017 65.2945C89.2383 75.2422 99.3689 82.2889 111.141 82.2889C121.201 82.2889 130.076 77.0972 135.403 69.3895C137.614 66.2036 139.175 62.6131 139.996 58.8233V42.7311C139.436 39.5033 138.499 37.3722 137.076 35.4006Z" fill="#FFDC5D"/>
<path d="M124.258 69.1678H98.0233C98.0233 69.1678 101.302 75.7244 111.141 75.7244C120.979 75.7244 124.258 69.1678 124.258 69.1678ZM114.423 60.9739H107.866C107.431 60.9739 107.013 60.801 106.706 60.4932C106.398 60.1854 106.225 59.768 106.225 59.3328C106.225 58.8975 106.398 58.4801 106.706 58.1723C107.013 57.8646 107.431 57.6917 107.866 57.6917H114.423C114.858 57.6917 115.275 57.8646 115.583 58.1723C115.891 58.4801 116.064 58.8975 116.064 59.3328C116.064 59.768 115.891 60.1854 115.583 60.4932C115.275 60.801 114.858 60.9739 114.423 60.9739Z" fill="#C1694F"/>
<path d="M98.0272 49.4978C97.1578 49.4978 96.3239 49.1524 95.7091 48.5376C95.0943 47.9228 94.7489 47.0889 94.7489 46.2194V42.9411C94.7489 42.0716 95.0943 41.2378 95.7091 40.623C96.3239 40.0082 97.1578 39.6628 98.0272 39.6628C98.8967 39.6628 99.7306 40.0082 100.345 40.623C100.96 41.2378 101.306 42.0716 101.306 42.9411V46.2194C101.306 47.0889 100.96 47.9228 100.345 48.5376C99.7306 49.1524 98.8967 49.4978 98.0272 49.4978ZM124.258 49.4978C123.388 49.4978 122.554 49.1524 121.94 48.5376C121.325 47.9228 120.979 47.0889 120.979 46.2194V42.9411C120.979 42.0716 121.325 41.2378 121.94 40.623C122.554 40.0082 123.388 39.6628 124.258 39.6628C125.127 39.6628 125.961 40.0082 126.576 40.623C127.191 41.2378 127.536 42.0716 127.536 42.9411V46.2194C127.537 46.6501 127.452 47.0766 127.288 47.4746C127.123 47.8726 126.882 48.2342 126.577 48.5387C126.273 48.8432 125.911 49.0847 125.513 49.2493C125.115 49.4138 124.688 49.4983 124.258 49.4978Z" fill="#662113"/>
<path d="M81.6667 85.5555H101.111C101.111 85.5555 101.881 104.117 110.724 104.117C119.568 104.117 120.882 85.5555 120.882 85.5555H140V140H70V97.1172C70 89.4444 73.8889 85.5555 81.6667 85.5555Z" fill="#FA743E"/>
<path d="M81.6122 101.111H85.61V140H81.6122V101.111Z" fill="#DD551F"/>
<path d="M32.1611 75.7284C55.1133 75.7284 66.045 60.3712 67.0133 34.2884C67.5967 18.5112 58.3411 6.56066 41.6928 1.17455C35.0661 -0.968231 19.4833 -0.384898 15.5867 4.67844C10.29 4.77955 4.52667 7.34621 0 11.4879V63.5018C2.13111 65.6173 4.60833 66.7451 6.82111 67.4023C13.4089 76.1018 20.4089 75.7284 32.1611 75.7284Z" fill="#FFAC33"/>
<path d="M19.0439 69.1678H38.7178V108.057H19.0439V69.1678Z" fill="#FFDC5D"/>
<path d="M54.8139 35.4005C52.5933 32.3244 49.7506 29.8511 43.5167 28.9722C45.8539 30.0417 48.0939 33.7439 48.3856 35.7894C48.6772 37.835 48.9689 39.4917 47.1178 37.4461C39.7056 29.2522 31.6322 32.48 23.6328 27.475C18.0483 23.9789 16.345 20.1094 16.345 20.1094C16.345 20.1094 15.6644 25.27 7.19056 30.5317C4.73278 32.0561 1.80444 35.4511 0.178889 40.4639C0.0933333 40.7244 0.07 40.9772 0 41.2339V58.7572C0.482222 61.04 1.25611 63.2217 2.24389 65.2906C6.98056 75.2383 17.1111 82.285 28.8828 82.285C38.9433 82.285 47.8178 77.0933 53.1456 69.3855C56.543 64.5115 58.3731 58.7173 58.3917 52.7761C58.3917 42.8011 57.3494 38.9083 54.8139 35.4005Z" fill="#FFDC5D"/>
<path d="M41.9961 69.1678H15.7617C15.7617 69.1678 19.04 75.7244 28.8789 75.7244C38.7178 75.7244 41.9961 69.1678 41.9961 69.1678ZM32.1611 60.9739H25.6044C25.1692 60.9739 24.7518 60.801 24.444 60.4932C24.1362 60.1854 23.9633 59.768 23.9633 59.3328C23.9633 58.8975 24.1362 58.4801 24.444 58.1723C24.7518 57.8646 25.1692 57.6917 25.6044 57.6917H32.1611C32.5964 57.6917 33.0138 57.8646 33.3215 58.1723C33.6293 58.4801 33.8022 58.8975 33.8022 59.3328C33.8022 59.768 33.6293 60.1854 33.3215 60.4932C33.0138 60.801 32.5964 60.9739 32.1611 60.9739Z" fill="#C1694F"/>
<path d="M15.7656 49.4978C14.8961 49.4978 14.0623 49.1524 13.4474 48.5376C12.8326 47.9228 12.4872 47.0889 12.4872 46.2194V42.9411C12.4872 42.0716 12.8326 41.2378 13.4474 40.623C14.0623 40.0082 14.8961 39.6628 15.7656 39.6628C16.635 39.6628 17.4689 40.0082 18.0837 40.623C18.6985 41.2378 19.0439 42.0716 19.0439 42.9411V46.2194C19.0439 47.0889 18.6985 47.9228 18.0837 48.5376C17.4689 49.1524 16.635 49.4978 15.7656 49.4978ZM41.9961 49.4978C41.1267 49.4978 40.2928 49.1524 39.678 48.5376C39.0632 47.9228 38.7178 47.0889 38.7178 46.2194V42.9411C38.7178 42.0716 39.0632 41.2378 39.678 40.623C40.2928 40.0082 41.1267 39.6628 41.9961 39.6628C42.8656 39.6628 43.6995 40.0082 44.3143 40.623C44.9291 41.2378 45.2745 42.0716 45.2745 42.9411V46.2194C45.275 46.6501 45.1905 47.0766 45.026 47.4746C44.8614 47.8726 44.6199 48.2342 44.3154 48.5387C44.0109 48.8432 43.6493 49.0847 43.2513 49.2493C42.8533 49.4138 42.4268 49.4983 41.9961 49.4978Z" fill="#662113"/>
<path d="M58.3333 85.5555H38.8889C38.8889 85.5555 38.1189 104.117 29.2756 104.117C20.4322 104.117 19.0439 85.5555 19.0439 85.5555H0V140H70V97.1172C70 89.4444 66.1111 85.5555 58.3333 85.5555Z" fill="#99AAB5"/>
<path d="M54.39 101.111H58.3878V140H54.39V101.111Z" fill="#66757F"/>
<path d="M81.5072 58.5394C75.8139 56.6961 62.4167 57.1978 59.0644 61.5533C50.3572 61.7205 40.1411 69.5917 38.7994 79.975C37.4733 90.2533 40.4289 95.025 41.4789 102.752C42.6689 111.506 47.5922 114.306 51.5278 115.481C57.19 122.959 63.2061 122.64 73.3133 122.64C93.0455 122.64 102.445 109.437 103.277 87.01C103.779 73.4417 95.8222 63.1711 81.5072 58.5394Z" fill="#FFAC33"/>
<path d="M62.4283 116.997H78.5595V140H62.4283V116.997Z" fill="#FFDC5D"/>
<path d="M92.7927 87.9667C90.8833 85.3222 88.4372 83.195 83.0783 82.4406C85.0889 83.3622 87.0139 86.5434 87.2666 88.3011C87.5194 90.0589 87.7683 91.4822 86.1777 89.7245C79.8039 82.6817 72.8622 85.4545 65.9866 81.1495C61.1839 78.1434 59.7177 74.8184 59.7177 74.8184C59.7177 74.8184 59.1305 79.2556 51.8466 83.7784C49.735 85.0889 47.215 88.0095 45.8189 92.3184C44.8155 95.4178 45.1266 98.1789 45.1266 102.9C45.1266 116.682 56.4861 128.271 70.4977 128.271C84.5094 128.271 95.8689 116.581 95.8689 102.9C95.865 94.3289 94.9666 90.9806 92.7927 87.9667Z" fill="#FFDC5D"/>
<path d="M81.7717 116.997H59.2161C59.2161 116.997 62.0356 122.636 70.4939 122.636C78.9522 122.636 81.7717 116.997 81.7717 116.997ZM73.3133 111.362H67.6745C67.3011 111.362 66.943 111.214 66.679 110.95C66.415 110.686 66.2667 110.328 66.2667 109.954C66.2667 109.581 66.415 109.223 66.679 108.959C66.943 108.695 67.3011 108.547 67.6745 108.547H73.3133C73.6867 108.547 74.0448 108.695 74.3088 108.959C74.5728 109.223 74.7211 109.581 74.7211 109.954C74.7211 110.328 74.5728 110.686 74.3088 110.95C74.0448 111.214 73.6867 111.362 73.3133 111.362Z" fill="#C1694F"/>
<path d="M58.6872 104.082C58.2565 104.083 57.83 103.998 57.432 103.834C57.0341 103.669 56.6725 103.428 56.3679 103.123C56.0634 102.819 55.822 102.457 55.6574 102.059C55.4928 101.661 55.4084 101.235 55.4089 100.804V97.5255C55.4089 96.6561 55.7543 95.8222 56.3691 95.2074C56.9839 94.5926 57.8177 94.2472 58.6872 94.2472C59.5567 94.2472 60.3905 94.5926 61.0053 95.2074C61.6201 95.8222 61.9655 96.6561 61.9655 97.5255V100.804C61.9661 101.235 61.8816 101.661 61.717 102.059C61.5525 102.457 61.311 102.819 61.0065 103.123C60.702 103.428 60.3404 103.669 59.9424 103.834C59.5444 103.998 59.1179 104.083 58.6872 104.082ZM82.0205 104.082C81.5899 104.083 81.1633 103.998 80.7654 103.834C80.3674 103.669 80.0058 103.428 79.7013 103.123C79.3967 102.819 79.1553 102.457 78.9907 102.059C78.8261 101.661 78.7417 101.235 78.7422 100.804V97.5255C78.7422 96.6561 79.0876 95.8222 79.7024 95.2074C80.3172 94.5926 81.1511 94.2472 82.0205 94.2472C82.89 94.2472 83.7239 94.5926 84.3387 95.2074C84.9535 95.8222 85.2989 96.6561 85.2989 97.5255V100.804C85.2994 101.235 85.2149 101.661 85.0504 102.059C84.8858 102.457 84.6443 102.819 84.3398 103.123C84.0353 103.428 83.6737 103.669 83.2757 103.834C82.8777 103.998 82.4512 104.083 82.0205 104.082Z" fill="#662113"/>
<path d="M89.7983 128.333H78.5594C78.5594 128.333 75.8178 140 70.4939 140C65.1739 140 62.4283 128.333 62.4283 128.333H54.7983C53.3672 128.333 52.0022 128.458 50.6955 128.676C43.1472 129.943 37.8583 134.645 36.0772 140H104.646C102.632 133.77 96.25 128.333 89.7983 128.333Z" fill="#5C913B"/>
</g>
<defs>
<clipPath id="clip0_29_10">
<rect width="140" height="140" fill="white"/>
</clipPath>
</defs>
</svg>
