<svg width="145" height="145" viewBox="0 0 145 145" fill="none" xmlns="http://www.w3.org/2000/svg">
<g clip-path="url(#clip0_29_111)">
<path d="M120.833 104.722C120.833 108.995 119.136 113.093 116.114 116.114C113.093 119.136 108.995 120.833 104.722 120.833H16.1111C11.8382 120.833 7.74025 119.136 4.71884 116.114C1.69742 113.093 0 108.995 0 104.722V16.1111C0 11.8382 1.69742 7.74025 4.71884 4.71884C7.74025 1.69742 11.8382 0 16.1111 0L104.722 0C108.995 0 113.093 1.69742 116.114 4.71884C119.136 7.74025 120.833 11.8382 120.833 16.1111V104.722Z" fill="#CCD6DC"/>
<path d="M112.778 104.722C112.778 106.859 111.929 108.908 110.418 110.418C108.908 111.929 106.859 112.778 104.722 112.778H16.1112C13.9748 112.778 11.9258 111.929 10.4151 110.418C8.90437 108.908 8.05566 106.859 8.05566 104.722V16.1111C8.05566 13.9746 8.90437 11.9257 10.4151 10.415C11.9258 8.90425 13.9748 8.05554 16.1112 8.05554H104.722C106.859 8.05554 108.908 8.90425 110.418 10.415C111.929 11.9257 112.778 13.9746 112.778 16.1111V104.722Z" fill="#F5F8FA"/>
<path d="M24.1667 104.722C23.0985 104.722 22.074 104.298 21.3186 103.542C20.5633 102.787 20.1389 101.763 20.1389 100.694V52.3611C20.1389 51.2929 20.5633 50.2684 21.3186 49.513C22.074 48.7577 23.0985 48.3333 24.1667 48.3333C25.2349 48.3333 26.2594 48.7577 27.0148 49.513C27.7701 50.2684 28.1945 51.2929 28.1945 52.3611V100.694C28.1945 101.763 27.7701 102.787 27.0148 103.542C26.2594 104.298 25.2349 104.722 24.1667 104.722Z" fill="#50A5E6"/>
<path d="M40.2778 104.722C39.2095 104.722 38.1851 104.298 37.4297 103.543C36.6744 102.787 36.25 101.763 36.25 100.694V32.2222C36.25 31.154 36.6744 30.1295 37.4297 29.3742C38.1851 28.6188 39.2095 28.1945 40.2778 28.1945C41.346 28.1945 42.3705 28.6188 43.1258 29.3742C43.8812 30.1295 44.3056 31.154 44.3056 32.2222V100.694C44.3056 101.763 43.8812 102.787 43.1258 103.543C42.3705 104.298 41.346 104.722 40.2778 104.722Z" fill="#77B255"/>
<path d="M56.3889 104.722C55.3206 104.722 54.2961 104.298 53.5408 103.543C52.7854 102.787 52.3611 101.763 52.3611 100.694V72.5C52.3611 71.4318 52.7854 70.4073 53.5408 69.6519C54.2961 68.8966 55.3206 68.4722 56.3889 68.4722C57.4571 68.4722 58.4816 68.8966 59.2369 69.6519C59.9923 70.4073 60.4166 71.4318 60.4166 72.5V100.694C60.4166 101.763 59.9923 102.787 59.2369 103.543C58.4816 104.298 57.4571 104.722 56.3889 104.722Z" fill="#DD2F45"/>
<path d="M145 145V136.944C145 123.596 134.185 112.778 120.833 112.778H56.3888C49.9794 112.778 43.8326 115.324 39.3004 119.856C34.7683 124.388 32.2222 130.535 32.2222 136.944V145H145Z" fill="#226798"/>
<path d="M67.131 145H81.3611L68.4722 112.778H60.4167L56.3889 136.944L68.4722 140.972L67.131 145ZM110.091 145H95.8611L108.75 112.778H116.806L120.833 136.944L108.75 140.972L110.091 145Z" fill="#3A87C2"/>
<path d="M71.05 113.185C78.0745 118.292 82.5574 121.369 88.6514 121.369C94.7414 121.369 99.1478 118.284 106.172 113.185V97.8347H71.05V113.185Z" fill="#F6DDCD"/>
<path d="M71.0177 104.613C75.9155 110.148 81.9894 111.646 88.5949 111.646C95.1965 111.646 101.27 110.144 106.168 104.613V90.5525H71.0137L71.0177 104.613Z" fill="#ECC0AC"/>
<path d="M62.2089 64.1867C62.2089 70.0189 59.2525 74.7475 55.6074 74.7475C51.9622 74.7475 49.0059 70.0189 49.0059 64.1867C49.0059 58.3545 51.9622 53.6218 55.6074 53.6218C59.2525 53.6218 62.2089 58.3504 62.2089 64.1867ZM128.216 64.1867C128.216 70.0189 125.264 74.7475 121.615 74.7475C117.969 74.7475 115.013 70.0189 115.013 64.1867C115.013 58.3545 117.965 53.6218 121.615 53.6218C125.264 53.6218 128.216 58.3504 128.216 64.1867Z" fill="#F6DDCD"/>
<path d="M54.2864 68.3111C54.2864 45.7998 69.6564 27.546 88.6151 27.546C107.574 27.546 122.944 45.7998 122.944 68.3111C122.944 90.8223 107.574 109.076 88.6151 109.076C69.6564 109.072 54.2864 90.8223 54.2864 68.3111Z" fill="#F6DDCD"/>
<path d="M88.611 95.8692C77.5185 95.8692 74.111 93.0296 73.5431 92.4536C73.2919 92.2151 73.0901 91.9294 72.9492 91.6128C72.8084 91.2963 72.7313 90.9551 72.7223 90.6088C72.7042 89.9093 72.9647 89.2313 73.4464 88.7239C73.9282 88.2165 74.5918 87.9212 75.2913 87.9031C75.9907 87.885 76.6687 88.1455 77.1762 88.6272C77.3856 88.7763 80.0802 90.5888 88.611 90.5888C97.4721 90.5888 100.034 88.6353 100.058 88.6151C100.301 88.3739 100.591 88.1837 100.908 88.0559C101.226 87.928 101.567 87.8651 101.909 87.8707C102.252 87.8763 102.59 87.9504 102.904 88.0887C103.217 88.2269 103.5 88.4264 103.735 88.6756C104.223 89.1869 104.491 89.8694 104.48 90.5761C104.47 91.2828 104.182 91.9571 103.679 92.4536C103.111 93.0296 99.7035 95.8692 88.611 95.8692ZM91.6319 79.5486H85.5902C83.9267 79.5486 82.5694 78.1913 82.5694 76.5278C82.5694 74.8643 83.9267 73.507 85.5902 73.507H91.6319C93.2953 73.507 94.6527 74.8643 94.6527 76.5278C94.6527 78.1913 93.2953 79.5486 91.6319 79.5486Z" fill="#C1694F"/>
<path d="M104.722 68.4722C102.507 68.4722 100.694 66.6597 100.694 64.4445V60.4167C100.694 58.2014 102.507 56.3889 104.722 56.3889C106.937 56.3889 108.75 58.2014 108.75 60.4167V64.4445C108.75 66.6597 106.937 68.4722 104.722 68.4722ZM72.4999 68.4722C70.2847 68.4722 68.4722 66.6597 68.4722 64.4445V60.4167C68.4722 58.2014 70.2847 56.3889 72.4999 56.3889C74.7152 56.3889 76.5277 58.2014 76.5277 60.4167V64.4445C76.5277 66.6597 74.7152 68.4722 72.4999 68.4722Z" fill="#662213"/>
<path d="M88.6111 14.0167C111.36 14.0167 125.578 30.8044 125.578 44.7929C125.578 58.7814 122.734 64.38 119.891 58.7814L114.204 47.5922C114.204 47.5922 97.146 47.5922 91.4588 41.9936C91.4588 41.9936 99.9896 58.7814 82.9279 41.9936C82.9279 41.9936 85.7715 53.1868 68.7099 39.1983C68.7099 39.1983 60.179 44.7929 57.3354 58.7814C56.546 62.6642 51.6482 58.7814 51.6482 44.7929C51.6442 30.8044 63.0186 14.0167 88.6111 14.0167Z" fill="#292F33"/>
<path d="M82.4124 145H96.6667L104.722 128.889L88.6514 121.369L72.5 128.889L80.5556 145H82.4124Z" fill="#CCD6DC"/>
<path d="M88.7359 136.771C91.7326 136.771 93.7545 140.9 95.0273 145H97.2386C95.6516 139.917 93.8512 135.18 93.8512 135.18C93.8512 135.18 95.3616 132.663 95.99 131.531C96.7311 130.202 97.8145 125.207 97.8145 125.207L89.0018 121.329C89.0018 121.305 88.3573 121.353 88.3573 121.353L87.6162 121.526L86.9234 121.776C86.0494 122.058 87.302 121.808 87.302 121.832L79.3552 125.207C79.3552 125.207 80.5112 130.202 81.2443 131.531C81.8726 132.663 83.375 135.18 83.375 135.18C83.375 135.18 81.643 139.635 80.1648 145H82.4163C83.7012 140.9 85.7433 136.771 88.7359 136.771Z" fill="#9F1D22"/>
<path d="M88.736 136.771C85.7393 136.771 83.7012 140.9 82.4124 145H95.0274C93.7546 140.9 91.7326 136.771 88.736 136.771ZM88.6272 124.108C90.2021 124.015 94.8421 127.213 94.3547 129.143C92.4979 136.497 90.9392 134.745 88.7521 134.745C86.2911 134.745 84.8733 136.65 83.1494 129.461C82.7829 127.898 86.3596 124.233 88.6272 124.108Z" fill="#DD2F45"/>
<path d="M107.618 107.743C105.334 110.023 88.6514 121.369 88.6514 121.369C88.6514 121.369 97.2184 126.372 105.101 135.599C105.894 136.526 111.316 116.971 111.481 112.605C111.525 111.384 108.71 106.652 107.618 107.743ZM69.6845 107.743C71.9643 110.023 88.6514 121.369 88.6514 121.369C88.6514 121.369 80.0843 126.372 72.2019 135.599C71.4084 136.526 65.987 116.971 65.8219 112.605C65.7736 111.384 68.589 106.652 69.6845 107.743Z" fill="#F4F7F9"/>
</g>
<defs>
<clipPath id="clip0_29_111">
<rect width="145" height="145" fill="white"/>
</clipPath>
</defs>
</svg>
