<svg width="51" height="53" viewBox="0 0 51 53" fill="none" xmlns="http://www.w3.org/2000/svg">
<path d="M35.7441 39.5592C33.4457 39.5592 31.6028 41.492 31.6028 43.9025C31.6028 45.0545 32.0391 46.1592 32.8158 46.9738C33.5924 47.7883 34.6458 48.2459 35.7441 48.2459C36.8425 48.2459 37.8958 47.7883 38.6725 46.9738C39.4492 46.1592 39.8855 45.0545 39.8855 43.9025C39.8855 42.7506 39.4492 41.6458 38.6725 40.8313C37.8958 40.0168 36.8425 39.5592 35.7441 39.5592ZM2.61335 4.81226V9.15562H6.7547L14.2091 25.6387L11.393 30.9593C11.0824 31.5674 10.896 32.284 10.896 33.0441C10.896 34.1961 11.3324 35.3008 12.109 36.1153C12.8857 36.9299 13.939 37.3875 15.0374 37.3875H39.8855V33.0441H15.9071C15.7698 33.0441 15.6381 32.9869 15.541 32.8851C15.4439 32.7833 15.3894 32.6452 15.3894 32.5012C15.3894 32.3926 15.4101 32.3057 15.4515 32.2406L17.3151 28.7008H32.7416C34.2947 28.7008 35.6613 27.7887 36.3653 26.4639L43.7783 12.4131C43.9233 12.0657 44.0268 11.6965 44.0268 11.3273C44.0268 10.7513 43.8087 10.199 43.4203 9.79169C43.032 9.38442 42.5053 9.15562 41.9561 9.15562H11.3309L9.38445 4.81226M15.0374 39.5592C12.7389 39.5592 10.896 41.492 10.896 43.9025C10.896 45.0545 11.3324 46.1592 12.109 46.9738C12.8857 47.7883 13.939 48.2459 15.0374 48.2459C16.1357 48.2459 17.1891 47.7883 17.9658 46.9738C18.7424 46.1592 19.1787 45.0545 19.1787 43.9025C19.1787 42.7506 18.7424 41.6458 17.9658 40.8313C17.1891 40.0168 16.1357 39.5592 15.0374 39.5592Z" fill="white"/>
</svg>
