<svg width="41" height="43" viewBox="0 0 41 43" fill="none" xmlns="http://www.w3.org/2000/svg">
<path d="M29.0417 32.2499C27.1455 32.2499 25.625 33.8445 25.625 35.8333C25.625 36.7836 25.985 37.695 26.6258 38.367C27.2665 39.0391 28.1356 39.4166 29.0417 39.4166C29.9479 39.4166 30.8169 39.0391 31.4577 38.367C32.0984 37.695 32.4584 36.7836 32.4584 35.8333C32.4584 34.8829 32.0984 33.9715 31.4577 33.2995C30.8169 32.6274 29.9479 32.2499 29.0417 32.2499ZM1.70837 3.58325V7.16659H5.12504L11.275 20.7653L8.95171 25.1549C8.69546 25.6566 8.54171 26.2478 8.54171 26.8749C8.54171 27.8253 8.90168 28.7367 9.54243 29.4087C10.1832 30.0807 11.0522 30.4583 11.9584 30.4583H32.4584V26.8749H12.6759C12.5626 26.8749 12.454 26.8277 12.3739 26.7437C12.2938 26.6597 12.2488 26.5458 12.2488 26.427C12.2488 26.3374 12.2659 26.2658 12.3 26.212L13.8375 23.2916H26.5646C27.8459 23.2916 28.9734 22.5391 29.5542 21.4462L35.67 9.85409C35.7896 9.56742 35.875 9.26284 35.875 8.95825C35.875 8.48307 35.6951 8.02736 35.3747 7.69135C35.0543 7.35535 34.6198 7.16659 34.1667 7.16659H8.90046L7.29462 3.58325M11.9584 32.2499C10.0621 32.2499 8.54171 33.8445 8.54171 35.8333C8.54171 36.7836 8.90168 37.695 9.54243 38.367C10.1832 39.0391 11.0522 39.4166 11.9584 39.4166C12.8645 39.4166 13.7336 39.0391 14.3743 38.367C15.0151 37.695 15.375 36.7836 15.375 35.8333C15.375 34.8829 15.0151 33.9715 14.3743 33.2995C13.7336 32.6274 12.8645 32.2499 11.9584 32.2499Z" fill="white"/>
</svg>
