<svg width="41" height="43" viewBox="0 0 41 43" fill="none" xmlns="http://www.w3.org/2000/svg">
<path d="M29.0417 32.25C27.1454 32.25 25.625 33.8446 25.625 35.8334C25.625 36.7837 25.985 37.6952 26.6257 38.3672C27.2665 39.0392 28.1355 39.4167 29.0417 39.4167C29.9478 39.4167 30.8169 39.0392 31.4576 38.3672C32.0984 37.6952 32.4583 36.7837 32.4583 35.8334C32.4583 34.883 32.0984 33.9716 31.4576 33.2996C30.8169 32.6276 29.9478 32.25 29.0417 32.25ZM1.70833 3.58337V7.16671H5.12499L11.275 20.7655L8.95166 25.155C8.69541 25.6567 8.54166 26.248 8.54166 26.875C8.54166 27.8254 8.90163 28.7368 9.54238 29.4088C10.1831 30.0808 11.0522 30.4584 11.9583 30.4584H32.4583V26.875H12.6758C12.5626 26.875 12.4539 26.8279 12.3738 26.7438C12.2937 26.6598 12.2487 26.5459 12.2487 26.4271C12.2487 26.3375 12.2658 26.2659 12.3 26.2121L13.8375 23.2917H26.5646C27.8458 23.2917 28.9733 22.5392 29.5542 21.4463L35.67 9.85421C35.7896 9.56754 35.875 9.26296 35.875 8.95837C35.875 8.48319 35.695 8.02748 35.3746 7.69147C35.0543 7.35547 34.6197 7.16671 34.1667 7.16671H8.90041L7.29458 3.58337M11.9583 32.25C10.0621 32.25 8.54166 33.8446 8.54166 35.8334C8.54166 36.7837 8.90163 37.6952 9.54238 38.3672C10.1831 39.0392 11.0522 39.4167 11.9583 39.4167C12.8645 39.4167 13.7335 39.0392 14.3743 38.3672C15.015 37.6952 15.375 36.7837 15.375 35.8334C15.375 34.883 15.015 33.9716 14.3743 33.2996C13.7335 32.6276 12.8645 32.25 11.9583 32.25Z" fill="white"/>
</svg>
