<svg width="56" height="48" viewBox="0 0 56 48" fill="none" xmlns="http://www.w3.org/2000/svg">
<path d="M39.0156 35.6809C36.4681 35.6809 34.4255 37.4451 34.4255 39.6454C34.4255 40.6969 34.9091 41.7053 35.7699 42.4488C36.6307 43.1923 37.7982 43.61 39.0156 43.61C40.2329 43.61 41.4004 43.1923 42.2612 42.4488C43.1221 41.7053 43.6057 40.6969 43.6057 39.6454C43.6057 38.594 43.1221 37.5856 42.2612 36.8421C41.4004 36.0986 40.2329 35.6809 39.0156 35.6809ZM2.29504 3.9646V7.92914H6.88511L15.1472 22.9746L12.026 27.8311C11.6817 28.3862 11.4752 29.0403 11.4752 29.7341C11.4752 30.7856 11.9588 31.794 12.8196 32.5375C13.6804 33.2809 14.8479 33.6986 16.0652 33.6986H43.6057V29.7341H17.0292C16.877 29.7341 16.7311 29.6819 16.6235 29.589C16.5159 29.496 16.4554 29.37 16.4554 29.2385C16.4554 29.1394 16.4784 29.0601 16.5243 29.0007L18.5898 25.7696H35.6878C37.4091 25.7696 38.9238 24.937 39.7041 23.7278L47.9203 10.9025C48.081 10.5854 48.1957 10.2484 48.1957 9.91141C48.1957 9.38568 47.9539 8.88148 47.5235 8.50973C47.0931 8.13798 46.5094 7.92914 45.9007 7.92914H11.9571L9.7998 3.9646M16.0652 35.6809C13.5178 35.6809 11.4752 37.4451 11.4752 39.6454C11.4752 40.6969 11.9588 41.7053 12.8196 42.4488C13.6804 43.1923 14.8479 43.61 16.0652 43.61C17.2826 43.61 18.4501 43.1923 19.3109 42.4488C20.1717 41.7053 20.6553 40.6969 20.6553 39.6454C20.6553 38.594 20.1717 37.5856 19.3109 36.8421C18.4501 36.0986 17.2826 35.6809 16.0652 35.6809Z" fill="black"/>
</svg>
