<svg width="41" height="43" viewBox="0 0 41 43" fill="none" xmlns="http://www.w3.org/2000/svg">
<path d="M29.0418 32.2499C27.1456 32.2499 25.6252 33.8445 25.6252 35.8333C25.6252 36.7836 25.9851 37.695 26.6259 38.3671C27.2666 39.0391 28.1357 39.4166 29.0418 39.4166C29.948 39.4166 30.817 39.0391 31.4578 38.3671C32.0985 37.695 32.4585 36.7836 32.4585 35.8333C32.4585 34.8829 32.0985 33.9715 31.4578 33.2995C30.817 32.6274 29.948 32.2499 29.0418 32.2499ZM1.7085 3.58325V7.16659H5.12516L11.2752 20.7653L8.95183 25.1549C8.69558 25.6566 8.54183 26.2478 8.54183 26.8749C8.54183 27.8253 8.9018 28.7367 9.54255 29.4087C10.1833 30.0807 11.0523 30.4583 11.9585 30.4583H32.4585V26.8749H12.676C12.5627 26.8749 12.4541 26.8277 12.374 26.7437C12.2939 26.6597 12.2489 26.5458 12.2489 26.427C12.2489 26.3374 12.266 26.2658 12.3002 26.212L13.8377 23.2916H26.5647C27.846 23.2916 28.9735 22.5391 29.5543 21.4462L35.6702 9.85408C35.7897 9.56742 35.8752 9.26284 35.8752 8.95825C35.8752 8.48307 35.6952 8.02736 35.3748 7.69135C35.0544 7.35535 34.6199 7.16659 34.1668 7.16659H8.90058L7.29475 3.58325M11.9585 32.2499C10.0622 32.2499 8.54183 33.8445 8.54183 35.8333C8.54183 36.7836 8.9018 37.695 9.54255 38.3671C10.1833 39.0391 11.0523 39.4166 11.9585 39.4166C12.8647 39.4166 13.7337 39.0391 14.3744 38.3671C15.0152 37.695 15.3752 36.7836 15.3752 35.8333C15.3752 34.8829 15.0152 33.9715 14.3744 33.2995C13.7337 32.6274 12.8647 32.2499 11.9585 32.2499Z" fill="white"/>
</svg>
