<svg width="41" height="43" viewBox="0 0 41 43" fill="none" xmlns="http://www.w3.org/2000/svg">
<path d="M29.0416 32.2499C27.1453 32.2499 25.6249 33.8445 25.6249 35.8333C25.6249 36.7836 25.9849 37.695 26.6256 38.367C27.2664 39.0391 28.1354 39.4166 29.0416 39.4166C29.9477 39.4166 30.8168 39.0391 31.4575 38.367C32.0983 37.695 32.4583 36.7836 32.4583 35.8333C32.4583 34.8829 32.0983 33.9715 31.4575 33.2995C30.8168 32.6274 29.9477 32.2499 29.0416 32.2499ZM1.70825 3.58325V7.16659H5.12492L11.2749 20.7653L8.95159 25.1549C8.69534 25.6566 8.54159 26.2478 8.54159 26.8749C8.54159 27.8253 8.90155 28.7367 9.5423 29.4087C10.1831 30.0807 11.0521 30.4583 11.9583 30.4583H32.4583V26.8749H12.6758C12.5625 26.8749 12.4539 26.8277 12.3738 26.7437C12.2937 26.6597 12.2487 26.5458 12.2487 26.427C12.2487 26.3374 12.2658 26.2658 12.2999 26.212L13.8374 23.2916H26.5645C27.8458 23.2916 28.9733 22.5391 29.5541 21.4462L35.6699 9.85409C35.7895 9.56742 35.8749 9.26284 35.8749 8.95825C35.8749 8.48307 35.6949 8.02736 35.3746 7.69135C35.0542 7.35535 34.6197 7.16659 34.1666 7.16659H8.90034L7.2945 3.58325M11.9583 32.2499C10.062 32.2499 8.54159 33.8445 8.54159 35.8333C8.54159 36.7836 8.90155 37.695 9.5423 38.367C10.1831 39.0391 11.0521 39.4166 11.9583 39.4166C12.8644 39.4166 13.7335 39.0391 14.3742 38.367C15.0149 37.695 15.3749 36.7836 15.3749 35.8333C15.3749 34.8829 15.0149 33.9715 14.3742 33.2995C13.7335 32.6274 12.8644 32.2499 11.9583 32.2499Z" fill="white"/>
</svg>
