<svg width="41" height="43" viewBox="0 0 41 43" fill="none" xmlns="http://www.w3.org/2000/svg">
<path d="M29.0417 32.2502C27.1454 32.2502 25.625 33.8447 25.625 35.8335C25.625 36.7839 25.985 37.6953 26.6257 38.3673C27.2665 39.0393 28.1355 39.4168 29.0417 39.4168C29.9478 39.4168 30.8169 39.0393 31.4576 38.3673C32.0984 37.6953 32.4583 36.7839 32.4583 35.8335C32.4583 34.8831 32.0984 33.9717 31.4576 33.2997C30.8169 32.6277 29.9478 32.2502 29.0417 32.2502ZM1.70833 3.5835V7.16683H5.12499L11.275 20.7656L8.95166 25.1552C8.69541 25.6568 8.54166 26.2481 8.54166 26.8752C8.54166 27.8255 8.90163 28.737 9.54238 29.409C10.1831 30.081 11.0522 30.4585 11.9583 30.4585H32.4583V26.8752H12.6758C12.5626 26.8752 12.4539 26.828 12.3738 26.744C12.2937 26.66 12.2487 26.546 12.2487 26.4272C12.2487 26.3377 12.2658 26.266 12.3 26.2122L13.8375 23.2918H26.5646C27.8458 23.2918 28.9733 22.5393 29.5542 21.4464L35.67 9.85433C35.7896 9.56766 35.875 9.26308 35.875 8.9585C35.875 8.48332 35.695 8.0276 35.3746 7.6916C35.0543 7.35559 34.6197 7.16683 34.1667 7.16683H8.90041L7.29458 3.5835M11.9583 32.2502C10.0621 32.2502 8.54166 33.8447 8.54166 35.8335C8.54166 36.7839 8.90163 37.6953 9.54238 38.3673C10.1831 39.0393 11.0522 39.4168 11.9583 39.4168C12.8645 39.4168 13.7335 39.0393 14.3743 38.3673C15.015 37.6953 15.375 36.7839 15.375 35.8335C15.375 34.8831 15.015 33.9717 14.3743 33.2997C13.7335 32.6277 12.8645 32.2502 11.9583 32.2502Z" fill="white"/>
</svg>
