<svg width="41" height="43" viewBox="0 0 41 43" fill="none" xmlns="http://www.w3.org/2000/svg">
<path d="M29.0417 32.2499C27.1454 32.2499 25.625 33.8445 25.625 35.8333C25.625 36.7836 25.985 37.695 26.6257 38.367C27.2665 39.0391 28.1355 39.4166 29.0417 39.4166C29.9478 39.4166 30.8169 39.0391 31.4576 38.367C32.0984 37.695 32.4583 36.7836 32.4583 35.8333C32.4583 34.8829 32.0984 33.9715 31.4576 33.2995C30.8169 32.6274 29.9478 32.2499 29.0417 32.2499ZM1.70833 3.58325V7.16659H5.12499L11.275 20.7653L8.95166 25.1549C8.69541 25.6566 8.54166 26.2478 8.54166 26.8749C8.54166 27.8253 8.90163 28.7367 9.54238 29.4087C10.1831 30.0807 11.0522 30.4583 11.9583 30.4583H32.4583V26.8749H12.6758C12.5626 26.8749 12.4539 26.8277 12.3738 26.7437C12.2937 26.6597 12.2487 26.5458 12.2487 26.427C12.2487 26.3374 12.2658 26.2658 12.3 26.212L13.8375 23.2916H26.5646C27.8458 23.2916 28.9733 22.5391 29.5542 21.4462L35.67 9.85409C35.7896 9.56742 35.875 9.26284 35.875 8.95825C35.875 8.48307 35.695 8.02736 35.3746 7.69135C35.0543 7.35535 34.6197 7.16659 34.1667 7.16659H8.90041L7.29458 3.58325M11.9583 32.2499C10.0621 32.2499 8.54166 33.8445 8.54166 35.8333C8.54166 36.7836 8.90163 37.695 9.54238 38.367C10.1831 39.0391 11.0522 39.4166 11.9583 39.4166C12.8645 39.4166 13.7335 39.0391 14.3743 38.367C15.015 37.695 15.375 36.7836 15.375 35.8333C15.375 34.8829 15.015 33.9715 14.3743 33.2995C13.7335 32.6274 12.8645 32.2499 11.9583 32.2499Z" fill="white"/>
</svg>
