<svg width="115" height="96" viewBox="0 0 115 96" fill="none" xmlns="http://www.w3.org/2000/svg">
<g clip-path="url(#clip0_130_409)">
<path d="M69.6958 3.63611C33.6108 3.63611 4.35596 28.0557 4.35596 58.1807C4.35596 88.3057 33.6108 112.725 69.6958 112.725C105.781 112.725 135.036 88.3038 135.036 58.1807C135.036 28.0557 105.781 3.63611 69.6958 3.63611ZM89.1954 81.2312C84.7327 84.4166 78.4296 86.0075 70.2817 86.0075C61.9617 86.0075 55.4147 84.4384 50.6492 81.3021C45.8816 78.1622 43.4989 73.8513 43.4989 68.3623H56.1029C56.5124 70.7732 57.3161 72.5732 58.5096 73.7677C60.7007 75.9404 64.449 77.024 69.7611 77.024C72.9432 77.024 75.5241 76.7404 77.5083 76.164C81.2762 75.0659 83.158 73.0277 83.158 70.046C83.158 68.306 82.2345 66.9569 80.3919 66.0006C78.545 65.0697 75.62 64.246 71.6168 63.5333L64.7757 62.2806C58.0501 61.037 53.4305 59.6916 50.9171 58.237C46.6548 55.8025 44.5269 51.9971 44.5269 46.819C44.5269 42.0937 46.6112 38.1701 50.7756 35.0447C54.9399 31.9175 61.0622 30.3557 69.1361 30.3557C75.8791 30.3557 81.6247 31.8284 86.3901 34.7756C91.1469 37.7228 93.6429 42.0009 93.8781 47.6081H81.1847C80.9517 44.4355 79.2529 42.1809 76.0882 40.8428C73.9777 39.961 71.3533 39.5174 68.2191 39.5174C64.73 39.5174 61.9487 40.0901 59.8687 41.2355C57.7887 42.3809 56.7454 43.9791 56.7454 46.0318C56.7454 47.9172 57.7713 49.3245 59.8251 50.2535C61.1406 50.8753 63.9394 51.6026 68.2213 52.4371L79.3117 54.6207C84.1686 55.5735 87.8145 56.8516 90.2408 58.448C94.0066 60.9297 95.8906 64.5224 95.8906 69.2205C95.8906 74.0404 93.6625 78.0458 89.1954 81.2312Z" fill="white"/>
</g>
<defs>
<clipPath id="clip0_130_409">
<rect width="115" height="96" fill="white"/>
</clipPath>
</defs>
</svg>
