<svg width="130" height="119" viewBox="0 0 130 119" fill="none" xmlns="http://www.w3.org/2000/svg">
<path d="M64.8125 4.15369C31.3205 4.15369 4.16797 28.9494 4.16797 59.5383C4.16797 90.1272 31.3205 114.923 64.8125 114.923C98.3045 114.923 125.457 90.1254 125.457 59.5383C125.457 28.9494 98.3045 4.15369 64.8125 4.15369ZM82.9109 82.9438C78.7688 86.1783 72.9187 87.7937 65.3563 87.7937C57.6342 87.7937 51.5576 86.2005 47.1346 83.0158C42.7096 79.8275 40.4981 75.4503 40.4981 69.8768H52.1964C52.5765 72.3248 53.3224 74.1525 54.4302 75.3654C56.4638 77.5715 59.9427 78.6718 64.8731 78.6718C67.8265 78.6718 70.222 78.3838 72.0636 77.7986C75.5607 76.6835 77.3073 74.614 77.3073 71.5863C77.3073 69.8195 76.4502 68.4497 74.74 67.4786C73.0258 66.5334 70.3109 65.6971 66.5955 64.9734L60.246 63.7014C54.0036 62.4386 49.7161 61.0725 47.3833 59.5955C43.4272 57.1235 41.4522 53.2595 41.4522 48.0017C41.4522 43.2035 43.3868 39.2195 47.2519 36.046C51.1169 32.8706 56.7993 31.2848 64.293 31.2848C70.5515 31.2848 75.8842 32.7802 80.3072 35.7728C84.7221 38.7654 87.0387 43.1094 87.2571 48.8029H75.4758C75.2595 45.5814 73.6828 43.2922 70.7456 41.9334C68.7867 41.038 66.3509 40.5875 63.4419 40.5875C60.2035 40.5875 57.6221 41.1691 55.6916 42.3322C53.7611 43.4952 52.7928 45.118 52.7928 47.2023C52.7928 49.1168 53.7449 50.5457 55.6511 51.4891C56.8721 52.1205 59.4697 52.8589 63.444 53.7063L73.7374 55.9235C78.2453 56.8909 81.6292 58.1888 83.8812 59.8097C87.3763 62.3297 89.1249 65.9777 89.1249 70.7482C89.1249 75.6423 87.0569 79.7094 82.9109 82.9438Z" fill="white"/>
</svg>
