<svg width="140" height="117" viewBox="0 0 140 117" fill="none" xmlns="http://www.w3.org/2000/svg">
<path d="M70.2385 4.10461C34.1535 4.10461 4.89868 28.5242 4.89868 58.6492C4.89868 88.7742 34.1535 113.194 70.2385 113.194C106.324 113.194 135.578 88.7723 135.578 58.6492C135.578 28.5242 106.324 4.10461 70.2385 4.10461ZM89.7381 81.6997C85.2754 84.8851 78.9723 86.476 70.8244 86.476C62.5045 86.476 55.9574 84.9069 51.192 81.7706C46.4243 78.6307 44.0416 74.3198 44.0416 68.8308H56.6457C57.0551 71.2417 57.8588 73.0417 59.0523 74.2362C61.2434 76.4089 64.9917 77.4925 70.3039 77.4925C73.4859 77.4925 76.0668 77.2089 78.051 76.6325C81.8189 75.5344 83.7007 73.4962 83.7007 70.5145C83.7007 68.7745 82.7772 67.4254 80.9347 66.4691C79.0877 65.5382 76.1627 64.7145 72.1595 64.0018L65.3184 62.7491C58.5928 61.5055 53.9733 60.1601 51.4599 58.7056C47.1975 56.271 45.0696 52.4657 45.0696 47.2876C45.0696 42.5622 47.154 38.6386 51.3183 35.5132C55.4826 32.386 61.605 30.8242 69.6788 30.8242C76.4219 30.8242 82.1674 32.2969 86.9329 35.2441C91.6896 38.1913 94.1856 42.4694 94.4208 48.0766H81.7275C81.4944 44.904 79.7956 42.6494 76.6309 41.3113C74.5205 40.4295 71.896 39.9859 68.7619 39.9859C65.2727 39.9859 62.4914 40.5586 60.4114 41.704C58.3314 42.8494 57.2882 44.4476 57.2882 46.5003C57.2882 48.3857 58.314 49.793 60.3679 50.722C61.6834 51.3439 64.4821 52.0711 68.764 52.9056L79.8544 55.0892C84.7113 56.042 88.3573 57.3201 90.7836 58.9165C94.5493 61.3982 96.4333 64.9909 96.4333 69.689C96.4333 74.5089 94.2052 78.5143 89.7381 81.6997Z" fill="white"/>
</svg>
