<svg width="140" height="120" viewBox="0 0 140 120" fill="none" xmlns="http://www.w3.org/2000/svg">
<path d="M69.8984 4.31818C34.0726 4.31818 5.02783 29.3033 5.02783 60.126C5.02783 90.9486 34.0726 115.934 69.8984 115.934C105.724 115.934 134.769 90.9468 134.769 60.126C134.769 29.3033 105.724 4.31818 69.8984 4.31818ZM89.258 83.7104C84.8273 86.9695 78.5695 88.5973 70.4801 88.5973C62.2199 88.5973 55.7199 86.9918 50.9887 83.7829C46.2553 80.5702 43.8896 76.1596 43.8896 70.5434H56.4032C56.8097 73.0101 57.6076 74.8518 58.7926 76.074C60.9679 78.297 64.6893 79.4057 69.9633 79.4057C73.1225 79.4057 75.6849 79.1155 77.6548 78.5258C81.3957 77.4022 83.2639 75.3169 83.2639 72.266C83.2639 70.4858 82.3471 69.1054 80.5178 68.127C78.6841 67.1745 75.78 66.3318 71.8056 65.6026L65.0137 64.3209C58.3363 63.0484 53.75 61.6718 51.2546 60.1836C47.0229 57.6928 44.9103 53.7992 44.9103 48.5012C44.9103 43.6664 46.9797 39.652 51.1141 36.4542C55.2485 33.2545 61.3269 31.6566 69.3427 31.6566C76.0374 31.6566 81.7416 33.1634 86.4729 36.1789C91.1955 39.1943 93.6735 43.5715 93.907 49.3086H81.3049C81.0735 46.0624 79.3868 43.7557 76.2449 42.3865C74.1496 41.4843 71.544 41.0304 68.4324 41.0304C64.9683 41.0304 62.2069 41.6164 60.1419 42.7884C58.0769 43.9603 57.0411 45.5955 57.0411 47.6957C57.0411 49.6248 58.0596 51.0646 60.0987 52.0152C61.4047 52.6515 64.1833 53.3956 68.4345 54.2494L79.4452 56.4836C84.2673 57.4584 87.8871 58.7661 90.2959 60.3994C94.0346 62.9387 95.9051 66.6146 95.9051 71.4215C95.9051 76.353 93.693 80.4512 89.258 83.7104Z" fill="white"/>
</svg>
