<svg width="130" height="119" viewBox="0 0 130 119" fill="none" xmlns="http://www.w3.org/2000/svg">
<path d="M65.0625 4.23047C31.5705 4.23047 4.41797 29.0262 4.41797 59.6151C4.41797 90.204 31.5705 115 65.0625 115C98.5545 115 125.707 90.2022 125.707 59.6151C125.707 29.0262 98.5545 4.23047 65.0625 4.23047ZM83.1608 83.0206C79.0188 86.2551 73.1687 87.8705 65.6063 87.8705C57.8842 87.8705 51.8076 86.2772 47.3846 83.0926C42.9596 79.9043 40.7481 75.5271 40.7481 69.9535H52.4464C52.8265 72.4015 53.5724 74.2292 54.6802 75.4422C56.7138 77.6483 60.1927 78.7486 65.1231 78.7486C68.0765 78.7486 70.472 78.4606 72.3136 77.8754C75.8107 76.7603 77.5573 74.6908 77.5573 71.6631C77.5573 69.8963 76.7002 68.5265 74.99 67.5554C73.2758 66.6102 70.5609 65.7739 66.8454 65.0502L60.496 63.7782C54.2536 62.5154 49.9661 61.1492 47.6333 59.6723C43.6772 57.2003 41.7022 53.3363 41.7022 48.0785C41.7022 43.2803 43.6368 39.2963 47.5019 36.1228C51.3669 32.9474 57.0493 31.3615 64.543 31.3615C70.8015 31.3615 76.1342 32.8569 80.5572 35.8495C84.9721 38.8422 87.2887 43.1862 87.507 48.8797H75.7258C75.5095 45.6582 73.9328 43.3689 70.9956 42.0102C69.0367 41.1148 66.6009 40.6643 63.6919 40.6643C60.4535 40.6643 57.8721 41.2459 55.9416 42.4089C54.011 43.572 53.0428 45.1948 53.0428 47.2791C53.0428 49.1935 53.9949 50.6225 55.9011 51.5659C57.1221 52.1972 59.7197 52.9357 63.694 53.7831L73.9874 56.0003C78.4953 56.9677 81.8792 58.2655 84.1312 59.8865C87.6263 62.4065 89.3749 66.0545 89.3749 70.8249C89.3749 75.7191 87.3069 79.7862 83.1608 83.0206Z" fill="white"/>
</svg>
