<svg width="108" height="99" viewBox="0 0 108 99" fill="none" xmlns="http://www.w3.org/2000/svg">
<path d="M54 3.09375C26.0415 3.09375 3.375 23.8698 3.375 49.5C3.375 75.1302 26.0415 95.9062 54 95.9062C81.9585 95.9062 104.625 75.1286 104.625 49.5C104.625 23.8698 81.9585 3.09375 54 3.09375ZM69.1082 69.1113C65.6505 71.8214 60.7669 73.1749 54.4539 73.1749C48.0077 73.1749 42.9351 71.84 39.2428 69.1716C35.5489 66.5002 33.7028 62.8325 33.7028 58.1625H43.4683C43.7856 60.2137 44.4082 61.7451 45.333 62.7614C47.0306 64.6099 49.9348 65.5318 54.0506 65.5318C56.5161 65.5318 58.5158 65.2905 60.0531 64.8001C62.9724 63.8658 64.4304 62.1318 64.4304 59.5949C64.4304 58.1145 63.7149 56.9668 62.2873 56.1531C60.8563 55.3611 58.59 54.6604 55.4884 54.054L50.1879 52.9882C44.9769 51.9301 41.3978 50.7854 39.4504 49.548C36.1479 47.4767 34.4993 44.2391 34.4993 39.8336C34.4993 35.8132 36.1142 32.4751 39.3407 29.816C42.5672 27.1554 47.3107 25.8266 53.5663 25.8266C58.7908 25.8266 63.2424 27.0796 66.9347 29.5871C70.6202 32.0946 72.5541 35.7344 72.7363 40.5049H62.9016C62.721 37.8056 61.4048 35.8875 58.9528 34.749C57.3176 33.9988 55.2842 33.6213 52.8559 33.6213C50.1525 33.6213 47.9976 34.1086 46.386 35.0831C44.7744 36.0577 43.9661 37.4174 43.9661 39.1638C43.9661 40.7679 44.7609 41.9652 46.3522 42.7556C47.3715 43.2847 49.5399 43.9034 52.8576 44.6134L61.4503 46.4712C65.2134 47.2818 68.0383 48.3692 69.9182 49.7274C72.8359 51.8389 74.2956 54.8955 74.2956 58.8926C74.2956 62.9934 72.5693 66.4012 69.1082 69.1113Z" fill="white"/>
</svg>
