<svg width="130" height="119" viewBox="0 0 130 119" fill="none" xmlns="http://www.w3.org/2000/svg">
<path d="M65.3125 4.15369C31.8205 4.15369 4.66797 28.9494 4.66797 59.5383C4.66797 90.1272 31.8205 114.923 65.3125 114.923C98.8045 114.923 125.957 90.1254 125.957 59.5383C125.957 28.9494 98.8045 4.15369 65.3125 4.15369ZM83.4109 82.9438C79.2688 86.1783 73.4187 87.7937 65.8563 87.7937C58.1342 87.7937 52.0576 86.2005 47.6346 83.0158C43.2096 79.8275 40.9981 75.4503 40.9981 69.8768H52.6964C53.0765 72.3248 53.8224 74.1525 54.9302 75.3654C56.9638 77.5715 60.4427 78.6718 65.3731 78.6718C68.3265 78.6718 70.722 78.3838 72.5636 77.7986C76.0607 76.6835 77.8073 74.614 77.8073 71.5863C77.8073 69.8195 76.9502 68.4497 75.24 67.4786C73.5258 66.5334 70.8109 65.6971 67.0955 64.9734L60.746 63.7014C54.5036 62.4386 50.2161 61.0725 47.8833 59.5955C43.9272 57.1235 41.9522 53.2595 41.9522 48.0017C41.9522 43.2035 43.8868 39.2195 47.7519 36.046C51.6169 32.8706 57.2993 31.2848 64.793 31.2848C71.0515 31.2848 76.3842 32.7802 80.8072 35.7728C85.2221 38.7654 87.5387 43.1094 87.7571 48.8029H75.9758C75.7595 45.5814 74.1828 43.2922 71.2456 41.9334C69.2867 41.038 66.8509 40.5875 63.9419 40.5875C60.7035 40.5875 58.1221 41.1691 56.1916 42.3322C54.2611 43.4952 53.2928 45.118 53.2928 47.2023C53.2928 49.1168 54.2449 50.5457 56.1511 51.4891C57.3721 52.1205 59.9697 52.8589 63.944 53.7063L74.2374 55.9235C78.7453 56.8909 82.1292 58.1888 84.3812 59.8097C87.8763 62.3297 89.6249 65.9777 89.6249 70.7482C89.6249 75.6423 87.5569 79.7094 83.4109 82.9438Z" fill="white"/>
</svg>
