<svg width="140" height="117" viewBox="0 0 140 117" fill="none" xmlns="http://www.w3.org/2000/svg">
<path d="M69.6958 3.63623C33.6108 3.63623 4.35596 28.0558 4.35596 58.1808C4.35596 88.3058 33.6108 112.725 69.6958 112.725C105.781 112.725 135.036 88.304 135.036 58.1808C135.036 28.0558 105.781 3.63623 69.6958 3.63623ZM89.1954 81.2313C84.7327 84.4168 78.4296 86.0076 70.2817 86.0076C61.9617 86.0076 55.4147 84.4386 50.6492 81.3023C45.8816 78.1623 43.4989 73.8515 43.4989 68.3625H56.1029C56.5124 70.7733 57.3161 72.5733 58.5096 73.7678C60.7007 75.9405 64.449 77.0241 69.7611 77.0241C72.9432 77.0241 75.5241 76.7405 77.5083 76.1642C81.2762 75.066 83.158 73.0278 83.158 70.0461C83.158 68.3061 82.2345 66.957 80.3919 66.0007C78.545 65.0698 75.62 64.2462 71.6168 63.5334L64.7757 62.2807C58.0501 61.0371 53.4305 59.6917 50.9171 58.2372C46.6548 55.8027 44.5269 51.9973 44.5269 46.8192C44.5269 42.0938 46.6112 38.1702 50.7756 35.0448C54.9399 31.9176 61.0622 30.3558 69.1361 30.3558C75.8791 30.3558 81.6247 31.8285 86.3901 34.7757C91.1469 37.723 93.6429 42.0011 93.8781 47.6082H81.1847C80.9517 44.4356 79.2529 42.1811 76.0882 40.8429C73.9777 39.9611 71.3533 39.5175 68.2191 39.5175C64.73 39.5175 61.9487 40.0902 59.8687 41.2356C57.7887 42.3811 56.7454 43.9792 56.7454 46.0319C56.7454 47.9173 57.7713 49.3246 59.8251 50.2537C61.1406 50.8755 63.9394 51.6027 68.2213 52.4373L79.3117 54.6209C84.1686 55.5736 87.8145 56.8517 90.2408 58.4481C94.0066 60.9299 95.8906 64.5225 95.8906 69.2206C95.8906 74.0405 93.6625 78.0459 89.1954 81.2313Z" fill="white"/>
</svg>
