<svg width="140" height="117" viewBox="0 0 140 117" fill="none" xmlns="http://www.w3.org/2000/svg">
<path d="M69.6957 3.63623C33.6107 3.63623 4.3559 28.0558 4.3559 58.1808C4.3559 88.3058 33.6107 112.725 69.6957 112.725C105.781 112.725 135.036 88.304 135.036 58.1808C135.036 28.0558 105.781 3.63623 69.6957 3.63623ZM89.1953 81.2313C84.7326 84.4168 78.4295 86.0076 70.2816 86.0076C61.9617 86.0076 55.4146 84.4386 50.6492 81.3023C45.8815 78.1623 43.4988 73.8515 43.4988 68.3625H56.1029C56.5123 70.7733 57.316 72.5733 58.5096 73.7678C60.7006 75.9405 64.449 77.0241 69.7611 77.0241C72.9431 77.0241 75.5241 76.7405 77.5082 76.1642C81.2761 75.066 83.1579 73.0278 83.1579 70.0461C83.1579 68.3061 82.2345 66.957 80.3919 66.0007C78.5449 65.0698 75.6199 64.2462 71.6167 63.5334L64.7757 62.2807C58.05 61.0371 53.4305 59.6917 50.9171 58.2372C46.6547 55.8027 44.5268 51.9973 44.5268 46.8192C44.5268 42.0938 46.6112 38.1702 50.7755 35.0448C54.9398 31.9176 61.0622 30.3558 69.136 30.3558C75.8791 30.3558 81.6246 31.8285 86.3901 34.7757C91.1468 37.723 93.6428 42.0011 93.878 47.6082H81.1847C80.9516 44.4356 79.2528 42.1811 76.0882 40.8429C73.9777 39.9611 71.3532 39.5175 68.2191 39.5175C64.7299 39.5175 61.9486 40.0902 59.8686 41.2356C57.7886 42.3811 56.7454 43.9792 56.7454 46.0319C56.7454 47.9173 57.7712 49.3246 59.8251 50.2537C61.1406 50.8755 63.9393 51.6027 68.2212 52.4373L79.3116 54.6209C84.1685 55.5736 87.8145 56.8517 90.2408 58.4481C94.0065 60.9299 95.8905 64.5225 95.8905 69.2206C95.8905 74.0405 93.6624 78.0459 89.1953 81.2313Z" fill="white"/>
</svg>
