<svg width="87" height="79" viewBox="0 0 87 79" fill="none" xmlns="http://www.w3.org/2000/svg">
<path d="M43.5 2.46875C20.9779 2.46875 2.71875 19.0476 2.71875 39.5C2.71875 59.9524 20.9779 76.5312 43.5 76.5312C66.0221 76.5312 84.2812 59.9511 84.2812 39.5C84.2812 19.0476 66.0221 2.46875 43.5 2.46875ZM55.6705 55.1494C52.8851 57.312 48.9511 58.3921 43.8657 58.3921C38.6729 58.3921 34.5866 57.3268 31.6123 55.1975C28.6366 53.0658 27.1494 50.1391 27.1494 46.4125H35.0161C35.2717 48.0493 35.7733 49.2713 36.5182 50.0823C37.8858 51.5574 40.2253 52.2931 43.5408 52.2931C45.5268 52.2931 47.1377 52.1005 48.3761 51.7092C50.7278 50.9636 51.9023 49.5799 51.9023 47.5555C51.9023 46.3742 51.3259 45.4583 50.1759 44.809C49.0231 44.177 47.1975 43.6179 44.699 43.134L40.4292 42.2835C36.2314 41.4392 33.3482 40.5258 31.7795 39.5383C29.1192 37.8854 27.7911 35.3019 27.7911 31.7864C27.7911 28.5782 29.092 25.9145 31.6911 23.7926C34.2902 21.6695 38.1114 20.6091 43.1506 20.6091C47.3593 20.6091 50.9453 21.609 53.9196 23.6099C56.8885 25.6108 58.4463 28.5153 58.5931 32.3221H50.6707C50.5253 30.1681 49.4649 28.6375 47.4898 27.729C46.1725 27.1303 44.5345 26.8291 42.5783 26.8291C40.4006 26.8291 38.6647 27.218 37.3665 27.9956C36.0683 28.7733 35.4172 29.8583 35.4172 31.2519C35.4172 32.532 36.0574 33.4874 37.3393 34.1181C38.1604 34.5403 39.9072 35.034 42.5797 35.6006L49.5016 37.0831C52.533 37.7299 54.8086 38.5977 56.323 39.6815C58.6733 41.3664 59.8492 43.8055 59.8492 46.9951C59.8492 50.2675 58.4586 52.9868 55.6705 55.1494Z" fill="white"/>
</svg>
