<svg width="136" height="117" viewBox="0 0 136 117" fill="none" xmlns="http://www.w3.org/2000/svg">
<path d="M68 3.65625C32.793 3.65625 4.25 28.2098 4.25 58.5C4.25 88.7902 32.793 113.344 68 113.344C103.207 113.344 131.75 88.7884 131.75 58.5C131.75 28.2098 103.207 3.65625 68 3.65625ZM87.0251 81.677C82.671 84.8798 76.5213 86.4795 68.5716 86.4795C60.4541 86.4795 54.0664 84.9018 49.4169 81.7483C44.7652 78.5911 42.4405 74.2566 42.4405 68.7375H54.7379C55.1374 71.1616 55.9215 72.9714 57.086 74.1725C59.2238 76.3571 62.8809 77.4467 68.0637 77.4467C71.1684 77.4467 73.6865 77.1615 75.6224 76.582C79.2986 75.4778 81.1346 73.4285 81.1346 70.4303C81.1346 68.6808 80.2336 67.3244 78.4359 66.3628C76.6339 65.4268 73.78 64.5986 69.8743 63.882L63.1996 62.6224C56.6376 61.372 52.1305 60.0192 49.6782 58.5567C45.5196 56.1088 43.4435 52.2825 43.4435 47.076C43.4435 42.3247 45.4771 38.3797 49.5401 35.2371C53.6031 32.0927 59.5765 30.5224 67.4539 30.5224C74.0329 30.5224 79.6386 32.0032 84.2881 34.9665C88.9291 37.9299 91.3644 42.2315 91.5939 47.8695H79.2094C78.982 44.6794 77.3245 42.4125 74.2369 41.067C72.1777 40.1804 69.6171 39.7343 66.5592 39.7343C63.155 39.7343 60.4414 40.3102 58.412 41.4619C56.3826 42.6136 55.3648 44.2205 55.3648 46.2845C55.3648 48.1802 56.3656 49.5952 58.3695 50.5294C59.653 51.1546 62.3836 51.8858 66.5614 52.725L77.3819 54.9205C82.1206 55.8785 85.6779 57.1636 88.0451 58.7687C91.7192 61.2641 93.5574 64.8765 93.5574 69.6004C93.5574 74.4467 91.3835 78.4741 87.0251 81.677Z" fill="white"/>
</svg>
