<svg width="42" height="42" viewBox="0 0 42 42" fill="none" xmlns="http://www.w3.org/2000/svg">
<path d="M9.1875 19.6875H35.4375C35.7856 19.6875 36.1194 19.8258 36.3656 20.0719C36.6117 20.3181 36.75 20.6519 36.75 21C36.75 21.3481 36.6117 21.6819 36.3656 21.9281C36.1194 22.1742 35.7856 22.3125 35.4375 22.3125H9.1875C8.8394 22.3125 8.50556 22.1742 8.25942 21.9281C8.01328 21.6819 7.875 21.3481 7.875 21C7.875 20.6519 8.01328 20.3181 8.25942 20.0719C8.50556 19.8258 8.8394 19.6875 9.1875 19.6875Z" fill="black"/>
<path d="M9.7309 21L20.6168 31.8833C20.8632 32.1297 21.0017 32.464 21.0017 32.8125C21.0017 33.161 20.8632 33.4953 20.6168 33.7418C20.3703 33.9882 20.0361 34.1267 19.6875 34.1267C19.339 34.1267 19.0047 33.9882 18.7583 33.7418L6.94578 21.9293C6.82355 21.8073 6.72657 21.6625 6.66041 21.503C6.59424 21.3436 6.56018 21.1726 6.56018 21C6.56018 20.8274 6.59424 20.6564 6.66041 20.497C6.72657 20.3375 6.82355 20.1927 6.94578 20.0708L18.7583 8.25826C19.0047 8.01181 19.339 7.87335 19.6875 7.87335C20.0361 7.87335 20.3703 8.01181 20.6168 8.25826C20.8632 8.50471 21.0017 8.83897 21.0017 9.18751C21.0017 9.53605 20.8632 9.87031 20.6168 10.1168L9.7309 21Z" fill="black"/>
</svg>
