<svg width="52" height="52" viewBox="0 0 52 52" fill="none" xmlns="http://www.w3.org/2000/svg">
<path d="M11.5387 24.2308H43.8464C44.2748 24.2308 44.6857 24.401 44.9887 24.7039C45.2916 25.0069 45.4618 25.4177 45.4618 25.8462C45.4618 26.2746 45.2916 26.6855 44.9887 26.9884C44.6857 27.2914 44.2748 27.4615 43.8464 27.4615H11.5387C11.1103 27.4615 10.6994 27.2914 10.3965 26.9884C10.0935 26.6855 9.92334 26.2746 9.92334 25.8462C9.92334 25.4177 10.0935 25.0069 10.3965 24.7039C10.6994 24.401 11.1103 24.2308 11.5387 24.2308Z" fill="black"/>
<path d="M12.2071 25.8462L25.6051 39.241C25.9084 39.5443 26.0788 39.9557 26.0788 40.3847C26.0788 40.8136 25.9084 41.225 25.6051 41.5283C25.3018 41.8317 24.8904 42.0021 24.4614 42.0021C24.0325 42.0021 23.6211 41.8317 23.3177 41.5283L8.77927 26.9899C8.62883 26.8398 8.50948 26.6616 8.42804 26.4653C8.34661 26.2691 8.30469 26.0587 8.30469 25.8462C8.30469 25.6337 8.34661 25.4233 8.42804 25.2271C8.50948 25.0308 8.62883 24.8526 8.77927 24.7025L23.3177 10.164C23.6211 9.86071 24.0325 9.69031 24.4614 9.69031C24.8904 9.69031 25.3018 9.86071 25.6051 10.164C25.9084 10.4674 26.0788 10.8788 26.0788 11.3077C26.0788 11.7367 25.9084 12.1481 25.6051 12.4514L12.2071 25.8462Z" fill="black"/>
</svg>
