<svg width="42" height="42" viewBox="0 0 42 42" fill="none" xmlns="http://www.w3.org/2000/svg">
<path d="M9.1875 19.6875H35.4375C35.7856 19.6875 36.1194 19.8258 36.3656 20.0719C36.6117 20.3181 36.75 20.6519 36.75 21C36.75 21.3481 36.6117 21.6819 36.3656 21.9281C36.1194 22.1742 35.7856 22.3125 35.4375 22.3125H9.1875C8.8394 22.3125 8.50556 22.1742 8.25942 21.9281C8.01328 21.6819 7.875 21.3481 7.875 21C7.875 20.6519 8.01328 20.3181 8.25942 20.0719C8.50556 19.8258 8.8394 19.6875 9.1875 19.6875Z" fill="black"/>
<path d="M9.73078 21L20.6167 31.8832C20.8631 32.1297 21.0016 32.464 21.0016 32.8125C21.0016 33.161 20.8631 33.4953 20.6167 33.7417C20.3702 33.9882 20.0359 34.1266 19.6874 34.1266C19.3389 34.1266 19.0046 33.9882 18.7582 33.7417L6.94565 21.9292C6.82343 21.8073 6.72645 21.6625 6.66028 21.503C6.59412 21.3436 6.56006 21.1726 6.56006 21C6.56006 20.8274 6.59412 20.6564 6.66028 20.497C6.72645 20.3375 6.82343 20.1927 6.94565 20.0707L18.7582 8.25824C19.0046 8.01179 19.3389 7.87334 19.6874 7.87334C20.0359 7.87334 20.3702 8.01179 20.6167 8.25824C20.8631 8.5047 21.0016 8.83896 21.0016 9.18749C21.0016 9.53603 20.8631 9.87029 20.6167 10.1167L9.73078 21Z" fill="black"/>
</svg>
