<svg width="40" height="40" viewBox="0 0 40 40" fill="none" xmlns="http://www.w3.org/2000/svg">
<path d="M19.9 32C20.6 32 21.192 31.758 21.676 31.274C22.16 30.79 22.4013 30.1987 22.4 29.5C22.4 28.8 22.1587 28.208 21.676 27.724C21.1933 27.24 20.6013 26.9987 19.9 27C19.2 27 18.6087 27.242 18.126 27.726C17.6433 28.21 17.4013 28.8013 17.4 29.5C17.4 30.2 17.642 30.792 18.126 31.276C18.61 31.76 19.2013 32.0013 19.9 32ZM18.1 24.3H21.8C21.8 23.2 21.9253 22.3333 22.176 21.7C22.4267 21.0667 23.1347 20.2 24.3 19.1C25.1667 18.2333 25.85 17.408 26.35 16.624C26.85 15.84 27.1 14.8987 27.1 13.8C27.1 11.9333 26.4167 10.5 25.05 9.5C23.6833 8.5 22.0667 8 20.2 8C18.3 8 16.758 8.5 15.574 9.5C14.39 10.5 13.5653 11.7 13.1 13.1L16.4 14.4C16.5667 13.8 16.942 13.15 17.526 12.45C18.11 11.75 19.0013 11.4 20.2 11.4C21.2667 11.4 22.0667 11.692 22.6 12.276C23.1333 12.86 23.4 13.5013 23.4 14.2C23.4 14.8667 23.2 15.492 22.8 16.076C22.4 16.66 21.9 17.2013 21.3 17.7C19.8333 19 18.9333 19.9833 18.6 20.65C18.2667 21.3167 18.1 22.5333 18.1 24.3ZM20 40C17.2333 40 14.6333 39.4747 12.2 38.424C9.76667 37.3733 7.65 35.9487 5.85 34.15C4.05 32.35 2.62533 30.2333 1.576 27.8C0.526667 25.3667 0.00133333 22.7667 0 20C0 17.2333 0.525333 14.6333 1.576 12.2C2.62667 9.76667 4.05133 7.65 5.85 5.85C7.65 4.05 9.76667 2.62533 12.2 1.576C14.6333 0.526667 17.2333 0.00133333 20 0C22.7667 0 25.3667 0.525333 27.8 1.576C30.2333 2.62667 32.35 4.05133 34.15 5.85C35.95 7.65 37.3753 9.76667 38.426 12.2C39.4767 14.6333 40.0013 17.2333 40 20C40 22.7667 39.4747 25.3667 38.424 27.8C37.3733 30.2333 35.9487 32.35 34.15 34.15C32.35 35.95 30.2333 37.3753 27.8 38.426C25.3667 39.4767 22.7667 40.0013 20 40ZM20 36C24.4667 36 28.25 34.45 31.35 31.35C34.45 28.25 36 24.4667 36 20C36 15.5333 34.45 11.75 31.35 8.65C28.25 5.55 24.4667 4 20 4C15.5333 4 11.75 5.55 8.65 8.65C5.55 11.75 4 15.5333 4 20C4 24.4667 5.55 28.25 8.65 31.35C11.75 34.45 15.5333 36 20 36Z" fill="white"/>
</svg>
