<svg width="31" height="32" viewBox="0 0 31 32" fill="none" xmlns="http://www.w3.org/2000/svg">
<path d="M23.292 10.7188H22.02V8.1748C22.02 4.66416 19.1708 1.81494 15.6602 1.81494C12.1495 1.81494 9.30029 4.66416 9.30029 8.1748V10.7188H8.02832C6.62915 10.7188 5.48438 11.8635 5.48438 13.2627V25.9824C5.48438 27.3816 6.62915 28.5264 8.02832 28.5264H23.292C24.6912 28.5264 25.8359 27.3816 25.8359 25.9824V13.2627C25.8359 11.8635 24.6912 10.7188 23.292 10.7188ZM15.6602 22.1665C14.261 22.1665 13.1162 21.0217 13.1162 19.6226C13.1162 18.2234 14.261 17.0786 15.6602 17.0786C17.0593 17.0786 18.2041 18.2234 18.2041 19.6226C18.2041 21.0217 17.0593 22.1665 15.6602 22.1665ZM19.6033 10.7188H11.717V8.1748C11.717 5.99973 13.4851 4.23169 15.6602 4.23169C17.8352 4.23169 19.6033 5.99973 19.6033 8.1748V10.7188Z" fill="black"/>
</svg>
