<svg width="170" height="186" viewBox="0 0 170 186" fill="none" xmlns="http://www.w3.org/2000/svg">
<g clip-path="url(#clip0_29_256)">
<path d="M138.67 161.889C138.67 161.889 137.101 98.1827 168.359 85.6058C168.359 85.6058 157.852 96.0048 149.718 113.817C141.821 131.096 140.661 140.529 138.67 161.889Z" fill="#7CB342"/>
<path d="M137.431 166.865C137.431 166.865 125.908 82.6923 168.346 65.6154C168.346 65.6154 151.906 77.7019 145.881 97.4759C138.525 121.649 137.391 140.514 137.431 166.865Z" fill="#7CB342"/>
<path d="M22.7466 165.986C14.1641 133.764 14.1641 67.7067 14.1641 67.7067L124.906 67.2308C124.906 67.2308 124.906 127.072 118.473 165.582L22.7466 165.986Z" fill="#6D4C41"/>
<path d="M69.5352 125.716C100.116 125.716 124.906 100.21 124.906 68.7452C124.906 37.2809 100.116 11.774 69.5352 11.774C38.9545 11.774 14.1641 37.2809 14.1641 68.7452C14.1641 100.21 38.9545 125.716 69.5352 125.716Z" fill="#6D4C41"/>
<path d="M11.5801 175.418V189.683H126.462V175.418C126.462 153.538 98.2622 142.433 69.4561 142.476C40.8213 142.519 11.5801 152.255 11.5801 175.418Z" fill="#558B2F"/>
<path d="M69.5352 133.822H57.5645V148.447C57.5645 155.067 62.4424 160.418 68.4541 160.418H70.6294C76.6411 160.418 81.519 155.053 81.519 148.447V133.822H69.5352Z" fill="#E49500"/>
<path d="M69.3901 21.8125C37.2881 21.8125 28.8901 49.0288 28.8901 87.2788C28.8901 125.514 53.7939 137.183 69.3901 137.183C84.9863 137.183 109.89 125.514 109.89 87.2788C109.89 49.0288 101.492 21.8125 69.3901 21.8125Z" fill="#FBC11B"/>
<path d="M81.4927 51.8846C77.2344 56.3702 56.0615 77.2404 26.8862 82.6779V39.8991C26.8862 39.8991 39.4766 12.5673 69.6934 12.5673C99.9102 12.5673 112.5 40.5914 112.5 40.5914V82.6923C112.5 82.6923 92.6987 74.3846 82.7583 52.1587C82.7066 52.0326 82.628 51.9219 82.5292 51.8358C82.4303 51.7498 82.3141 51.6909 82.1902 51.664C82.0663 51.6372 81.9383 51.6432 81.8169 51.6816C81.6956 51.72 81.5844 51.7896 81.4927 51.8846Z" fill="#6D4C41"/>
<path d="M56.9712 143.125L68.876 160.418L57.6436 169.288L52.436 143.688L56.9712 143.125ZM80.9258 143.067L68.9023 160.418L80.2402 169.288L85.4478 143.63L80.9258 143.067Z" fill="#AED581"/>
<path d="M81.7036 114.899H57.3667C55.9692 114.899 55.376 115.923 56.2988 117.466C57.5908 119.615 62.3765 123.755 69.5352 123.755C76.6939 123.755 81.4795 119.615 82.7715 117.466C83.6943 115.923 83.0879 114.899 81.7036 114.899ZM55.6924 89.8173C55.6924 93.9134 53.1875 97.2452 50.0762 97.2452C46.978 97.2452 44.4468 93.9279 44.4468 89.8173C44.4468 85.7067 46.9648 82.3894 50.0762 82.3894C53.1875 82.3894 55.6924 85.7067 55.6924 89.8173ZM83.3647 89.8173C83.3647 93.9134 85.8696 97.2452 88.9941 97.2452C92.0923 97.2452 94.6104 93.9279 94.6104 89.8173C94.6104 85.7067 92.0923 82.3894 88.9941 82.3894C85.8828 82.3894 83.3647 85.7067 83.3647 89.8173Z" fill="#444444"/>
<path d="M75.3359 103.577C73.2661 104.212 71.1172 104.529 69.456 104.529C67.7949 104.529 65.646 104.212 63.5762 103.577C62.6929 103.303 62.3369 104.226 62.6665 104.832C63.3257 106.101 65.9624 108.639 69.456 108.639C72.9497 108.639 75.5864 106.087 76.2456 104.832C76.5752 104.226 76.2192 103.303 75.3359 103.577Z" fill="#E49500"/>
<path d="M136.93 162.106C136.271 162.106 135.704 161.543 135.664 160.822L134.899 149.889C134.873 149.514 134.979 149.154 135.203 148.88C135.427 148.606 135.73 148.433 136.073 148.404H136.086C136.837 148.404 137.391 148.966 137.444 149.687L138.208 160.62C138.261 161.385 137.734 162.062 137.035 162.12C137.009 162.106 136.956 162.106 136.93 162.106Z" fill="#FFB300"/>
<path d="M136.165 149.111C136.481 149.111 136.758 149.385 136.785 149.731L137.549 160.663C137.576 161.038 137.325 161.356 136.982 161.385H136.93C136.613 161.385 136.336 161.111 136.31 160.764L135.545 149.832C135.519 149.457 135.77 149.139 136.112 149.111H136.165ZM136.165 147.668H136.02C134.952 147.755 134.161 148.779 134.24 149.947L135.005 160.88C135.084 161.976 135.928 162.827 136.93 162.827H137.075C138.143 162.74 138.934 161.716 138.855 160.548L138.09 149.615C138.05 149.086 137.83 148.592 137.474 148.232C137.118 147.871 136.65 147.67 136.165 147.668Z" fill="white"/>
<path d="M143.838 82C143.653 82 143.469 81.9135 143.337 81.7548C143.047 81.3942 142.388 78.0769 142.546 76.5914C142.717 74.8029 143.706 72.4808 145.011 70.8366C146.659 68.7019 149.797 66.351 152.565 66.0048H152.645C152.882 66.0048 153.119 66.1491 153.225 66.3942C153.937 67.8942 153.831 69.9856 152.908 72.6106C152.025 75.0769 150.061 77.2548 148.254 79.0721C147.318 79.9808 145.09 81.351 144.365 81.7981L144.194 81.8991C144.139 81.9424 144.076 81.9719 144.009 81.9856C143.957 82 143.904 82 143.838 82Z" fill="#FFB300"/>
<path d="M152.645 66.7259C153.396 68.2981 152.921 70.5481 152.289 72.3509C151.484 74.6154 149.639 76.7067 147.806 78.5384C146.765 79.5625 143.825 81.2932 143.825 81.2932C143.812 81.2932 143.021 78.25 143.192 76.6779C143.35 74.9615 144.313 72.7981 145.499 71.3125C147.068 69.3221 150.034 67.0577 152.645 66.7259ZM152.658 65.2836C152.605 65.2836 152.552 65.2836 152.5 65.2981C149.428 65.7019 146.211 68.2115 144.523 70.3894C143.126 72.149 142.098 74.5577 141.913 76.5336C141.755 77.9327 142.375 81.6394 142.862 82.2452C143.021 82.4437 143.227 82.5904 143.458 82.6693C143.688 82.7482 143.933 82.7561 144.168 82.6923C144.299 82.649 144.431 82.5913 144.537 82.5192L144.682 82.4327C146.725 81.1779 148.03 80.2548 148.703 79.6202C150.575 77.7452 152.605 75.4952 153.541 72.8846C154.543 70.0432 154.635 67.75 153.831 66.0625C153.594 65.5721 153.132 65.2836 152.658 65.2836Z" fill="white"/>
<path d="M135.15 136.13C134.728 136.13 131.34 134.212 130.206 133.173C128.703 131.832 127.213 129.567 126.501 127.562C125.513 124.851 125.249 120.928 126.673 118.692C126.805 118.49 127.002 118.389 127.213 118.389C127.279 118.389 127.332 118.404 127.398 118.418C129.573 119.096 131.511 121.26 132.737 122.962C134.412 125.284 135.176 128.154 135.717 130.678C135.941 131.803 135.875 133.779 135.822 135.163L135.809 135.481C135.783 135.841 135.506 136.13 135.15 136.13Z" fill="#FFB300"/>
<path d="M127.213 119.111C129.165 119.716 130.971 121.678 132.223 123.409C133.792 125.587 134.543 128.327 135.071 130.837C135.348 132.25 135.137 135.409 135.15 135.409C135.137 135.409 131.946 133.822 130.628 132.625C129.178 131.327 127.767 129.163 127.108 127.317C126.211 124.851 125.908 121.173 127.213 119.111ZM127.213 117.668C126.792 117.668 126.383 117.885 126.132 118.288C124.498 120.856 124.854 125.038 125.882 127.851C126.633 129.957 128.202 132.322 129.784 133.75C130.747 134.615 134.385 136.865 135.137 136.865C135.835 136.865 136.416 136.274 136.455 135.51V135.409L136.468 135.207C136.534 133.663 136.587 131.745 136.35 130.548C135.796 127.923 135.005 124.952 133.251 122.529C131.96 120.74 129.916 118.476 127.569 117.74C127.458 117.686 127.336 117.661 127.213 117.668Z" fill="white"/>
<path d="M138.05 136.144C137.101 136.144 135.994 131.313 135.98 130.894C135.796 127.736 136.389 125.125 137.694 123.365C139.171 121.375 141.148 120.091 142.994 119.918H143.047C143.271 119.918 143.482 120.034 143.601 120.25C144.985 122.572 144.958 126.048 144.523 128.327C144.141 130.188 143.192 132.163 142.111 133.375C141.28 134.284 139.448 135.423 138.433 136.029C138.301 136.101 138.182 136.144 138.05 136.144Z" fill="#FFB300"/>
<path d="M143.034 120.654C144.299 122.788 144.286 126.019 143.851 128.183C143.508 129.813 142.665 131.702 141.61 132.87C140.647 133.923 138.037 135.423 138.037 135.423C138.024 135.423 136.679 132.279 136.626 130.865C136.481 128.385 136.785 125.702 138.195 123.827C139.303 122.327 141.082 120.827 143.034 120.654ZM143.034 119.212H142.928C140.911 119.385 138.749 120.784 137.167 122.918C135.756 124.808 135.11 127.591 135.308 130.952C135.334 131.673 135.598 132.755 136.112 134.183C136.824 136.173 137.062 136.851 138.037 136.851C138.274 136.851 138.499 136.779 138.683 136.663C140.001 135.885 141.702 134.788 142.546 133.88C143.719 132.582 144.734 130.462 145.143 128.486C145.644 125.947 145.631 122.37 144.141 119.846C143.904 119.457 143.482 119.212 143.034 119.212Z" fill="white"/>
<path d="M135.427 148.562C135.005 148.562 131.973 146.803 131.05 145.952C129.718 144.769 128.4 142.764 127.767 141.005C126.91 138.683 126.607 135.236 127.925 133.144C128.057 132.942 128.255 132.841 128.466 132.841C128.532 132.841 128.584 132.856 128.65 132.87C130.588 133.476 132.289 135.38 133.383 136.88C134.86 138.928 135.532 141.466 136.007 143.687C136.205 144.697 136.152 146.428 136.099 147.654L136.086 147.899C136.073 148.26 135.783 148.562 135.427 148.562Z" fill="#FFB300"/>
<path d="M128.479 133.548C130.193 134.082 131.775 135.798 132.869 137.313C134.253 139.231 134.899 141.625 135.361 143.832C135.598 145.072 135.414 147.841 135.427 147.841C135.414 147.841 132.605 146.442 131.458 145.404C130.18 144.264 128.954 142.375 128.374 140.745C127.596 138.582 127.319 135.351 128.479 133.548ZM128.479 132.106C128.057 132.106 127.648 132.322 127.398 132.726C125.921 135.034 126.238 138.769 127.161 141.279C127.833 143.168 129.204 145.231 130.641 146.514C131.432 147.236 134.702 149.284 135.44 149.284C135.778 149.284 136.104 149.142 136.35 148.887C136.595 148.632 136.741 148.283 136.758 147.913V147.813L136.771 147.639C136.824 146.269 136.877 144.582 136.666 143.514C136.178 141.192 135.466 138.567 133.911 136.404C132.764 134.817 130.944 132.798 128.848 132.149C128.716 132.12 128.598 132.106 128.479 132.106Z" fill="white"/>
<path d="M138.037 148.577C137.075 148.577 136.152 144.091 136.139 143.889C135.967 141.106 136.495 138.784 137.655 137.226C138.96 135.466 140.727 134.313 142.361 134.168H142.414C142.638 134.168 142.849 134.284 142.968 134.5C144.194 136.563 144.181 139.635 143.785 141.654C143.442 143.313 142.599 145.058 141.649 146.125C140.924 146.918 139.303 147.928 138.406 148.462C138.301 148.534 138.169 148.577 138.037 148.577Z" fill="#FFB300"/>
<path d="M142.414 134.904C143.521 136.764 143.508 139.606 143.139 141.51C142.849 142.937 142.098 144.596 141.175 145.62C140.331 146.543 138.037 147.856 138.037 147.856C138.024 147.856 136.851 145.101 136.798 143.861C136.666 141.683 136.943 139.332 138.169 137.687C139.145 136.375 140.713 135.048 142.414 134.904ZM142.414 133.462H142.309C140.489 133.62 138.564 134.861 137.141 136.779C135.875 138.481 135.295 140.962 135.479 143.947C135.479 143.976 136.244 149.298 138.037 149.298C138.274 149.298 138.499 149.226 138.683 149.111C139.856 148.418 141.359 147.452 142.098 146.644C143.139 145.476 144.049 143.587 144.418 141.827C144.866 139.562 144.853 136.361 143.508 134.111C143.392 133.909 143.23 133.744 143.038 133.631C142.847 133.517 142.632 133.459 142.414 133.462Z" fill="white"/>
<path d="M133.687 121.707C133.186 121.707 130.021 119.313 129.178 118.317C127.899 116.832 126.792 114.452 126.422 112.389C125.895 109.62 126.317 105.74 128.123 103.678C128.255 103.534 128.426 103.462 128.598 103.462C128.677 103.462 128.756 103.476 128.835 103.505C130.944 104.37 132.513 106.692 133.462 108.481C134.754 110.947 135.018 113.875 135.11 116.413C135.124 117.567 134.715 119.529 134.398 120.913L134.359 121.115C134.293 121.447 134.016 121.707 133.687 121.707Z" fill="#FFB300"/>
<path d="M128.584 104.168C130.443 104.933 131.92 107.024 132.882 108.827C134.082 111.12 134.359 113.889 134.438 116.428C134.464 117.856 133.673 120.986 133.7 120.986C133.687 120.986 130.76 119.125 129.666 117.827C128.439 116.413 127.411 114.149 127.068 112.245C126.594 109.736 126.91 106.072 128.584 104.168ZM128.584 102.726C128.228 102.726 127.886 102.885 127.635 103.173C125.579 105.524 125.236 109.678 125.776 112.548C126.172 114.755 127.319 117.221 128.703 118.822C129.402 119.644 132.843 122.442 133.7 122.442C134.332 122.442 134.886 121.938 134.992 121.26L135.031 121.072C135.348 119.659 135.77 117.625 135.756 116.413C135.664 113.76 135.387 110.716 134.029 108.12C133.014 106.216 131.34 103.764 129.059 102.827C128.909 102.759 128.747 102.725 128.584 102.726Z" fill="white"/>
<path d="M136.587 121.923C136.402 121.923 136.218 121.837 136.086 121.678C135.783 121.288 135.163 117.726 135.335 116.442C135.704 113.298 136.745 110.788 138.354 109.188C139.026 108.51 141.452 106.288 144.22 106.274C144.484 106.274 144.721 106.447 144.827 106.692C145.829 109.13 145.196 112.563 144.339 114.769C143.627 116.572 142.335 118.433 141.043 119.529C140.12 120.293 138.288 121.202 136.917 121.822C136.864 121.865 136.798 121.88 136.719 121.909C136.679 121.923 136.64 121.923 136.587 121.923Z" fill="#FFB300"/>
<path d="M144.22 106.995C145.13 109.202 144.55 112.389 143.732 114.51C143.1 116.096 141.913 117.899 140.634 118.981C139.474 119.947 136.574 121.216 136.587 121.216C136.574 121.216 135.796 117.957 135.994 116.558C136.284 114.077 137.075 111.466 138.815 109.721C140.173 108.322 142.229 106.995 144.22 106.995ZM144.22 105.553C142.19 105.553 139.83 106.721 137.905 108.654C136.191 110.37 135.071 113.038 134.675 116.356C134.491 117.668 135.097 121.519 135.585 122.139C135.835 122.457 136.205 122.644 136.587 122.644C136.666 122.644 136.758 122.63 136.851 122.615C136.943 122.601 137.035 122.558 137.114 122.529C138.578 121.865 140.463 120.942 141.438 120.12C142.823 118.952 144.194 116.976 144.945 115.072C145.895 112.606 146.514 109.043 145.42 106.404C145.318 106.149 145.15 105.933 144.936 105.782C144.723 105.631 144.474 105.551 144.22 105.553Z" fill="white"/>
<path d="M134.675 107.933C134.108 107.933 131.195 105.091 130.602 104.183C129.547 102.611 128.809 100.159 128.769 98.0962C128.69 95.3414 129.718 91.5914 131.841 89.7452C131.959 89.6442 132.105 89.5865 132.25 89.5865C132.342 89.5865 132.447 89.6154 132.526 89.6587C134.53 90.6971 135.756 93.1058 136.429 94.9519C137.352 97.4904 137.141 100.389 136.811 102.899C136.64 104.024 135.915 105.928 135.374 107.255L135.295 107.471C135.203 107.731 134.952 107.933 134.675 107.933Z" fill="#FFB300"/>
<path d="M132.25 90.3077C134.003 91.2164 135.15 93.3654 135.822 95.2116C136.666 97.5481 136.495 100.274 136.165 102.784C135.954 104.183 134.662 107.197 134.675 107.212C134.662 107.212 132.025 105.135 131.129 103.764C130.127 102.264 129.455 99.9567 129.428 98.0817C129.349 95.5721 130.259 92.0241 132.25 90.3077ZM132.25 88.8654C131.959 88.8654 131.669 88.9664 131.432 89.1827C129.033 91.2596 128.031 95.2692 128.11 98.125C128.149 100.346 128.914 102.899 130.074 104.615C130.522 105.308 133.7 108.654 134.675 108.654C135.229 108.654 135.717 108.279 135.915 107.716L135.98 107.543C136.534 106.173 137.286 104.226 137.47 103.014C137.813 100.389 138.024 97.375 137.048 94.6779C136.323 92.7164 135.005 90.1346 132.803 88.9952C132.63 88.9081 132.441 88.8638 132.25 88.8654Z" fill="white"/>
<path d="M138.274 108.337C138.064 108.337 137.866 108.221 137.734 108.034C137.444 107.601 137.431 103.937 137.8 102.755C138.683 99.7115 140.12 97.3462 141.979 95.9327C143.877 94.4615 146.079 93.5817 147.846 93.5817C147.991 93.5817 148.149 93.5817 148.294 93.5962C148.571 93.625 148.808 93.8269 148.887 94.1298C149.507 96.5962 148.373 99.8125 147.107 102.005C146.105 103.692 144.523 105.409 143.047 106.375C141.874 107.125 139.487 107.976 138.512 108.293C138.512 108.293 138.485 108.308 138.472 108.308C138.407 108.325 138.341 108.335 138.274 108.337Z" fill="#FFB300"/>
<path d="M147.859 94.3029C147.991 94.3029 148.123 94.3029 148.254 94.3173C148.808 96.5385 147.714 99.6106 146.554 101.615C145.67 103.115 144.168 104.803 142.717 105.755C141.386 106.606 138.274 107.615 138.274 107.63C138.261 107.63 138.011 104.356 138.433 103C139.131 100.591 140.344 98.0818 142.361 96.5385C143.864 95.3558 145.96 94.3029 147.859 94.3029ZM147.859 92.8606C145.117 92.8606 142.572 94.5914 141.61 95.3414C139.619 96.8702 138.116 99.2933 137.18 102.553C136.864 103.577 136.679 107.659 137.207 108.466C137.369 108.716 137.599 108.902 137.865 108.998C138.13 109.094 138.417 109.095 138.683 109C139.975 108.567 142.216 107.76 143.39 107.01C144.945 105.986 146.62 104.183 147.661 102.423C149.006 100.087 150.192 96.6539 149.52 93.9568C149.449 93.6697 149.297 93.414 149.087 93.2253C148.877 93.0367 148.618 92.9243 148.347 92.9039C148.189 92.8606 148.03 92.8606 147.859 92.8606Z" fill="white"/>
<path d="M137.998 94.1298C137.378 94.1298 134.86 91 134.425 90.0913C133.607 88.4615 133.265 85.9952 133.568 83.9759C133.937 81.3221 135.572 77.7884 137.984 76.2307C138.083 76.1637 138.198 76.1282 138.314 76.1282C138.43 76.1282 138.545 76.1637 138.644 76.2307C140.516 77.4279 141.373 79.8798 141.755 81.7404C142.269 84.2788 141.583 87.0769 140.845 89.4855C140.489 90.5673 139.448 92.3413 138.683 93.5961L138.564 93.7836C138.472 93.9855 138.248 94.1298 137.998 94.1298C138.011 94.1298 138.011 94.1298 137.998 94.1298Z" fill="#FFB300"/>
<path d="M138.327 76.8509C139.936 77.875 140.74 80.0529 141.122 81.8846C141.597 84.2067 140.964 86.8461 140.226 89.2404C139.791 90.5817 137.984 93.4086 137.998 93.4086C137.984 93.4086 135.677 91.1586 135.005 89.7452C134.24 88.2019 133.95 85.9086 134.214 84.0769C134.557 81.6682 136.046 78.3221 138.327 76.8509ZM138.327 75.4086C138.09 75.4086 137.866 75.4807 137.655 75.6106C134.939 77.3702 133.304 81.1346 132.922 83.875C132.592 86.0529 132.961 88.649 133.858 90.4375C134.095 90.9423 136.864 94.8509 138.011 94.8509C138.485 94.8509 138.92 94.5769 139.145 94.1442L139.25 93.9711C140.028 92.6875 141.109 90.8557 141.478 89.7163C142.256 87.1923 142.955 84.2788 142.414 81.5673C142.005 79.5625 141.069 76.9086 138.999 75.5961C138.789 75.4663 138.551 75.4086 138.327 75.4086Z" fill="white"/>
<path d="M141.557 94.7212C141.333 94.7212 141.109 94.5914 140.99 94.3606C140.7 93.8125 141.399 90.1635 141.9 89.1539C143.297 86.2548 145.064 84.1635 147.173 82.9519C148.083 82.4183 150.469 81.1923 152.869 81.1923C153.211 81.1923 153.541 81.2212 153.857 81.2644C154.161 81.3077 154.385 81.5817 154.411 81.8991C154.635 84.3221 152.987 87.3366 151.353 89.3414C150.074 90.8846 148.215 92.399 146.593 93.2067C145.301 93.8414 142.77 94.4471 141.742 94.6779H141.728C141.676 94.7212 141.61 94.7212 141.557 94.7212Z" fill="#FFB300"/>
<path d="M152.869 81.9134C153.172 81.9134 153.475 81.9423 153.765 81.9856C153.963 84.1634 152.368 87.0336 150.878 88.8798C149.744 90.2644 147.964 91.7644 146.343 92.5577C144.866 93.2788 141.57 94 141.57 94C141.557 94 141.847 90.7981 142.493 89.5C143.587 87.2211 145.209 84.899 147.503 83.5865C149.032 82.6923 151.063 81.9134 152.869 81.9134ZM152.869 80.4711C150.324 80.4711 147.819 81.7692 146.87 82.3173C144.642 83.6009 142.77 85.7933 141.32 88.8365C140.924 89.6154 139.922 93.7836 140.437 94.7356C140.674 95.1827 141.109 95.4423 141.57 95.4423C141.663 95.4423 141.768 95.4279 141.86 95.399C143.231 95.0817 145.605 94.4904 146.883 93.8702C148.584 93.0192 150.535 91.4471 151.854 89.8317C153.581 87.6971 155.321 84.4807 155.084 81.8269C155.018 81.1779 154.569 80.6442 153.976 80.5433C153.607 80.5 153.238 80.4711 152.869 80.4711Z" fill="white"/>
<path d="M135.163 155.976C137.141 156.51 138.406 158.038 139.29 159.942C141.491 159.51 145.288 159.077 146.395 159.106C147.701 159.149 149.428 159.308 149.718 162.236C149.902 164.139 149.243 165.712 147.015 165.942C146.185 166.029 145.328 166.087 144.484 166.13L144.787 167.197C145.565 167.183 146.264 167.154 146.804 167.154C149.059 167.125 150.337 168.438 150.337 171.048C150.337 173.341 148.531 174.423 147.213 174.51C146.514 174.553 144.563 174.438 142.638 174.236L142.44 174.683L142.361 174.813C143.574 175.014 144.734 175.231 145.552 175.389C147.753 175.822 148.808 177.423 148.558 179.327C148.254 181.635 146.369 182.269 145.064 182.226C144.088 182.197 140.661 181.606 138.367 181.072L137.918 181.779C138.077 181.808 138.248 181.837 138.433 181.865C138.459 181.865 138.485 181.88 138.525 181.88L138.986 181.966C139.026 181.966 139.052 181.981 139.092 181.981C139.276 182.01 139.461 182.053 139.646 182.082H139.672C139.87 182.111 140.067 182.154 140.265 182.197C140.305 182.197 140.344 182.212 140.371 182.212L140.832 182.298C140.898 182.313 140.951 182.327 141.017 182.327C141.148 182.356 141.28 182.385 141.399 182.399L141.597 182.442C141.729 182.471 141.847 182.5 141.966 182.514L142.15 182.558C142.322 182.601 142.506 182.63 142.665 182.673C144.682 183.135 145.446 184.13 145.196 185.875C144.853 188.327 142.599 188.875 141.399 188.745C140.199 188.63 136.165 187.721 134.847 187.087L134.609 186.957L134.148 187.678C128.215 187.245 123.957 184.534 123.957 184.534C120.477 182.399 119.896 180.755 119.316 178.144C118.657 175.173 118.815 171.654 118.842 171.106C119.053 165.192 120.252 161.37 124.616 158.197C125.671 157.433 127.213 156.091 130.628 155.659C131.946 155.514 133.845 155.615 135.163 155.976Z" fill="#FBC11B"/>
<path d="M140.094 165.798C140.094 165.798 140.146 162.827 139.29 159.942L140.239 159.755C140.239 159.755 140.911 161.803 141.148 164.832C141.188 165.322 141.201 165.769 141.201 166.202L142.045 166.144L147.701 165.798C147.701 165.798 147.279 165.885 147.279 166.577C147.279 166.865 147.437 167.053 147.556 167.168C147.318 167.139 147.055 167.111 146.791 167.125L141.175 167.284C141.162 167.457 141.162 167.63 141.148 167.817C141.017 170.327 140.476 172.736 139.197 173.659C143.442 174.207 147.213 174.481 147.213 174.481C146.475 174.813 146.791 175.793 146.791 175.793C143.93 174.942 136.996 174.495 136.996 174.495C134.069 174.221 133.673 176.385 133.673 176.385C133.133 178.995 135.73 180.192 135.73 180.192C136.073 180.409 139.171 181.087 141.386 181.548L143.601 181.995L144.22 182.125C144.154 182.111 143.891 182.096 143.785 182.572C143.732 182.803 143.785 182.962 143.825 183.063C143.495 182.904 143.1 182.76 142.638 182.659C141.597 182.428 138.446 181.865 138.208 181.822L137.417 181.707C134.807 181.332 134.174 181.837 134.174 181.837C132.724 182.673 133.146 184.692 133.146 184.692C133.462 186.639 135.427 187.245 135.427 187.245C136.178 187.49 140.16 188.543 140.16 188.543L134.135 187.678C133.713 187.534 133.555 187.317 133.317 187.115C131.195 185.212 132.091 182.63 132.091 182.63C132.421 181.635 133.106 181.188 133.106 181.188C133.515 180.913 133.99 180.769 134.478 180.712C132.012 179.284 132.408 176.399 132.408 176.399C132.724 174.625 133.897 173.875 134.82 173.558C134.741 173.486 134.649 173.413 134.57 173.327C134.57 173.327 132.988 172.188 133.568 167.298C133.766 165.654 133.739 165.423 133.581 164.385C133.581 164.385 133.014 162.163 131.327 162.87C131.327 162.87 130.76 163.029 129.876 163.793C129.876 163.793 129.165 164.399 129.178 163.447C129.178 163.159 129.362 162.639 129.718 162.192C129.718 162.192 130.087 161.716 130.997 161.442C130.997 161.442 133.357 160.418 134.53 163C135.15 164.356 135.031 165.25 134.833 166.635C134.833 166.635 134.464 171.005 135.506 172.404C135.506 172.404 136.534 173.688 138.182 172.894C138.195 172.923 140.437 171.567 140.094 165.798Z" fill="#E49500"/>
<path d="M147.068 174.495H147.213C148.518 174.409 150.324 173.327 150.337 171.034C150.337 168.524 149.164 167.226 147.068 167.154L146.976 166.62L147.661 166.577C148.821 166.274 149.428 165.51 149.639 164.529C149.718 164.385 149.744 162.74 149.731 162.553C149.625 161.01 149.111 160.288 149.111 160.288C148.584 158.817 145.341 159.149 145.341 159.149L139.421 160.014C139.21 159.942 139 159.87 138.802 159.798C137.945 158.327 136.798 157.188 135.15 156.74C133.832 156.394 131.946 156.279 130.615 156.452C127.2 156.885 125.658 158.226 124.603 158.99C124.379 159.149 124.194 159.322 123.997 159.495C125.196 161.875 127.016 164.37 129.244 163.952C129.389 163.591 129.626 163.216 129.731 163.087C130.206 162.524 130.865 162.12 131.564 162.034C132.658 161.889 133.792 162.481 134.385 163.49C135.308 165.048 134.24 167.111 134.174 168.971C134.148 169.851 134.807 170.702 134.965 171.567C135.11 172.389 135.4 173.255 136.046 173.702C136.086 173.731 136.152 173.731 136.191 173.76C136.152 173.904 136.06 174.192 135.954 174.567C135.532 174.596 135.124 174.683 134.768 174.899C133.95 175.389 133.528 176.471 133.634 177.466C133.713 178.202 134.069 178.88 134.57 179.385C134.253 180.51 133.99 181.519 133.858 182.111C132.948 182.875 132.856 184.505 133.489 185.587C134.148 186.726 135.361 187.346 136.561 187.678C137.76 188.01 139 188.125 140.173 188.558C140.107 188.543 140.054 188.543 139.988 188.529C140.582 188.644 141.083 188.731 141.399 188.76C142.585 188.875 144.853 188.327 145.196 185.889C145.394 184.49 144.919 183.582 143.693 183.034C143.601 182.673 143.442 182.269 143.35 181.966C143.574 182.01 143.812 182.067 144.036 182.111C144.471 182.168 144.84 182.212 145.064 182.212C146.369 182.255 148.268 181.62 148.558 179.313C148.755 177.784 148.109 176.471 146.712 175.779C146.198 175.663 145.67 175.577 145.156 175.476C145.367 175.101 145.578 174.726 145.789 174.365L147.068 174.495Z" fill="#FBC11B"/>
<path d="M147.648 167.197C147.463 166.937 147.424 166.519 147.424 166.519H147.384C146.91 166.476 141.228 166.216 141.228 166.216C141.201 164.212 140.45 161.817 139.936 159.899C139.593 159.856 139.184 159.899 138.828 159.769C139.276 161.659 140.107 163.865 140.16 165.798C140.199 167.096 140.12 168.38 139.87 169.649C139.672 170.673 139.355 171.712 138.67 172.447C137.984 173.183 136.864 173.486 136.06 172.923C135.414 172.476 135.137 171.611 134.979 170.788C134.82 169.923 134.754 169.043 134.794 168.178C134.86 166.317 135.321 164.284 134.412 162.726C133.818 161.716 132.671 161.125 131.59 161.269C130.892 161.356 130.232 161.76 129.758 162.322C129.534 162.596 128.664 163.952 129.56 163.981C129.811 163.981 130.035 163.793 130.232 163.62C130.839 163.087 131.604 162.596 132.355 162.841C133.278 163.144 133.634 164.37 133.673 165.423C133.726 166.865 133.449 168.293 133.449 169.721C133.449 171.163 133.805 172.707 134.82 173.615C133.449 173.947 132.434 175.433 132.395 176.976C132.355 178.519 133.238 179.99 134.464 180.74C133.317 180.769 132.315 181.779 132.012 182.99C131.709 184.202 132.052 185.529 132.75 186.524C133.054 186.957 133.423 187.332 133.871 187.562C133.963 187.606 134.069 187.635 134.174 187.663L134.596 187L134.451 187.216L134.161 187.663C134.464 187.764 134.794 187.822 135.11 187.88C135.295 187.909 135.48 187.937 135.677 187.952C137.114 188.154 138.551 188.356 139.988 188.543C140.054 188.558 140.107 188.558 140.173 188.572C139 188.139 137.76 188.024 136.561 187.692C135.361 187.361 134.161 186.74 133.489 185.601C132.83 184.462 132.948 182.716 133.99 182.01C134.623 181.577 135.4 181.606 136.139 181.663C137.312 181.75 138.472 181.909 139.632 182.111C139.949 182.168 140.265 182.226 140.568 182.284L140.806 182.327C140.872 182.341 140.924 182.356 140.99 182.356C141.122 182.385 141.254 182.413 141.373 182.428L141.57 182.471C141.702 182.5 141.821 182.529 141.939 182.543L142.124 182.587C142.295 182.63 142.48 182.659 142.638 182.702C142.994 182.788 143.284 182.889 143.561 182.99C143.64 183.019 143.732 183.034 143.812 183.062C143.627 182.731 143.851 182.226 144.194 182.168L144.009 182.125L137.563 180.74C136.719 180.553 135.849 180.365 135.124 179.889C134.333 179.37 133.726 178.476 133.607 177.466C133.489 176.457 133.924 175.375 134.741 174.899C135.361 174.524 136.099 174.538 136.811 174.553C140.12 174.668 143.429 175.087 146.686 175.793C146.712 175.793 146.751 175.808 146.778 175.808C146.567 175.361 146.778 174.726 147.2 174.524C147.147 174.524 147.094 174.51 147.055 174.51C144.444 174.25 141.834 173.976 139.224 173.716C140.819 172.188 141.056 169.606 141.175 167.298C141.175 167.284 147.384 167.197 147.648 167.197Z" fill="#E49500"/>
<path d="M31.5796 68.7452C31.5796 68.7452 31.1313 137.615 69.7856 137.615M108.493 68.7452C108.493 68.7452 108.941 137.615 70.2866 137.615" stroke="#8D6E63" stroke-width="2" stroke-miterlimit="10" stroke-linecap="round" stroke-linejoin="round"/>
<path d="M70.8931 138.841C70.8931 138.841 69.6011 143.096 66.3711 144.942C63.1411 146.788 59.9375 147.048 59.2124 145.534C58.4873 144.019 60.5044 141.279 63.7344 139.433C66.9644 137.587 70.8931 138.841 70.8931 138.841Z" stroke="#8D6E63" stroke-width="2.758" stroke-miterlimit="10" stroke-linecap="round" stroke-linejoin="round"/>
<path d="M69.7856 138.409C69.7856 138.409 71.394 142.837 74.624 144.683C77.854 146.529 80.7412 146.615 81.4663 145.101C82.1914 143.587 80.1743 140.846 76.9443 139C73.7144 137.154 69.7856 138.409 69.7856 138.409Z" stroke="#8D6E63" stroke-width="2.758" stroke-miterlimit="10" stroke-linecap="round" stroke-linejoin="round"/>
<path d="M137.945 40.3173C137.945 58.1731 107.267 74.0096 69.4165 74.0096C31.5664 74.0096 0.875 58.1587 0.875 40.3173C0.875 22.476 31.5532 9.8125 69.4033 9.8125C107.253 9.8125 137.945 22.4615 137.945 40.3173Z" fill="#FFEE58"/>
<path d="M38.1846 37.6202L46.5957 7.24516C47.5713 3.72593 50.6826 1.30286 54.2158 1.30286H84.4985C88.0317 1.30286 91.1299 3.71151 92.1187 7.21632L100.635 37.6202C100.635 37.6202 100.635 46.0144 69.4033 46.0144C38.1714 46.0144 38.1846 37.6202 38.1846 37.6202Z" fill="#FDD835"/>
</g>
<defs>
<clipPath id="clip0_29_256">
<rect width="168.75" height="184.615" fill="white" transform="translate(0.875 0.769226)"/>
</clipPath>
</defs>
</svg>
