<svg width="49" height="50" viewBox="0 0 49 50" fill="none" xmlns="http://www.w3.org/2000/svg">
<g clip-path="url(#clip0_37_49)">
<path d="M15.1513 37.2721C15.1513 37.2721 12.121 37.2721 12.121 34.1661C12.121 31.0601 15.1513 21.7421 30.3025 21.7421C45.4538 21.7421 48.4841 31.0601 48.4841 34.1661C48.4841 37.2721 45.4538 37.2721 45.4538 37.2721H15.1513ZM30.3025 18.6361C32.7135 18.6361 35.0258 17.6543 36.7307 15.9069C38.4355 14.1594 39.3933 11.7893 39.3933 9.31803C39.3933 6.84673 38.4355 4.47666 36.7307 2.72919C35.0258 0.981718 32.7135 0 30.3025 0C27.8915 0 25.5792 0.981718 23.8744 2.72919C22.1695 4.47666 21.2118 6.84673 21.2118 9.31803C21.2118 11.7893 22.1695 14.1594 23.8744 15.9069C25.5792 17.6543 27.8915 18.6361 30.3025 18.6361Z" fill="#FDFDFD"/>
</g>
<defs>
<clipPath id="clip0_37_49">
<rect width="48.4841" height="49.6962" fill="white"/>
</clipPath>
</defs>
</svg>
