<svg width="28" height="38" viewBox="0 0 28 38" fill="none" xmlns="http://www.w3.org/2000/svg">
<g clip-path="url(#clip0_110_51)">
<path d="M21.9507 0.0488281H5.28429C4.84226 0.0488281 4.41835 0.296253 4.10579 0.736672C3.79324 1.17709 3.61765 1.77443 3.61765 2.39728V25.8817C3.61765 26.5046 3.79324 27.1019 4.10579 27.5423C4.41835 27.9828 4.84226 28.2302 5.28429 28.2302H21.9507C22.3927 28.2302 22.8166 27.9828 23.1292 27.5423C23.4417 27.1019 23.6173 26.5046 23.6173 25.8817V2.39728C23.6173 1.77443 23.4417 1.17709 23.1292 0.736672C22.8166 0.296253 22.3927 0.0488281 21.9507 0.0488281ZM19.4507 15.3137H14.4508V22.3591C14.4508 22.6705 14.363 22.9692 14.2067 23.1894C14.0505 23.4096 13.8385 23.5333 13.6175 23.5333C13.3965 23.5333 13.1845 23.4096 13.0282 23.1894C12.872 22.9692 12.7842 22.6705 12.7842 22.3591V15.3137H7.78424C7.56323 15.3137 7.35128 15.19 7.195 14.9698C7.03872 14.7496 6.95092 14.4509 6.95092 14.1395C6.95092 13.8281 7.03872 13.5294 7.195 13.3092C7.35128 13.089 7.56323 12.9653 7.78424 12.9653H12.7842V5.91995C12.7842 5.60852 12.872 5.30985 13.0282 5.08964C13.1845 4.86944 13.3965 4.74572 13.6175 4.74572C13.8385 4.74572 14.0505 4.86944 14.2067 5.08964C14.363 5.30985 14.4508 5.60852 14.4508 5.91995V12.9653H19.4507C19.6717 12.9653 19.8837 13.089 20.04 13.3092C20.1962 13.5294 20.284 13.8281 20.284 14.1395C20.284 14.4509 20.1962 14.7496 20.04 14.9698C19.8837 15.19 19.6717 15.3137 19.4507 15.3137Z" fill="black"/>
</g>
<defs>
<clipPath id="clip0_110_51">
<rect width="26.6662" height="37.5751" fill="white" transform="translate(0.443237 0.0483398)"/>
</clipPath>
</defs>
</svg>
