<svg width="45" height="42" viewBox="0 0 45 42" fill="none" xmlns="http://www.w3.org/2000/svg">
<path d="M36.2947 0H8.16968C7.42376 0 6.70839 0.276562 6.18094 0.768845C5.65349 1.26113 5.35718 1.92881 5.35718 2.625V28.875C5.35718 29.5712 5.65349 30.2389 6.18094 30.7312C6.70839 31.2234 7.42376 31.5 8.16968 31.5H36.2947C37.0406 31.5 37.756 31.2234 38.2834 30.7312C38.8109 30.2389 39.1072 29.5712 39.1072 28.875V2.625C39.1072 1.92881 38.8109 1.26113 38.2834 0.768845C37.756 0.276562 37.0406 0 36.2947 0ZM32.0759 17.0625H23.6384V24.9375C23.6384 25.2856 23.4903 25.6194 23.2265 25.8656C22.9628 26.1117 22.6051 26.25 22.2322 26.25C21.8592 26.25 21.5015 26.1117 21.2378 25.8656C20.9741 25.6194 20.8259 25.2856 20.8259 24.9375V17.0625H12.3884C12.0155 17.0625 11.6578 16.9242 11.3941 16.6781C11.1303 16.4319 10.9822 16.0981 10.9822 15.75C10.9822 15.4019 11.1303 15.0681 11.3941 14.8219C11.6578 14.5758 12.0155 14.4375 12.3884 14.4375H20.8259V6.5625C20.8259 6.2144 20.9741 5.88056 21.2378 5.63442C21.5015 5.38828 21.8592 5.25 22.2322 5.25C22.6051 5.25 22.9628 5.38828 23.2265 5.63442C23.4903 5.88056 23.6384 6.2144 23.6384 6.5625V14.4375H32.0759C32.4489 14.4375 32.8066 14.5758 33.0703 14.8219C33.334 15.0681 33.4822 15.4019 33.4822 15.75C33.4822 16.0981 33.334 16.4319 33.0703 16.6781C32.8066 16.9242 32.4489 17.0625 32.0759 17.0625Z" fill="black"/>
</svg>
