<svg width="28" height="39" viewBox="0 0 28 39" fill="none" xmlns="http://www.w3.org/2000/svg">
<g clip-path="url(#clip0_110_49)">
<path d="M22.1505 0.684326H5.48408C5.04206 0.684326 4.61815 0.931751 4.30559 1.37217C3.99304 1.81259 3.81744 2.40993 3.81744 3.03277V26.5172C3.81744 27.1401 3.99304 27.7374 4.30559 28.1778C4.61815 28.6183 5.04206 28.8657 5.48408 28.8657H22.1505C22.5925 28.8657 23.0164 28.6183 23.329 28.1778C23.6415 27.7374 23.8171 27.1401 23.8171 26.5172V3.03277C23.8171 2.40993 23.6415 1.81259 23.329 1.37217C23.0164 0.931751 22.5925 0.684326 22.1505 0.684326ZM19.6505 15.9492H14.6506V22.9946C14.6506 23.306 14.5628 23.6047 14.4065 23.8249C14.2503 24.0451 14.0383 24.1688 13.8173 24.1688C13.5963 24.1688 13.3843 24.0451 13.228 23.8249C13.0718 23.6047 12.984 23.306 12.984 22.9946V15.9492H7.98404C7.76303 15.9492 7.55108 15.8255 7.3948 15.6053C7.23852 15.3851 7.15072 15.0864 7.15072 14.775C7.15072 14.4636 7.23852 14.1649 7.3948 13.9447C7.55108 13.7245 7.76303 13.6008 7.98404 13.6008H12.984V6.55544C12.984 6.24402 13.0718 5.94535 13.228 5.72514C13.3843 5.50493 13.5963 5.38122 13.8173 5.38122C14.0383 5.38122 14.2503 5.50493 14.4065 5.72514C14.5628 5.94535 14.6506 6.24402 14.6506 6.55544V13.6008H19.6505C19.8715 13.6008 20.0835 13.7245 20.2398 13.9447C20.396 14.1649 20.4838 14.4636 20.4838 14.775C20.4838 15.0864 20.396 15.3851 20.2398 15.6053C20.0835 15.8255 19.8715 15.9492 19.6505 15.9492Z" fill="black"/>
</g>
<defs>
<clipPath id="clip0_110_49">
<rect width="26.6662" height="37.5751" fill="white" transform="translate(0.642822 0.684082)"/>
</clipPath>
</defs>
</svg>
