<svg width="28" height="38" viewBox="0 0 28 38" fill="none" xmlns="http://www.w3.org/2000/svg">
<g clip-path="url(#clip0_110_50)">
<path d="M21.9748 0.260498H5.30839C4.86637 0.260498 4.44246 0.507923 4.1299 0.948342C3.81735 1.38876 3.64175 1.9861 3.64175 2.60895V26.0934C3.64175 26.7163 3.81735 27.3136 4.1299 27.754C4.44246 28.1944 4.86637 28.4419 5.30839 28.4419H21.9748C22.4168 28.4419 22.8407 28.1944 23.1533 27.754C23.4658 27.3136 23.6414 26.7163 23.6414 26.0934V2.60895C23.6414 1.9861 23.4658 1.38876 23.1533 0.948342C22.8407 0.507923 22.4168 0.260498 21.9748 0.260498ZM19.4748 15.5254H14.4749V22.5707C14.4749 22.8822 14.3871 23.1808 14.2308 23.401C14.0746 23.6213 13.8626 23.745 13.6416 23.745C13.4206 23.745 13.2086 23.6213 13.0523 23.401C12.8961 23.1808 12.8083 22.8822 12.8083 22.5707V15.5254H7.80835C7.58734 15.5254 7.37539 15.4017 7.21911 15.1815C7.06283 14.9613 6.97503 14.6626 6.97503 14.3512C6.97503 14.0398 7.06283 13.7411 7.21911 13.5209C7.37539 13.3007 7.58734 13.177 7.80835 13.177H12.8083V6.13162C12.8083 5.82019 12.8961 5.52152 13.0523 5.30131C13.2086 5.0811 13.4206 4.95739 13.6416 4.95739C13.8626 4.95739 14.0746 5.0811 14.2308 5.30131C14.3871 5.52152 14.4749 5.82019 14.4749 6.13162V13.177H19.4748C19.6958 13.177 19.9078 13.3007 20.0641 13.5209C20.2204 13.7411 20.3082 14.0398 20.3082 14.3512C20.3082 14.6626 20.2204 14.9613 20.0641 15.1815C19.9078 15.4017 19.6958 15.5254 19.4748 15.5254Z" fill="black"/>
</g>
<defs>
<clipPath id="clip0_110_50">
<rect width="26.6662" height="37.5751" fill="white" transform="translate(0.467285 0.260498)"/>
</clipPath>
</defs>
</svg>
