<svg width="158" height="173" viewBox="0 0 158 173" fill="none" xmlns="http://www.w3.org/2000/svg">
<g clip-path="url(#clip0_29_10)">
<path d="M138.775 1.753C131.324 -0.884263 113.794 -0.166314 109.41 6.07027C98.0131 6.30958 84.6475 17.5766 82.8931 32.4429C81.1562 47.1561 85.0237 53.9862 86.3975 65.0474C87.955 77.578 94.395 81.5889 99.5443 83.2689C106.951 93.9759 114.826 93.5164 128.052 93.5164C141.365 93.5164 151.056 88.4573 157.496 79.191V13.872C152.797 8.62138 146.506 4.48599 138.775 1.753Z" fill="#FFAC33"/>
<path d="M113.969 85.4373H136.102V133.301H113.969V85.4373Z" fill="#FFDC5D"/>
<path d="M154.21 43.8776C151.712 40.0916 148.514 37.0475 141.501 35.9658C144.13 37.282 146.65 41.8386 146.978 44.3562C147.306 46.8738 147.634 48.9128 145.552 46.3952C137.213 36.3104 128.131 40.2831 119.131 34.1231C112.844 29.8202 110.928 25.0626 110.928 25.0626C110.928 25.0626 110.163 31.414 100.629 37.8899C97.8644 39.7662 94.57 43.9446 92.7413 50.1142C91.4244 54.5511 91.8356 58.5046 91.8356 65.2629C91.8356 70.7432 93.0169 75.9603 95.0644 80.6701C100.393 92.9135 111.79 101.586 125.033 101.586C136.351 101.586 146.335 95.1966 152.329 85.7101C154.816 81.7891 156.572 77.3699 157.496 72.7056V52.8998C156.866 48.9272 155.811 46.3043 154.21 43.8776Z" fill="#FFDC5D"/>
<path d="M139.79 85.4372H110.276C110.276 85.4372 113.964 93.507 125.033 93.507C136.102 93.507 139.79 85.4372 139.79 85.4372ZM128.726 75.3525H121.349C120.86 75.3525 120.39 75.1397 120.044 74.7609C119.698 74.3821 119.503 73.8683 119.503 73.3326C119.503 72.7969 119.698 72.2832 120.044 71.9044C120.39 71.5256 120.86 71.3128 121.349 71.3128H128.726C129.215 71.3128 129.685 71.5256 130.031 71.9044C130.377 72.2832 130.572 72.7969 130.572 73.3326C130.572 73.8683 130.377 74.3821 130.031 74.7609C129.685 75.1397 129.215 75.3525 128.726 75.3525Z" fill="#C1694F"/>
<path d="M110.281 61.228C109.302 61.228 108.364 60.8029 107.673 60.0462C106.981 59.2896 106.592 58.2633 106.592 57.1932V53.1583C106.592 52.0882 106.981 51.0619 107.673 50.3052C108.364 49.5485 109.302 49.1234 110.281 49.1234C111.259 49.1234 112.197 49.5485 112.889 50.3052C113.58 51.0619 113.969 52.0882 113.969 53.1583V57.1932C113.969 58.2633 113.58 59.2896 112.889 60.0462C112.197 60.8029 111.259 61.228 110.281 61.228ZM139.79 61.228C138.812 61.228 137.874 60.8029 137.182 60.0462C136.49 59.2896 136.102 58.2633 136.102 57.1932V53.1583C136.102 52.0882 136.49 51.0619 137.182 50.3052C137.874 49.5485 138.812 49.1234 139.79 49.1234C140.768 49.1234 141.706 49.5485 142.398 50.3052C143.09 51.0619 143.478 52.0882 143.478 53.1583V57.1932C143.479 57.7232 143.384 58.2482 143.199 58.738C143.013 59.2278 142.742 59.6728 142.399 60.0476C142.057 60.4224 141.65 60.7196 141.202 60.9222C140.754 61.1247 140.274 61.2287 139.79 61.228Z" fill="#662113"/>
<path d="M91.875 105.607H113.75C113.75 105.607 114.616 128.452 124.565 128.452C134.514 128.452 135.992 105.607 135.992 105.607H157.5V172.615H78.75V119.837C78.75 110.393 83.125 105.607 91.875 105.607Z" fill="#FA743E"/>
<path d="M91.8137 124.752H96.3112V172.615H91.8137V124.752Z" fill="#DD551F"/>
<path d="M36.1813 93.5118C62.0025 93.5118 74.3006 74.6106 75.39 42.5087C76.0463 23.0906 65.6338 8.38221 46.9044 1.75315C39.4494 -0.884113 21.9188 -0.166165 17.535 6.06563C11.5763 6.19007 5.0925 9.34905 0 14.4465V78.4636C2.3975 81.0673 5.18438 82.4554 7.67375 83.2643C15.085 93.9713 22.96 93.5118 36.1813 93.5118Z" fill="#FFAC33"/>
<path d="M21.4244 85.4373H43.5575V133.301H21.4244V85.4373Z" fill="#FFDC5D"/>
<path d="M61.6656 43.8776C59.1675 40.0916 55.9694 37.0475 48.9562 35.9658C51.5856 37.282 54.1056 41.8386 54.4338 44.3562C54.7619 46.8738 55.09 48.9128 53.0075 46.3952C44.6688 36.3104 35.5863 40.283 26.5869 34.123C20.3044 29.8201 18.3881 25.0577 18.3881 25.0577C18.3881 25.0577 17.6225 31.4092 8.08937 37.8851C5.32437 39.7613 2.03 43.9398 0.20125 50.1094C0.105 50.43 0.07875 50.7412 0 51.0571V72.6242C0.5425 75.4338 1.41313 78.1189 2.52438 80.6653C7.85313 92.9087 19.25 101.582 32.4931 101.582C43.8112 101.582 53.795 95.1918 59.7888 85.7053C63.6108 79.7065 65.6697 72.5751 65.6906 65.2629C65.6906 52.9859 64.5181 48.1948 61.6656 43.8776Z" fill="#FFDC5D"/>
<path d="M47.2456 85.4372H17.7319C17.7319 85.4372 21.42 93.507 32.4887 93.507C43.5575 93.507 47.2456 85.4372 47.2456 85.4372ZM36.1812 75.3525H28.805C28.3153 75.3525 27.8457 75.1397 27.4995 74.7609C27.1533 74.3821 26.9587 73.8683 26.9587 73.3326C26.9587 72.7969 27.1533 72.2832 27.4995 71.9044C27.8457 71.5256 28.3153 71.3128 28.805 71.3128H36.1812C36.6709 71.3128 37.1405 71.5256 37.4867 71.9044C37.833 72.2832 38.0275 72.7969 38.0275 73.3326C38.0275 73.8683 37.833 74.3821 37.4867 74.7609C37.1405 75.1397 36.6709 75.3525 36.1812 75.3525Z" fill="#C1694F"/>
<path d="M17.7362 61.228C16.7581 61.228 15.82 60.8029 15.1283 60.0462C14.4367 59.2896 14.0481 58.2633 14.0481 57.1932V53.1583C14.0481 52.0882 14.4367 51.0619 15.1283 50.3052C15.82 49.5485 16.7581 49.1234 17.7362 49.1234C18.7144 49.1234 19.6525 49.5485 20.3441 50.3052C21.0358 51.0619 21.4243 52.0882 21.4243 53.1583V57.1932C21.4243 58.2633 21.0358 59.2896 20.3441 60.0462C19.6525 60.8029 18.7144 61.228 17.7362 61.228ZM47.2456 61.228C46.2674 61.228 45.3294 60.8029 44.6377 60.0462C43.946 59.2896 43.5575 58.2633 43.5575 57.1932V53.1583C43.5575 52.0882 43.946 51.0619 44.6377 50.3052C45.3294 49.5485 46.2674 49.1234 47.2456 49.1234C48.2237 49.1234 49.1618 49.5485 49.8535 50.3052C50.5452 51.0619 50.9337 52.0882 50.9337 53.1583V57.1932C50.9343 57.7232 50.8393 58.2482 50.6541 58.738C50.469 59.2278 50.1974 59.6728 49.8548 60.0476C49.5122 60.4224 49.1054 60.7196 48.6577 60.9222C48.2099 61.1247 47.7301 61.2287 47.2456 61.228Z" fill="#662113"/>
<path d="M65.625 105.607H43.75C43.75 105.607 42.8837 128.452 32.935 128.452C22.9862 128.452 21.4244 105.607 21.4244 105.607H0V172.615H78.75V119.837C78.75 110.393 74.375 105.607 65.625 105.607Z" fill="#99AAB5"/>
<path d="M61.1887 124.752H65.6862V172.615H61.1887V124.752Z" fill="#66757F"/>
<path d="M91.6956 72.3562C85.2906 70.0875 70.2187 70.7049 66.4475 76.0656C56.6519 76.2714 45.1587 85.959 43.6494 98.7384C42.1575 111.389 45.4825 117.262 46.6637 126.772C48.0025 137.546 53.5412 140.992 57.9687 142.438C64.3387 151.642 71.1069 151.249 82.4775 151.249C104.676 151.249 115.251 135 116.187 107.397C116.751 90.6974 107.8 78.0567 91.6956 72.3562Z" fill="#FFAC33"/>
<path d="M70.2319 144.304H88.3794V172.615H70.2319V144.304Z" fill="#FFDC5D"/>
<path d="M104.392 108.574C102.244 105.32 99.4918 102.702 93.4631 101.773C95.725 102.907 97.8906 106.823 98.175 108.986C98.4593 111.149 98.7393 112.901 96.95 110.738C89.7793 102.07 81.97 105.482 74.235 100.184C68.8318 96.4841 67.1825 92.3918 67.1825 92.3918C67.1825 92.3918 66.5218 97.853 58.3275 103.419C55.9518 105.032 53.1168 108.627 51.5462 113.93C50.4175 117.745 50.7675 121.143 50.7675 126.954C50.7675 143.917 63.5468 158.18 79.31 158.18C95.0731 158.18 107.852 143.792 107.852 126.954C107.848 116.405 106.837 112.284 104.392 108.574Z" fill="#FFDC5D"/>
<path d="M91.9931 144.304H66.6181C66.6181 144.304 69.79 151.244 79.3056 151.244C88.8212 151.244 91.9931 144.304 91.9931 144.304ZM82.4775 137.369H76.1337C75.7137 137.369 75.3109 137.186 75.0138 136.861C74.7168 136.536 74.55 136.096 74.55 135.636C74.55 135.177 74.7168 134.736 75.0138 134.411C75.3109 134.086 75.7137 133.904 76.1337 133.904H82.4775C82.8975 133.904 83.3003 134.086 83.5974 134.411C83.8944 134.736 84.0612 135.177 84.0612 135.636C84.0612 136.096 83.8944 136.536 83.5974 136.861C83.3003 137.186 82.8975 137.369 82.4775 137.369Z" fill="#C1694F"/>
<path d="M66.0231 128.409C65.5387 128.41 65.0588 128.306 64.6111 128.103C64.1634 127.9 63.7566 127.603 63.414 127.228C63.0714 126.854 62.7997 126.409 62.6146 125.919C62.4294 125.429 62.3344 124.904 62.335 124.374V120.339C62.335 119.269 62.7236 118.243 63.4153 117.486C64.1069 116.729 65.045 116.304 66.0231 116.304C67.0013 116.304 67.9394 116.729 68.631 117.486C69.3227 118.243 69.7113 119.269 69.7113 120.339V124.374C69.7118 124.904 69.6168 125.429 69.4317 125.919C69.2466 126.409 68.9749 126.854 68.6323 127.228C68.2897 127.603 67.8829 127.9 67.4352 128.103C66.9875 128.306 66.5076 128.41 66.0231 128.409ZM92.2731 128.409C91.7887 128.41 91.3088 128.306 90.8611 128.103C90.4134 127.9 90.0066 127.603 89.664 127.228C89.3214 126.854 89.0497 126.409 88.8646 125.919C88.6794 125.429 88.5844 124.904 88.585 124.374V120.339C88.585 119.269 88.9736 118.243 89.6652 117.486C90.3569 116.729 91.295 116.304 92.2731 116.304C93.2513 116.304 94.1894 116.729 94.881 117.486C95.5727 118.243 95.9613 119.269 95.9613 120.339V124.374C95.9618 124.904 95.8668 125.429 95.6817 125.919C95.4966 126.409 95.2249 126.854 94.8823 127.228C94.5397 127.603 94.1329 127.9 93.6852 128.103C93.2375 128.306 92.7576 128.41 92.2731 128.409Z" fill="#662113"/>
<path d="M101.023 158.256H88.3794C88.3794 158.256 85.295 172.615 79.3056 172.615C73.3206 172.615 70.2318 158.256 70.2318 158.256H61.6481C60.0381 158.256 58.5025 158.41 57.0325 158.678C48.5406 160.238 42.5906 166.025 40.5869 172.615H117.727C115.461 164.948 108.281 158.256 101.023 158.256Z" fill="#5C913B"/>
</g>
<defs>
<clipPath id="clip0_29_10">
<rect width="157.5" height="172.308" fill="white" transform="translate(0 0.307678)"/>
</clipPath>
</defs>
</svg>
