<svg width="164" height="182" viewBox="0 0 164 182" fill="none" xmlns="http://www.w3.org/2000/svg">
<g clip-path="url(#clip0_29_111)">
<path d="M136.312 131.003C136.312 136.314 134.403 141.407 131.004 145.162C127.605 148.917 122.995 151.026 118.188 151.026H18.5C13.693 151.026 9.08279 148.917 5.68369 145.162C2.28459 141.407 0.375 136.314 0.375 131.003V20.8785C0.375 15.5681 2.28459 10.4753 5.68369 6.72029C9.08279 2.9653 13.693 0.855774 18.5 0.855774L118.188 0.855774C122.995 0.855774 127.605 2.9653 131.004 6.72029C134.403 10.4753 136.312 15.5681 136.312 20.8785V131.003Z" fill="#CCD6DC"/>
<path d="M127.25 131.003C127.25 133.659 126.295 136.205 124.596 138.082C122.896 139.96 120.591 141.015 118.188 141.015H18.5C16.0965 141.015 13.7914 139.96 12.0918 138.082C10.3923 136.205 9.4375 133.659 9.4375 131.003V20.8785C9.4375 18.2233 10.3923 15.6769 12.0918 13.7994C13.7914 11.9219 16.0965 10.8671 18.5 10.8671H118.188C120.591 10.8671 122.896 11.9219 124.596 13.7994C126.295 15.6769 127.25 18.2233 127.25 20.8785V131.003Z" fill="#F5F8FA"/>
<path d="M27.5625 131.003C26.3607 131.003 25.2082 130.476 24.3584 129.537C23.5086 128.598 23.0312 127.325 23.0312 125.998V65.9296C23.0312 64.602 23.5086 63.3288 24.3584 62.39C25.2082 61.4513 26.3607 60.9239 27.5625 60.9239C28.7643 60.9239 29.9168 61.4513 30.7666 62.39C31.6164 63.3288 32.0938 64.602 32.0938 65.9296V125.998C32.0938 127.325 31.6164 128.598 30.7666 129.537C29.9168 130.476 28.7643 131.003 27.5625 131.003Z" fill="#50A5E6"/>
<path d="M45.6875 131.003C44.4857 131.003 43.3332 130.476 42.4834 129.537C41.6336 128.598 41.1562 127.325 41.1562 125.998V40.9012C41.1562 39.5736 41.6336 38.3004 42.4834 37.3616C43.3332 36.4229 44.4857 35.8955 45.6875 35.8955C46.8893 35.8955 48.0418 36.4229 48.8916 37.3616C49.7414 38.3004 50.2188 39.5736 50.2188 40.9012V125.998C50.2188 127.325 49.7414 128.598 48.8916 129.537C48.0418 130.476 46.8893 131.003 45.6875 131.003Z" fill="#77B255"/>
<path d="M63.8125 131.003C62.6107 131.003 61.4582 130.476 60.6084 129.537C59.7586 128.598 59.2812 127.325 59.2812 125.998V90.9579C59.2812 89.6304 59.7586 88.3571 60.6084 87.4184C61.4582 86.4796 62.6107 85.9523 63.8125 85.9523C65.0143 85.9523 66.1668 86.4796 67.0166 87.4184C67.8664 88.3571 68.3438 89.6304 68.3438 90.9579V125.998C68.3438 127.325 67.8664 128.598 67.0166 129.537C66.1668 130.476 65.0143 131.003 63.8125 131.003Z" fill="#DD2F45"/>
<path d="M163.5 181.06V171.049C163.5 154.46 151.334 141.015 136.312 141.015H63.8125C56.6019 141.015 49.6867 144.179 44.588 149.811C39.4894 155.444 36.625 163.083 36.625 171.049V181.06H163.5Z" fill="#226798"/>
<path d="M75.8973 181.06H91.9063L77.4062 141.015H68.3438L63.8125 171.049L77.4062 176.054L75.8973 181.06ZM124.228 181.06H108.219L122.719 141.015H131.781L136.312 171.049L122.719 176.054L124.228 181.06Z" fill="#3A87C2"/>
<path d="M80.3062 141.52C88.2087 147.867 93.2519 151.692 100.108 151.692C106.959 151.692 111.916 147.857 119.819 141.52V122.444H80.3062V141.52Z" fill="#F6DDCD"/>
<path d="M80.2699 130.868C85.7799 137.746 92.613 139.608 100.044 139.608C107.471 139.608 114.304 137.741 119.814 130.868V113.393H80.2654L80.2699 130.868Z" fill="#ECC0AC"/>
<path d="M70.3603 80.6262C70.3603 87.8744 67.0343 93.7511 62.9336 93.7511C58.8328 93.7511 55.5068 87.8744 55.5068 80.6262C55.5068 73.378 58.8328 67.4963 62.9336 67.4963C67.0343 67.4963 70.3603 73.373 70.3603 80.6262ZM144.618 80.6262C144.618 87.8744 141.297 93.7511 137.192 93.7511C133.091 93.7511 129.765 87.8744 129.765 80.6262C129.765 73.378 133.086 67.4963 137.192 67.4963C141.297 67.4963 144.618 73.373 144.618 80.6262Z" fill="#F6DDCD"/>
<path d="M61.4473 85.752C61.4473 57.7753 78.7385 35.0896 100.067 35.0896C121.396 35.0896 138.687 57.7753 138.687 85.752C138.687 113.729 121.396 136.414 100.067 136.414C78.7385 136.409 61.4473 113.729 61.4473 85.752Z" fill="#F6DDCD"/>
<path d="M100.063 120.001C87.5835 120.001 83.7501 116.472 83.1111 115.756C82.8285 115.46 82.6015 115.105 82.443 114.711C82.2846 114.318 82.1979 113.894 82.1878 113.463C82.1674 112.594 82.4604 111.751 83.0024 111.121C83.5444 110.49 84.2909 110.123 85.0778 110.101C85.8647 110.078 86.6275 110.402 87.1983 111.001C87.434 111.186 90.4654 113.438 100.063 113.438C110.031 113.438 112.913 111.011 112.94 110.986C113.214 110.686 113.539 110.449 113.897 110.291C114.255 110.132 114.638 110.053 115.023 110.06C115.409 110.067 115.789 110.16 116.142 110.331C116.495 110.503 116.813 110.751 117.077 111.061C117.626 111.696 117.927 112.544 117.915 113.423C117.904 114.301 117.58 115.139 117.014 115.756C116.375 116.472 112.542 120.001 100.063 120.001ZM103.461 99.7179H96.6641C94.7927 99.7179 93.2657 98.031 93.2657 95.9636C93.2657 93.8963 94.7927 92.2094 96.6641 92.2094H103.461C105.332 92.2094 106.859 93.8963 106.859 95.9636C106.859 98.031 105.332 99.7179 103.461 99.7179Z" fill="#C1694F"/>
<path d="M118.188 85.9523C115.695 85.9523 113.656 83.6997 113.656 80.9466V75.9409C113.656 73.1878 115.695 70.9352 118.188 70.9352C120.68 70.9352 122.719 73.1878 122.719 75.9409V80.9466C122.719 83.6997 120.68 85.9523 118.188 85.9523ZM81.9375 85.9523C79.4453 85.9523 77.4062 83.6997 77.4062 80.9466V75.9409C77.4062 73.1878 79.4453 70.9352 81.9375 70.9352C84.4297 70.9352 86.4688 73.1878 86.4688 75.9409V80.9466C86.4688 83.6997 84.4297 85.9523 81.9375 85.9523Z" fill="#662213"/>
<path d="M100.063 18.2755C125.655 18.2755 141.65 39.1392 141.65 56.5239C141.65 73.9086 138.451 80.8665 135.252 73.9086L128.854 60.0028C128.854 60.0028 109.664 60.0028 103.266 53.0449C103.266 53.0449 112.863 73.9086 93.6689 53.0449C93.6689 53.0449 96.868 66.9557 77.6736 49.571C77.6736 49.571 68.0764 56.5239 64.8774 73.9086C63.9892 78.7341 58.4792 73.9086 58.4792 56.5239C58.4747 39.1392 71.271 18.2755 100.063 18.2755Z" fill="#292F33"/>
<path d="M93.0889 181.06H109.125L118.188 161.037L100.108 151.692L81.9375 161.037L91 181.06H93.0889Z" fill="#CCD6DC"/>
<path d="M100.203 170.833C103.574 170.833 105.849 175.964 107.281 181.06H109.768C107.983 174.743 105.958 168.856 105.958 168.856C105.958 168.856 107.657 165.728 108.364 164.321C109.197 162.669 110.416 156.462 110.416 156.462L100.502 151.642C100.502 151.612 99.777 151.672 99.777 151.672L98.9433 151.887L98.1639 152.197C97.1806 152.548 98.5898 152.237 98.5898 152.267L89.6497 156.462C89.6497 156.462 90.9501 162.669 91.7748 164.321C92.4817 165.728 94.1719 168.856 94.1719 168.856C94.1719 168.856 92.2234 174.393 90.5604 181.06H93.0934C94.5389 175.964 96.8362 170.833 100.203 170.833Z" fill="#9F1D22"/>
<path d="M100.203 170.833C96.8317 170.833 94.5389 175.964 93.0889 181.06H107.281C105.849 175.964 103.574 170.833 100.203 170.833ZM100.081 155.096C101.852 154.981 107.072 158.955 106.524 161.353C104.435 170.493 102.682 168.316 100.221 168.316C97.4525 168.316 95.8575 170.683 93.9181 161.748C93.5057 159.806 97.5295 155.251 100.081 155.096Z" fill="#DD2F45"/>
<path d="M121.446 134.758C118.876 137.591 100.108 151.692 100.108 151.692C100.108 151.692 109.746 157.909 118.614 169.377C119.506 170.528 125.605 146.226 125.791 140.799C125.841 139.283 122.674 133.401 121.446 134.758ZM78.7702 134.758C81.3349 137.591 100.108 151.692 100.108 151.692C100.108 151.692 90.4699 157.909 81.6023 169.377C80.7096 170.528 74.6105 146.226 74.4248 140.799C74.3704 139.283 77.5377 133.401 78.7702 134.758Z" fill="#F4F7F9"/>
</g>
<defs>
<clipPath id="clip0_29_111">
<rect width="163.125" height="180.204" fill="white" transform="translate(0.375 0.855774)"/>
</clipPath>
</defs>
</svg>
