<svg width="173" height="173" viewBox="0 0 173 173" fill="none" xmlns="http://www.w3.org/2000/svg">
<g clip-path="url(#clip0_109_10)">
<path d="M152.361 1.75312C144.21 -0.884141 125.031 -0.166192 120.235 6.07039C107.767 6.30971 93.1443 17.5767 91.225 32.443C89.3249 47.1562 93.556 53.9863 95.0589 65.0475C96.7628 77.5781 103.808 81.589 109.442 83.269C117.545 93.976 126.16 93.5166 140.629 93.5166C155.194 93.5166 165.796 88.4574 172.841 79.1911V13.8721C167.701 8.6215 160.818 4.48612 152.361 1.75312Z" fill="#FFAC33"/>
<path d="M125.222 85.4373H149.436V133.301H125.222V85.4373Z" fill="#FFDC5D"/>
<path d="M169.247 43.8776C166.514 40.0916 163.015 37.0475 155.343 35.9658C158.219 37.282 160.976 41.8386 161.335 44.3562C161.694 46.8738 162.053 48.9128 159.775 46.3952C150.652 36.3104 140.716 40.2831 130.87 34.1231C123.992 29.8202 121.896 25.0626 121.896 25.0626C121.896 25.0626 121.058 31.414 110.629 37.8899C107.604 39.7662 104 43.9446 101.999 50.1142C100.558 54.5511 101.008 58.5046 101.008 65.2629C101.008 70.7432 102.3 75.9603 104.54 80.6701C110.37 92.9135 122.839 101.586 137.327 101.586C149.709 101.586 160.631 95.1966 167.189 85.7101C169.91 81.7891 171.83 77.3699 172.841 72.7056V52.8998C172.152 48.9272 170.999 46.3043 169.247 43.8776Z" fill="#FFDC5D"/>
<path d="M153.471 85.4372H121.183C121.183 85.4372 125.217 93.507 137.327 93.507C149.436 93.507 153.471 85.4372 153.471 85.4372ZM141.367 75.3525H133.297C132.761 75.3525 132.247 75.1397 131.869 74.7609C131.49 74.3821 131.277 73.8683 131.277 73.3326C131.277 72.7969 131.49 72.2832 131.869 71.9044C132.247 71.5256 132.761 71.3128 133.297 71.3128H141.367C141.902 71.3128 142.416 71.5256 142.795 71.9044C143.174 72.2832 143.386 72.7969 143.386 73.3326C143.386 73.8683 143.174 74.3821 142.795 74.7609C142.416 75.1397 141.902 75.3525 141.367 75.3525Z" fill="#C1694F"/>
<path d="M121.187 61.228C120.117 61.228 119.091 60.8029 118.334 60.0462C117.577 59.2896 117.152 58.2633 117.152 57.1932V53.1583C117.152 52.0882 117.577 51.0619 118.334 50.3052C119.091 49.5485 120.117 49.1234 121.187 49.1234C122.257 49.1234 123.284 49.5485 124.04 50.3052C124.797 51.0619 125.222 52.0882 125.222 53.1583V57.1932C125.222 58.2633 124.797 59.2896 124.04 60.0462C123.284 60.8029 122.257 61.228 121.187 61.228ZM153.471 61.228C152.401 61.228 151.375 60.8029 150.618 60.0462C149.861 59.2896 149.436 58.2633 149.436 57.1932V53.1583C149.436 52.0882 149.861 51.0619 150.618 50.3052C151.375 49.5485 152.401 49.1234 153.471 49.1234C154.541 49.1234 155.567 49.5485 156.324 50.3052C157.081 51.0619 157.506 52.0882 157.506 53.1583V57.1932C157.506 57.7232 157.403 58.2482 157.2 58.738C156.997 59.2278 156.7 59.6728 156.325 60.0476C155.951 60.4224 155.506 60.7196 155.016 60.9222C154.526 61.1247 154.001 61.2287 153.471 61.228Z" fill="#662113"/>
<path d="M101.051 105.607H124.983C124.983 105.607 125.931 128.452 136.815 128.452C147.699 128.452 149.317 105.607 149.317 105.607H172.846V172.615H86.6924V119.837C86.6924 110.393 91.4787 105.607 101.051 105.607Z" fill="#FA743E"/>
<path d="M100.984 124.752H105.905V172.615H100.984V124.752Z" fill="#DD551F"/>
<path d="M40.1215 93.5118C68.3704 93.5118 81.8247 74.6107 83.0165 42.5088C83.7345 23.0907 72.343 8.38227 51.8528 1.75321C43.6969 -0.884052 24.5181 -0.166104 19.7222 6.06569C13.2032 6.19014 6.10986 9.34911 0.538574 14.4465V78.4636C3.16148 81.0674 6.21037 82.4554 8.93379 83.2643C17.0418 93.9713 25.6572 93.5118 40.1215 93.5118Z" fill="#FFAC33"/>
<path d="M23.9771 85.4373H48.1911V133.301H23.9771V85.4373Z" fill="#FFDC5D"/>
<path d="M68.0018 43.8776C65.2688 40.0916 61.77 37.0475 54.0975 35.9658C56.9741 37.282 59.7311 41.8386 60.09 44.3562C60.449 46.8738 60.808 48.9128 58.5297 46.3952C49.407 36.3104 39.4705 40.283 29.6251 34.123C22.7519 29.8201 20.6555 25.0577 20.6555 25.0577C20.6555 25.0577 19.8179 31.4092 9.38849 37.8851C6.36353 39.7613 2.75943 43.9398 0.758745 50.1094C0.653446 50.43 0.624728 50.7412 0.538574 51.0571V72.6242C1.13208 75.4338 2.08456 78.1189 3.30028 80.6653C9.13003 92.9087 21.5984 101.582 36.0866 101.582C48.4688 101.582 59.3912 95.1918 65.9485 85.7053C70.1299 79.7065 72.3824 72.5751 72.4052 65.2629C72.4052 52.9859 71.1225 48.1948 68.0018 43.8776Z" fill="#FFDC5D"/>
<path d="M52.226 85.4372H19.9375C19.9375 85.4372 23.9724 93.507 36.0818 93.507C48.1912 93.507 52.226 85.4372 52.226 85.4372ZM40.1214 75.3525H32.0517C31.516 75.3525 31.0022 75.1397 30.6235 74.7609C30.2447 74.3821 30.0319 73.8683 30.0319 73.3326C30.0319 72.7969 30.2447 72.2832 30.6235 71.9044C31.0022 71.5256 31.516 71.3128 32.0517 71.3128H40.1214C40.6571 71.3128 41.1709 71.5256 41.5497 71.9044C41.9285 72.2832 42.1413 72.7969 42.1413 73.3326C42.1413 73.8683 41.9285 74.3821 41.5497 74.7609C41.1709 75.1397 40.6571 75.3525 40.1214 75.3525Z" fill="#C1694F"/>
<path d="M19.9423 61.228C18.8722 61.228 17.8459 60.8029 17.0893 60.0462C16.3326 59.2896 15.9075 58.2633 15.9075 57.1932V53.1583C15.9075 52.0882 16.3326 51.0619 17.0893 50.3052C17.8459 49.5485 18.8722 49.1234 19.9423 49.1234C21.0125 49.1234 22.0387 49.5485 22.7954 50.3052C23.5521 51.0619 23.9772 52.0882 23.9772 53.1583V57.1932C23.9772 58.2633 23.5521 59.2896 22.7954 60.0462C22.0387 60.8029 21.0125 61.228 19.9423 61.228ZM52.2261 61.228C51.156 61.228 50.1297 60.8029 49.373 60.0462C48.6163 59.2896 48.1912 58.2633 48.1912 57.1932V53.1583C48.1912 52.0882 48.6163 51.0619 49.373 50.3052C50.1297 49.5485 51.156 49.1234 52.2261 49.1234C53.2962 49.1234 54.3225 49.5485 55.0792 50.3052C55.8359 51.0619 56.261 52.0882 56.261 53.1583V57.1932C56.2616 57.7232 56.1577 58.2482 55.9551 58.738C55.7526 59.2278 55.4554 59.6728 55.0806 60.0476C54.7058 60.4224 54.2607 60.7196 53.7709 60.9222C53.2811 61.1247 52.7561 61.2287 52.2261 61.228Z" fill="#662113"/>
<path d="M72.3334 105.607H48.4018C48.4018 105.607 47.4541 128.452 36.57 128.452C25.6859 128.452 23.9772 105.607 23.9772 105.607H0.538574V172.615H86.6924V119.837C86.6924 110.393 81.9061 105.607 72.3334 105.607Z" fill="#99AAB5"/>
<path d="M67.48 124.752H72.4003V172.615H67.48V124.752Z" fill="#66757F"/>
<path d="M100.855 72.3562C93.8478 70.0875 77.3589 70.7049 73.2331 76.0656C62.5165 76.2714 49.9428 85.959 48.2915 98.7384C46.6594 111.389 50.297 117.262 51.5893 126.772C53.0539 137.546 59.1134 140.992 63.9572 142.438C70.9261 151.642 78.3305 151.249 90.7702 151.249C115.056 151.249 126.625 135 127.649 107.397C128.266 90.6974 118.473 78.0567 100.855 72.3562Z" fill="#FFAC33"/>
<path d="M77.3733 144.304H97.227V172.615H77.3733V144.304Z" fill="#FFDC5D"/>
<path d="M114.745 108.574C112.395 105.32 109.384 102.702 102.789 101.773C105.263 102.907 107.633 106.823 107.944 108.986C108.255 111.149 108.561 112.901 106.603 110.738C98.7587 102.07 90.2151 105.482 81.7529 100.184C75.8418 96.4842 74.0373 92.3918 74.0373 92.3918C74.0373 92.3918 73.3146 97.853 64.3498 103.42C61.7508 105.033 58.6493 108.627 56.931 113.93C55.6961 117.745 56.0791 121.143 56.0791 126.954C56.0791 143.917 70.0599 158.18 87.305 158.18C104.55 158.18 118.531 143.792 118.531 126.954C118.526 116.405 117.421 112.284 114.745 108.574Z" fill="#FFDC5D"/>
<path d="M101.18 144.304H73.4197C73.4197 144.304 76.8898 151.244 87.3 151.244C97.7103 151.244 101.18 144.304 101.18 144.304ZM90.7701 137.369H83.8299C83.3704 137.369 82.9297 137.186 82.6048 136.861C82.2798 136.537 82.0973 136.096 82.0973 135.636C82.0973 135.177 82.2798 134.736 82.6048 134.411C82.9297 134.086 83.3704 133.904 83.8299 133.904H90.7701C91.2296 133.904 91.6703 134.086 91.9953 134.411C92.3202 134.736 92.5028 135.177 92.5028 135.636C92.5028 136.096 92.3202 136.537 91.9953 136.861C91.6703 137.186 91.2296 137.369 90.7701 137.369Z" fill="#C1694F"/>
<path d="M72.769 128.409C72.239 128.41 71.714 128.306 71.2242 128.103C70.7344 127.9 70.2893 127.603 69.9145 127.228C69.5397 126.854 69.2425 126.409 69.04 125.919C68.8374 125.429 68.7335 124.904 68.7341 124.374V120.339C68.7341 119.269 69.1592 118.243 69.9159 117.486C70.6726 116.729 71.6989 116.304 72.769 116.304C73.8391 116.304 74.8654 116.729 75.6221 117.486C76.3788 118.243 76.8039 119.269 76.8039 120.339V124.374C76.8045 124.904 76.7006 125.429 76.498 125.919C76.2955 126.409 75.9983 126.854 75.6235 127.228C75.2487 127.603 74.8036 127.9 74.3138 128.103C73.824 128.306 73.299 128.41 72.769 128.409ZM101.487 128.409C100.957 128.41 100.432 128.306 99.9421 128.103C99.4523 127.9 99.0073 127.603 98.6325 127.228C98.2577 126.854 97.9605 126.409 97.7579 125.919C97.5554 125.429 97.4514 124.904 97.4521 124.374V120.339C97.4521 119.269 97.8772 118.243 98.6339 117.486C99.3906 116.729 100.417 116.304 101.487 116.304C102.557 116.304 103.583 116.729 104.34 117.486C105.097 118.243 105.522 119.269 105.522 120.339V124.374C105.522 124.904 105.419 125.429 105.216 125.919C105.013 126.409 104.716 126.854 104.341 127.228C103.967 127.603 103.522 127.9 103.032 128.103C102.542 128.306 102.017 128.41 101.487 128.409Z" fill="#662113"/>
<path d="M111.059 158.256H97.227C97.227 158.256 93.8526 172.615 87.3001 172.615C80.7524 172.615 77.3733 158.256 77.3733 158.256H67.9825C66.2212 158.256 64.5412 158.41 62.933 158.678C53.6427 160.238 47.1333 166.025 44.9412 172.615H129.334C126.854 164.948 119 158.256 111.059 158.256Z" fill="#5C913B"/>
</g>
<defs>
<clipPath id="clip0_109_10">
<rect width="172.308" height="172.308" fill="white" transform="translate(0.538574 0.307678)"/>
</clipPath>
</defs>
</svg>
