<svg width="40" height="45" viewBox="0 0 40 45" fill="none" xmlns="http://www.w3.org/2000/svg">
<path d="M31.625 35.6667C29.4917 35.6667 27.7813 37.6293 27.7813 40.0769C27.7813 41.2466 28.1862 42.3684 28.9071 43.1955C29.6279 44.0226 30.6056 44.4872 31.625 44.4872C32.6444 44.4872 33.6221 44.0226 34.3429 43.1955C35.0638 42.3684 35.4688 41.2466 35.4688 40.0769C35.4688 38.9073 35.0638 37.7855 34.3429 36.9584C33.6221 36.1313 32.6444 35.6667 31.625 35.6667ZM0.875 0.384644V4.7949H4.71875L11.6375 21.5318L9.02375 26.9344C8.73547 27.5518 8.5625 28.2795 8.5625 29.0513C8.5625 30.221 8.96747 31.3427 9.68831 32.1698C10.4092 32.9969 11.3868 33.4616 12.4062 33.4616H35.4688V29.0513H13.2134C13.086 29.0513 12.9638 28.9932 12.8737 28.8898C12.7836 28.7865 12.733 28.6462 12.733 28.5C12.733 28.3898 12.7522 28.3016 12.7906 28.2354L14.5203 24.6411H28.8383C30.2797 24.6411 31.5481 23.7149 32.2016 22.3698L39.0819 8.10259C39.2164 7.74977 39.3125 7.3749 39.3125 7.00003C39.3125 6.41519 39.11 5.85431 38.7496 5.44077C38.3892 5.02723 37.9003 4.7949 37.3906 4.7949H8.96609L7.15953 0.384644M12.4062 35.6667C10.273 35.6667 8.5625 37.6293 8.5625 40.0769C8.5625 41.2466 8.96747 42.3684 9.68831 43.1955C10.4092 44.0226 11.3868 44.4872 12.4062 44.4872C13.4257 44.4872 14.4033 44.0226 15.1242 43.1955C15.845 42.3684 16.25 41.2466 16.25 40.0769C16.25 38.9073 15.845 37.7855 15.1242 36.9584C14.4033 36.1313 13.4257 35.6667 12.4062 35.6667Z" fill="white"/>
</svg>
