<svg width="19" height="30" viewBox="0 0 19 30" fill="none" xmlns="http://www.w3.org/2000/svg">
<path d="M17.0802 0.0483398H1.92888C1.52705 0.0483398 1.14167 0.303746 0.857528 0.758372C0.573386 1.213 0.413757 1.8296 0.413757 2.47254V26.7146C0.413757 27.3575 0.573386 27.9741 0.857528 28.4287C1.14167 28.8834 1.52705 29.1388 1.92888 29.1388H17.0802C17.482 29.1388 17.8674 28.8834 18.1515 28.4287C18.4357 27.9741 18.5953 27.3575 18.5953 26.7146V2.47254C18.5953 1.8296 18.4357 1.213 18.1515 0.758372C17.8674 0.303746 17.482 0.0483398 17.0802 0.0483398ZM14.8075 15.8057H4.20158C4.00066 15.8057 3.80797 15.678 3.6659 15.4506C3.52383 15.2233 3.44401 14.915 3.44401 14.5936C3.44401 14.2721 3.52383 13.9638 3.6659 13.7365C3.80797 13.5092 4.00066 13.3815 4.20158 13.3815H14.8075C15.0084 13.3815 15.2011 13.5092 15.3431 13.7365C15.4852 13.9638 15.565 14.2721 15.565 14.5936C15.565 14.915 15.4852 15.2233 15.3431 15.4506C15.2011 15.678 15.0084 15.8057 14.8075 15.8057Z" fill="black"/>
</svg>
