<svg width="39" height="39" viewBox="0 0 39 39" fill="none" xmlns="http://www.w3.org/2000/svg">
<path d="M27.9336 24.533H26.2174L25.6091 23.9376C27.8116 21.3445 29.0222 18.0338 29.0198 14.61C29.0198 11.7751 28.1916 9.00388 26.64 6.64678C25.0884 4.28967 22.8831 2.45253 20.3029 1.36768C17.7227 0.282822 14.8835 -0.00102612 12.1444 0.552029C9.40529 1.10508 6.88925 2.4702 4.91445 4.47475C2.93965 6.47931 1.5948 9.03326 1.04995 11.8137C0.505109 14.5941 0.784744 17.476 1.8535 20.0951C2.92225 22.7142 4.73212 24.9527 7.05423 26.5277C9.37635 28.1027 12.1064 28.9433 14.8992 28.9433C18.3968 28.9433 21.6119 27.6423 24.0884 25.4812L24.675 26.0987V27.8407L35.537 38.8443L38.7738 35.5587L27.9336 24.533ZM14.8992 24.533C9.48994 24.533 5.12342 20.1007 5.12342 14.61C5.12342 9.11918 9.48994 4.68687 14.8992 4.68687C20.3085 4.68687 24.675 9.11918 24.675 14.61C24.675 20.1007 20.3085 24.533 14.8992 24.533Z" fill="#FDFDFD"/>
</svg>
