<svg width="26" height="34" viewBox="0 0 26 34" fill="none" xmlns="http://www.w3.org/2000/svg">
<path d="M22.077 11.6923H20.5386V8.6154C20.5386 4.36925 17.0924 0.923096 12.8463 0.923096C8.60011 0.923096 5.15396 4.36925 5.15396 8.6154V11.6923H3.6155C1.92319 11.6923 0.538574 13.0769 0.538574 14.7693V30.1539C0.538574 31.8462 1.92319 33.2308 3.6155 33.2308H22.077C23.7693 33.2308 25.154 31.8462 25.154 30.1539V14.7693C25.154 13.0769 23.7693 11.6923 22.077 11.6923ZM12.8463 25.5385C11.154 25.5385 9.76934 24.1539 9.76934 22.4616C9.76934 20.7693 11.154 19.3846 12.8463 19.3846C14.5386 19.3846 15.9232 20.7693 15.9232 22.4616C15.9232 24.1539 14.5386 25.5385 12.8463 25.5385ZM17.6155 11.6923H8.07704V8.6154C8.07704 5.98463 10.2155 3.84617 12.8463 3.84617C15.477 3.84617 17.6155 5.98463 17.6155 8.6154V11.6923Z" fill="black"/>
</svg>
