<svg width="23" height="33" viewBox="0 0 23 33" fill="none" xmlns="http://www.w3.org/2000/svg">
<path d="M19.6875 10.7692H18.2812V7.69231C18.2812 3.44615 15.1312 0 11.25 0C7.36875 0 4.21875 3.44615 4.21875 7.69231V10.7692H2.8125C1.26562 10.7692 0 12.1538 0 13.8462V29.2308C0 30.9231 1.26562 32.3077 2.8125 32.3077H19.6875C21.2344 32.3077 22.5 30.9231 22.5 29.2308V13.8462C22.5 12.1538 21.2344 10.7692 19.6875 10.7692ZM11.25 24.6154C9.70312 24.6154 8.4375 23.2308 8.4375 21.5385C8.4375 19.8462 9.70312 18.4615 11.25 18.4615C12.7969 18.4615 14.0625 19.8462 14.0625 21.5385C14.0625 23.2308 12.7969 24.6154 11.25 24.6154ZM15.6094 10.7692H6.89062V7.69231C6.89062 5.06154 8.84531 2.92308 11.25 2.92308C13.6547 2.92308 15.6094 5.06154 15.6094 7.69231V10.7692Z" fill="black"/>
</svg>
