<svg width="19" height="30" viewBox="0 0 19 30" fill="none" xmlns="http://www.w3.org/2000/svg">
<path d="M17.2091 0.468506H2.05785C1.65602 0.468506 1.27064 0.723912 0.986495 1.17854C0.702354 1.63316 0.542725 2.24977 0.542725 2.89271V27.1347C0.542725 27.7777 0.702354 28.3943 0.986495 28.8489C1.27064 29.3035 1.65602 29.5589 2.05785 29.5589H17.2091C17.611 29.5589 17.9963 29.3035 18.2805 28.8489C18.5646 28.3943 18.7243 27.7777 18.7243 27.1347V2.89271C18.7243 2.24977 18.5646 1.63316 18.2805 1.17854C17.9963 0.723912 17.611 0.468506 17.2091 0.468506ZM14.9364 16.2258H4.33054C4.12962 16.2258 3.93694 16.0981 3.79486 15.8708C3.65279 15.6435 3.57298 15.3352 3.57298 15.0137C3.57298 14.6923 3.65279 14.384 3.79486 14.1566C3.93694 13.9293 4.12962 13.8016 4.33054 13.8016H14.9364C15.1374 13.8016 15.33 13.9293 15.4721 14.1566C15.6142 14.384 15.694 14.6923 15.694 15.0137C15.694 15.3352 15.6142 15.6435 15.4721 15.8708C15.33 16.0981 15.1374 16.2258 14.9364 16.2258Z" fill="black"/>
</svg>
