<svg width="19" height="30" viewBox="0 0 19 30" fill="none" xmlns="http://www.w3.org/2000/svg">
<path d="M17.1648 0.260498H2.01354C1.6117 0.260498 1.22632 0.515904 0.942183 0.970531C0.658042 1.42516 0.498413 2.04176 0.498413 2.6847V26.9267C0.498413 27.5697 0.658042 28.1863 0.942183 28.6409C1.22632 29.0955 1.6117 29.3509 2.01354 29.3509H17.1648C17.5666 29.3509 17.952 29.0955 18.2362 28.6409C18.5203 28.1863 18.6799 27.5697 18.6799 26.9267V2.6847C18.6799 2.04176 18.5203 1.42516 18.2362 0.970531C17.952 0.515904 17.5666 0.260498 17.1648 0.260498ZM14.8921 16.0178H4.28623C4.08531 16.0178 3.89262 15.8901 3.75055 15.6628C3.60848 15.4355 3.52867 15.1272 3.52867 14.8057C3.52867 14.4842 3.60848 14.1759 3.75055 13.9486C3.89262 13.7213 4.08531 13.5936 4.28623 13.5936H14.8921C15.093 13.5936 15.2857 13.7213 15.4278 13.9486C15.5699 14.1759 15.6497 14.4842 15.6497 14.8057C15.6497 15.1272 15.5699 15.4355 15.4278 15.6628C15.2857 15.8901 15.093 16.0178 14.8921 16.0178Z" fill="black"/>
</svg>
