<svg width="19" height="30" viewBox="0 0 19 30" fill="none" xmlns="http://www.w3.org/2000/svg">
<path d="M16.6664 0H1.51513C1.11329 0 0.727912 0.255406 0.44377 0.710033C0.159629 1.16466 0 1.78126 0 2.4242V26.6662C0 27.3092 0.159629 27.9258 0.44377 28.3804C0.727912 28.835 1.11329 29.0904 1.51513 29.0904H16.6664C17.0682 29.0904 17.4536 28.835 17.7378 28.3804C18.0219 27.9258 18.1815 27.3092 18.1815 26.6662V2.4242C18.1815 1.78126 18.0219 1.16466 17.7378 0.710033C17.4536 0.255406 17.0682 0 16.6664 0ZM14.3937 15.7573H3.78782C3.5869 15.7573 3.39421 15.6296 3.25214 15.4023C3.11007 15.175 3.03025 14.8667 3.03025 14.5452C3.03025 14.2237 3.11007 13.9154 3.25214 13.6881C3.39421 13.4608 3.5869 13.3331 3.78782 13.3331H14.3937C14.5946 13.3331 14.7873 13.4608 14.9294 13.6881C15.0715 13.9154 15.1513 14.2237 15.1513 14.5452C15.1513 14.8667 15.0715 15.175 14.9294 15.4023C14.7873 15.6296 14.5946 15.7573 14.3937 15.7573Z" fill="black"/>
</svg>
