<svg width="49" height="54" viewBox="0 0 49 54" fill="none" xmlns="http://www.w3.org/2000/svg">
<path fill-rule="evenodd" clip-rule="evenodd" d="M4.8375 26.7281C4.8375 21.0571 6.87615 15.6184 10.505 11.6084C14.1338 7.59842 19.0556 5.34562 24.1875 5.34562C29.3194 5.34562 34.2412 7.59842 37.87 11.6084C41.4988 15.6184 43.5375 21.0571 43.5375 26.7281C43.5375 32.3991 41.4988 37.8378 37.87 41.8478C34.2412 45.8578 29.3194 48.1106 24.1875 48.1106C19.0556 48.1106 14.1338 45.8578 10.505 41.8478C6.87615 37.8378 4.8375 32.3991 4.8375 26.7281ZM24.1875 0C10.8287 0 0 11.9662 0 26.7281C0 41.4901 10.8287 53.4562 24.1875 53.4562C37.5463 53.4562 48.375 41.4901 48.375 26.7281C48.375 11.9662 37.5463 0 24.1875 0ZM24.1875 16.0369C22.9045 16.0369 21.6741 16.6001 20.7669 17.6026C19.8597 18.6051 19.35 19.9648 19.35 21.3825C19.35 22.0914 19.0952 22.7712 18.6416 23.2725C18.188 23.7737 17.5727 24.0553 16.9312 24.0553C16.2898 24.0553 15.6745 23.7737 15.2209 23.2725C14.7673 22.7712 14.5125 22.0914 14.5125 21.3825C14.5128 19.4197 15.002 17.4949 15.9266 15.819C16.8511 14.1431 18.1754 12.7807 19.7541 11.8813C21.3329 10.9819 23.1052 10.5802 24.8769 10.72C26.6486 10.8599 28.3513 11.536 29.7983 12.6743C31.2454 13.8126 32.3809 15.3691 33.0805 17.1732C33.7801 18.9774 34.0167 20.9595 33.7644 22.9024C33.5122 24.8453 32.7808 26.6739 31.6504 28.188C30.5201 29.702 29.0343 30.8429 27.3561 31.4857C27.1062 31.5753 26.8797 31.7303 26.6957 31.9374C26.6581 31.979 26.6277 32.0279 26.6063 32.0818V33.4102C26.6063 34.119 26.3514 34.7989 25.8978 35.3001C25.4442 35.8014 24.829 36.083 24.1875 36.083C23.546 36.083 22.9308 35.8014 22.4772 35.3001C22.0236 34.7989 21.7688 34.119 21.7688 33.4102V32.0737C21.7688 28.9947 24.0037 27.113 25.7718 26.4341C26.8501 26.0178 27.7603 25.1934 28.3416 24.1069C28.9229 23.0204 29.1377 21.7418 28.948 20.4971C28.7584 19.2524 28.1765 18.122 27.3053 17.3058C26.4341 16.4895 25.3297 16.0401 24.1875 16.0369ZM21.7688 40.0922C21.7688 39.3833 22.0236 38.7035 22.4772 38.2022C22.9308 37.701 23.546 37.4194 24.1875 37.4194H24.2117C24.8532 37.4194 25.4684 37.701 25.922 38.2022C26.3756 38.7035 26.6304 39.3833 26.6304 40.0922C26.6304 40.8011 26.3756 41.4809 25.922 41.9821C25.4684 42.4834 24.8532 42.765 24.2117 42.765H24.1875C23.546 42.765 22.9308 42.4834 22.4772 41.9821C22.0236 41.4809 21.7688 40.8011 21.7688 40.0922Z" fill="white"/>
</svg>
