<svg width="37" height="39" viewBox="0 0 37 39" fill="none" xmlns="http://www.w3.org/2000/svg">
<path d="M25.9453 24.5642H24.353L23.7886 23.9688C25.8322 21.3756 26.9554 18.065 26.9531 14.6411C26.9531 11.8062 26.1847 9.03501 24.7451 6.67791C23.3055 4.3208 21.2593 2.48366 18.8653 1.39881C16.4713 0.31395 13.837 0.0301018 11.2956 0.583157C8.75412 1.13621 6.41965 2.50133 4.58736 4.50588C2.75508 6.51043 1.50728 9.06439 1.00175 11.8448C0.496222 14.6252 0.755677 17.5071 1.7473 20.1262C2.73893 22.7453 4.41819 24.9838 6.57273 26.5588C8.72727 28.1338 11.2603 28.9744 13.8516 28.9744C17.0967 28.9744 20.0798 27.6734 22.3777 25.5124L22.9219 26.1298V27.8718L33 38.8754L36.0033 35.5898L25.9453 24.5642ZM13.8516 24.5642C8.83266 24.5642 4.78126 20.1318 4.78126 14.6411C4.78126 9.15031 8.83266 4.718 13.8516 4.718C18.8705 4.718 22.9219 9.15031 22.9219 14.6411C22.9219 20.1318 18.8705 24.5642 13.8516 24.5642Z" fill="#FDFDFD"/>
</svg>
