<svg width="34" height="39" viewBox="0 0 34 39" fill="none" xmlns="http://www.w3.org/2000/svg">
<path d="M3.0625 38.7692C3.0625 38.7692 0.25 38.7692 0.25 35.6154C0.25 32.4616 3.0625 23 17.125 23C31.1875 23 34 32.4616 34 35.6154C34 38.7692 31.1875 38.7692 31.1875 38.7692H3.0625ZM17.125 19.8462C19.3628 19.8462 21.5089 18.8493 23.0912 17.075C24.6736 15.3006 25.5625 12.894 25.5625 10.3846C25.5625 7.87528 24.6736 5.4687 23.0912 3.69432C21.5089 1.91993 19.3628 0.923096 17.125 0.923096C14.8872 0.923096 12.7411 1.91993 11.1588 3.69432C9.57645 5.4687 8.6875 7.87528 8.6875 10.3846C8.6875 12.894 9.57645 15.3006 11.1588 17.075C12.7411 18.8493 14.8872 19.8462 17.125 19.8462Z" fill="#FDFDFD"/>
</svg>
