<svg width="35" height="39" viewBox="0 0 35 39" fill="none" xmlns="http://www.w3.org/2000/svg">
<path d="M3.3125 38.7692C3.3125 38.7692 0.5 38.7692 0.5 35.6154C0.5 32.4616 3.3125 23 17.375 23C31.4375 23 34.25 32.4616 34.25 35.6154C34.25 38.7692 31.4375 38.7692 31.4375 38.7692H3.3125ZM17.375 19.8462C19.6128 19.8462 21.7589 18.8493 23.3412 17.075C24.9236 15.3006 25.8125 12.894 25.8125 10.3846C25.8125 7.87528 24.9236 5.4687 23.3412 3.69432C21.7589 1.91993 19.6128 0.923096 17.375 0.923096C15.1372 0.923096 12.9911 1.91993 11.4088 3.69432C9.82645 5.4687 8.9375 7.87528 8.9375 10.3846C8.9375 12.894 9.82645 15.3006 11.4088 17.075C12.9911 18.8493 15.1372 19.8462 17.375 19.8462Z" fill="#FDFDFD"/>
</svg>
