<svg width="39" height="45" viewBox="0 0 39 45" fill="none" xmlns="http://www.w3.org/2000/svg">
<path d="M30.75 35.282C28.6167 35.282 26.9063 37.2446 26.9063 39.6923C26.9063 40.862 27.3112 41.9837 28.0321 42.8108C28.7529 43.6379 29.7306 44.1026 30.75 44.1026C31.7694 44.1026 32.7471 43.6379 33.4679 42.8108C34.1888 41.9837 34.5938 40.862 34.5938 39.6923C34.5938 38.5226 34.1888 37.4009 33.4679 36.5738C32.7471 35.7467 31.7694 35.282 30.75 35.282ZM0 0V4.41026H3.84375L10.7625 21.1472L8.14875 26.5497C7.86047 27.1672 7.6875 27.8949 7.6875 28.6667C7.6875 29.8363 8.09247 30.9581 8.81331 31.7852C9.53415 32.6123 10.5118 33.0769 11.5312 33.0769H34.5938V28.6667H12.3384C12.211 28.6667 12.0888 28.6086 11.9987 28.5052C11.9086 28.4018 11.858 28.2616 11.858 28.1154C11.858 28.0051 11.8772 27.9169 11.9156 27.8508L13.6453 24.2564H27.9633C29.4047 24.2564 30.6731 23.3303 31.3266 21.9851L38.2069 7.71795C38.3414 7.36513 38.4375 6.99026 38.4375 6.61538C38.4375 6.03055 38.235 5.46966 37.8746 5.05612C37.5142 4.64258 37.0253 4.41026 36.5156 4.41026H8.09109L6.28453 0M11.5312 35.282C9.39797 35.282 7.6875 37.2446 7.6875 39.6923C7.6875 40.862 8.09247 41.9837 8.81331 42.8108C9.53415 43.6379 10.5118 44.1026 11.5312 44.1026C12.5507 44.1026 13.5283 43.6379 14.2492 42.8108C14.97 41.9837 15.375 40.862 15.375 39.6923C15.375 38.5226 14.97 37.4009 14.2492 36.5738C13.5283 35.7467 12.5507 35.282 11.5312 35.282Z" fill="white"/>
</svg>
