<svg width="44" height="45" viewBox="0 0 44 45" fill="none" xmlns="http://www.w3.org/2000/svg">
<path fill-rule="evenodd" clip-rule="evenodd" d="M4.30141 22.0511C4.30141 17.3724 6.11415 12.8854 9.34083 9.5771C12.5675 6.2688 16.9438 4.41021 21.5071 4.41021C26.0703 4.41021 30.4466 6.2688 33.6733 9.5771C36.9 12.8854 38.7127 17.3724 38.7127 22.0511C38.7127 26.7297 36.9 31.2167 33.6733 34.525C30.4466 37.8333 26.0703 39.6919 21.5071 39.6919C16.9438 39.6919 12.5675 37.8333 9.34083 34.525C6.11415 31.2167 4.30141 26.7297 4.30141 22.0511ZM21.5071 0C9.62871 0 0 9.87226 0 22.0511C0 34.2299 9.62871 44.1021 21.5071 44.1021C33.3854 44.1021 43.0141 34.2299 43.0141 22.0511C43.0141 9.87226 33.3854 0 21.5071 0ZM21.5071 13.2306C20.3663 13.2306 19.2722 13.6953 18.4655 14.5224C17.6588 15.3494 17.2057 16.4712 17.2057 17.6408C17.2057 18.2257 16.9791 18.7866 16.5757 19.2001C16.1724 19.6136 15.6253 19.846 15.0549 19.846C14.4845 19.846 13.9375 19.6136 13.5342 19.2001C13.1308 18.7866 12.9042 18.2257 12.9042 17.6408C12.9045 16.0215 13.3395 14.4335 14.1616 13.0509C14.9837 11.6682 16.1612 10.5443 17.565 9.80227C18.9688 9.06024 20.5448 8.72877 22.1201 8.84416C23.6955 8.95955 25.2095 9.51737 26.4961 10.4565C27.7828 11.3956 28.7925 12.6797 29.4145 14.1681C30.0366 15.6566 30.247 17.2919 30.0227 18.8948C29.7984 20.4977 29.1481 22.0064 28.143 23.2554C27.1379 24.5045 25.8168 25.4458 24.3245 25.9761C24.1024 26.0501 23.9009 26.1779 23.7373 26.3488C23.7038 26.3831 23.6768 26.4235 23.6578 26.4679V27.5638C23.6578 28.1487 23.4312 28.7095 23.0278 29.1231C22.6245 29.5366 22.0775 29.7689 21.5071 29.7689C20.9367 29.7689 20.3896 29.5366 19.9863 29.1231C19.583 28.7095 19.3564 28.1487 19.3564 27.5638V26.4613C19.3564 23.921 21.3436 22.3686 22.9158 21.8085C23.8746 21.465 24.684 20.7849 25.2008 19.8885C25.7177 18.9922 25.9087 17.9372 25.74 16.9104C25.5714 15.8835 25.054 14.9509 24.2793 14.2775C23.5047 13.6041 22.5227 13.2333 21.5071 13.2306ZM19.3564 33.0766C19.3564 32.4918 19.583 31.9309 19.9863 31.5173C20.3896 31.1038 20.9367 30.8715 21.5071 30.8715H21.5286C22.099 30.8715 22.646 31.1038 23.0494 31.5173C23.4527 31.9309 23.6793 32.4918 23.6793 33.0766C23.6793 33.6614 23.4527 34.2223 23.0494 34.6358C22.646 35.0494 22.099 35.2817 21.5286 35.2817H21.5071C20.9367 35.2817 20.3896 35.0494 19.9863 34.6358C19.583 34.2223 19.3564 33.6614 19.3564 33.0766Z" fill="white"/>
</svg>
