<svg width="32" height="32" viewBox="0 0 32 32" fill="none" xmlns="http://www.w3.org/2000/svg">
<path d="M22.7708 20.0833H21.3554L20.8538 19.5996C22.6703 17.4926 23.6686 14.8027 23.6667 12.0208C23.6667 9.71751 22.9837 7.46591 21.704 5.55076C20.4243 3.63561 18.6055 2.14294 16.4775 1.26149C14.3495 0.380046 12.0079 0.14942 9.74885 0.598777C7.48978 1.04813 5.41469 2.15729 3.78599 3.78599C2.15729 5.41469 1.04813 7.48978 0.598777 9.74885C0.14942 12.0079 0.380046 14.3495 1.26149 16.4775C2.14294 18.6055 3.63561 20.4243 5.55076 21.704C7.46591 22.9837 9.71751 23.6667 12.0208 23.6667C14.9054 23.6667 17.5571 22.6096 19.5996 20.8538L20.0833 21.3554V22.7708L29.0417 31.7113L31.7113 29.0417L22.7708 20.0833ZM12.0208 20.0833C7.55959 20.0833 3.95834 16.4821 3.95834 12.0208C3.95834 7.55959 7.55959 3.95834 12.0208 3.95834C16.4821 3.95834 20.0833 7.55959 20.0833 12.0208C20.0833 16.4821 16.4821 20.0833 12.0208 20.0833Z" fill="#FDFDFD"/>
</svg>
