<svg width="34" height="38" viewBox="0 0 34 38" fill="none" xmlns="http://www.w3.org/2000/svg">
<path d="M2.8125 37.8462C2.8125 37.8462 0 37.8462 0 34.6923C0 31.5385 2.8125 22.0769 16.875 22.0769C30.9375 22.0769 33.75 31.5385 33.75 34.6923C33.75 37.8462 30.9375 37.8462 30.9375 37.8462H2.8125ZM16.875 18.9231C19.1128 18.9231 21.2589 17.9262 22.8412 16.1519C24.4236 14.3775 25.3125 11.9709 25.3125 9.46154C25.3125 6.95218 24.4236 4.5456 22.8412 2.77122C21.2589 0.996838 19.1128 0 16.875 0C14.6372 0 12.4911 0.996838 10.9088 2.77122C9.32645 4.5456 8.4375 6.95218 8.4375 9.46154C8.4375 11.9709 9.32645 14.3775 10.9088 16.1519C12.4911 17.9262 14.6372 18.9231 16.875 18.9231Z" fill="#FDFDFD"/>
</svg>
