<svg width="36" height="39" viewBox="0 0 36 39" fill="none" xmlns="http://www.w3.org/2000/svg">
<path d="M25.1953 24.2564H23.603L23.0386 23.661C25.0822 21.0678 26.2054 17.7572 26.2031 14.3333C26.2031 11.4985 25.4347 8.72727 23.9951 6.37017C22.5555 4.01306 20.5093 2.17592 18.1153 1.09107C15.7213 0.0062104 13.087 -0.277637 10.5456 0.275417C8.00412 0.828472 5.66965 2.19359 3.83736 4.19814C2.00508 6.2027 0.757275 8.75665 0.251749 11.537C-0.253778 14.3174 0.00567669 17.1994 0.997303 19.8185C1.98893 22.4375 3.66819 24.6761 5.82273 26.2511C7.97727 27.826 10.5103 28.6667 13.1016 28.6667C16.3467 28.6667 19.3298 27.3656 21.6277 25.2046L22.1719 25.8221V27.5641L32.25 38.5677L35.2533 35.2821L25.1953 24.2564ZM13.1016 24.2564C8.08266 24.2564 4.03126 19.8241 4.03126 14.3333C4.03126 8.84257 8.08266 4.41026 13.1016 4.41026C18.1205 4.41026 22.1719 8.84257 22.1719 14.3333C22.1719 19.8241 18.1205 24.2564 13.1016 24.2564Z" fill="#FDFDFD"/>
</svg>
