<svg width="19" height="29" viewBox="0 0 19 29" fill="none" xmlns="http://www.w3.org/2000/svg">
<path d="M17.3328 0.226683L1.86524 0.0206075C1.45502 0.0151421 1.05879 0.261117 0.763743 0.704422C0.468691 1.14773 0.298978 1.75205 0.291939 2.38444L0.0265145 26.2288C0.019475 26.8612 0.175686 27.4699 0.460782 27.9209C0.745878 28.3719 1.13651 28.6284 1.54673 28.6339L17.0143 28.8399C17.4246 28.8454 17.8208 28.5994 18.1158 28.1561C18.4109 27.7128 18.5806 27.1085 18.5876 26.4761L18.8531 2.63173C18.8601 1.99934 18.7039 1.39067 18.4188 0.93964C18.1337 0.488607 17.7431 0.232148 17.3328 0.226683ZM14.8402 15.6946L10.1999 15.6328L10.1203 22.7861C10.1168 23.1023 10.0319 23.4045 9.88437 23.6261C9.73684 23.8478 9.53873 23.9708 9.33362 23.968C9.12851 23.9653 8.93319 23.8371 8.79064 23.6116C8.6481 23.386 8.56999 23.0817 8.57351 22.7655L8.65314 15.6122L4.01286 15.5504C3.80774 15.5476 3.61243 15.4194 3.46988 15.1939C3.32733 14.9684 3.24923 14.664 3.25275 14.3478C3.25627 14.0317 3.34112 13.7295 3.48865 13.5078C3.63618 13.2862 3.83429 13.1632 4.0394 13.1659L8.67968 13.2278L8.75931 6.07444C8.76283 5.75824 8.84768 5.45608 8.99521 5.23443C9.14273 5.01278 9.34085 4.88979 9.54596 4.89252C9.75107 4.89526 9.94639 5.02348 10.0889 5.249C10.2315 5.47452 10.3096 5.77885 10.3061 6.09505L10.2264 13.2484L14.8667 13.3102C15.0718 13.3129 15.2671 13.4411 15.4097 13.6667C15.5522 13.8922 15.6303 14.1965 15.6268 14.5127C15.6233 14.8289 15.5385 15.1311 15.3909 15.3527C15.2434 15.5744 15.0453 15.6974 14.8402 15.6946Z" fill="black"/>
</svg>
