<svg width="123" height="112" viewBox="0 0 123 112" fill="none" xmlns="http://www.w3.org/2000/svg">
<path d="M61.5195 0.384644C28.0276 0.384644 0.875 25.1803 0.875 55.7693C0.875 86.3582 28.0276 111.154 61.5195 111.154C95.0115 111.154 122.164 86.3563 122.164 55.7693C122.164 25.1803 95.0115 0.384644 61.5195 0.384644ZM79.6179 79.1748C75.4759 82.4093 69.6257 84.0246 62.0633 84.0246C54.3412 84.0246 48.2647 82.4314 43.8416 79.2468C39.4166 76.0585 37.2051 71.6813 37.2051 66.1077H48.9034C49.2835 68.5557 50.0294 70.3834 51.1372 71.5963C53.1708 73.8025 56.6498 74.9028 61.5802 74.9028C64.5336 74.9028 66.929 74.6148 68.7706 74.0296C72.2678 72.9145 74.0143 70.845 74.0143 67.8173C74.0143 66.0505 73.1572 64.6806 71.447 63.7096C69.7328 62.7643 67.018 61.928 63.3025 61.2043L56.953 59.9323C50.7107 58.6696 46.4231 57.3034 44.0903 55.8265C40.1342 53.3545 38.1593 49.4905 38.1593 44.2326C38.1593 39.4345 40.0938 35.4505 43.9589 32.277C47.824 29.1016 53.5064 27.5157 61 27.5157C67.2585 27.5157 72.5912 29.0111 77.0142 32.0037C81.4291 34.9963 83.7458 39.3403 83.9641 45.0339H72.1829C71.9666 41.8123 70.3898 39.5231 67.4526 38.1643C65.4938 37.269 63.0579 36.8185 60.149 36.8185C56.9105 36.8185 54.3291 37.4 52.3986 38.5631C50.4681 39.7262 49.4998 41.349 49.4998 43.4333C49.4998 45.3477 50.4519 46.7766 52.3582 47.72C53.5791 48.3514 56.1767 49.0899 60.151 49.9373L70.4444 52.1545C74.9523 53.1219 78.3363 54.4197 80.5882 56.0406C84.0833 58.5606 85.8319 62.2086 85.8319 66.9791C85.8319 71.8733 83.7639 75.9403 79.6179 79.1748Z" fill="white"/>
</svg>
