<svg width="35" height="33" viewBox="0 0 35 33" fill="none" xmlns="http://www.w3.org/2000/svg">
<path d="M13.125 10.567C13.125 11.5012 12.7793 12.3971 12.1639 13.0577C11.5486 13.7182 10.714 14.0893 9.84375 14.0893C8.97351 14.0893 8.13891 13.7182 7.52356 13.0577C6.9082 12.3971 6.5625 11.5012 6.5625 10.567C6.5625 9.63282 6.9082 8.7369 7.52356 8.07634C8.13891 7.41578 8.97351 7.04468 9.84375 7.04468C10.714 7.04468 11.5486 7.41578 12.1639 8.07634C12.7793 8.7369 13.125 9.63282 13.125 10.567Z" fill="black"/>
<path d="M4.375 0C3.21468 0 2.10188 0.494801 1.28141 1.37555C0.460936 2.2563 0 3.45086 0 4.69643V28.1786C0 29.4241 0.460936 30.6187 1.28141 31.4994C2.10188 32.3802 3.21468 32.875 4.375 32.875H30.625C31.7853 32.875 32.8981 32.3802 33.7186 31.4994C34.5391 30.6187 35 29.4241 35 28.1786V4.69643C35 3.45086 34.5391 2.2563 33.7186 1.37555C32.8981 0.494801 31.7853 0 30.625 0H4.375ZM30.625 2.34821C31.2052 2.34821 31.7616 2.59561 32.1718 3.03599C32.582 3.47637 32.8125 4.07364 32.8125 4.69643V19.9598L24.5503 15.3878C24.3452 15.2775 24.1129 15.2393 23.8864 15.2785C23.6599 15.3177 23.4506 15.4323 23.2881 15.6062L15.1725 24.3181L9.35375 20.1571C9.14366 20.0069 8.89167 19.9394 8.64049 19.9659C8.38931 19.9925 8.15442 20.1114 7.97563 20.3027L2.1875 25.8304V4.69643C2.1875 4.07364 2.41797 3.47637 2.8282 3.03599C3.23844 2.59561 3.79484 2.34821 4.375 2.34821H30.625Z" fill="black"/>
<path d="M22 23.75H26.0625V20H30.9375V23.75H35V28.25H30.9375V32H26.0625V28.25H22V23.75ZM27.6875 26.75V30.5H29.3125V26.75H33.375V25.25H29.3125V21.5H27.6875V25.25H23.625V26.75H27.6875Z" fill="#FDFDFD"/>
</svg>
