<svg width="30" height="29" viewBox="0 0 30 29" fill="none" xmlns="http://www.w3.org/2000/svg">
<path d="M14.925 22.6667C15.45 22.6667 15.894 22.4952 16.257 22.1524C16.62 21.8096 16.801 21.3907 16.8 20.8958C16.8 20.4 16.619 19.9807 16.257 19.6378C15.895 19.295 15.451 19.1241 14.925 19.125C14.4 19.125 13.9565 19.2964 13.5945 19.6392C13.2325 19.9821 13.051 20.4009 13.05 20.8958C13.05 21.3917 13.2315 21.811 13.5945 22.1538C13.9575 22.4967 14.401 22.6676 14.925 22.6667ZM13.575 17.2125H16.35C16.35 16.4333 16.444 15.8194 16.632 15.3708C16.82 14.9222 17.351 14.3083 18.225 13.5292C18.875 12.9153 19.3875 12.3307 19.7625 11.7753C20.1375 11.22 20.325 10.5532 20.325 9.775C20.325 8.45278 19.8125 7.4375 18.7875 6.72917C17.7625 6.02083 16.55 5.66667 15.15 5.66667C13.725 5.66667 12.5685 6.02083 11.6805 6.72917C10.7925 7.4375 10.174 8.2875 9.825 9.27917L12.3 10.2C12.425 9.775 12.7065 9.31458 13.1445 8.81875C13.5825 8.32292 14.251 8.075 15.15 8.075C15.95 8.075 16.55 8.28183 16.95 8.6955C17.35 9.10917 17.55 9.56345 17.55 10.0583C17.55 10.5306 17.4 10.9735 17.1 11.3872C16.8 11.8008 16.425 12.1843 15.975 12.5375C14.875 13.4583 14.2 14.1549 13.95 14.6271C13.7 15.0993 13.575 15.9611 13.575 17.2125ZM15 28.3333C12.925 28.3333 10.975 27.9612 9.15 27.217C7.325 26.4728 5.7375 25.4636 4.3875 24.1896C3.0375 22.9146 1.969 21.4153 1.182 19.6917C0.395 17.9681 0.001 16.1264 0 14.1667C0 12.2069 0.394 10.3653 1.182 8.64167C1.97 6.91806 3.0385 5.41875 4.3875 4.14375C5.7375 2.86875 7.325 1.85961 9.15 1.11633C10.975 0.373056 12.925 0.000944444 15 0C17.075 0 19.025 0.372111 20.85 1.11633C22.675 1.86056 24.2625 2.86969 25.6125 4.14375C26.9625 5.41875 28.0315 6.91806 28.8195 8.64167C29.6075 10.3653 30.001 12.2069 30 14.1667C30 16.1264 29.606 17.9681 28.818 19.6917C28.03 21.4153 26.9615 22.9146 25.6125 24.1896C24.2625 25.4646 22.675 26.4742 20.85 27.2184C19.025 27.9626 17.075 28.3343 15 28.3333ZM15 25.5C18.35 25.5 21.1875 24.4021 23.5125 22.2062C25.8375 20.0104 27 17.3306 27 14.1667C27 11.0028 25.8375 8.32292 23.5125 6.12708C21.1875 3.93125 18.35 2.83333 15 2.83333C11.65 2.83333 8.8125 3.93125 6.4875 6.12708C4.1625 8.32292 3 11.0028 3 14.1667C3 17.3306 4.1625 20.0104 6.4875 22.2062C8.8125 24.4021 11.65 25.5 15 25.5Z" fill="white"/>
</svg>
