<svg width="150" height="150" viewBox="0 0 150 150" fill="none" xmlns="http://www.w3.org/2000/svg">
<g clip-path="url(#clip0_15_30)">
<path d="M122.484 130.91C122.484 130.91 121.09 79.1484 148.875 68.9297C148.875 68.9297 139.535 77.3789 132.305 91.8516C125.285 105.891 124.254 113.555 122.484 130.91Z" fill="#7CB342"/>
<path d="M121.383 134.953C121.383 134.953 111.141 66.5625 148.863 52.6875C148.863 52.6875 134.25 62.5078 128.894 78.5742C122.355 98.2148 121.348 113.543 121.383 134.953Z" fill="#7CB342"/>
<path d="M19.4414 134.238C11.8125 108.059 11.8125 54.3867 11.8125 54.3867L110.25 54C110.25 54 110.25 102.621 104.531 133.91L19.4414 134.238Z" fill="#6D4C41"/>
<path d="M61.0312 101.52C88.214 101.52 110.25 80.7952 110.25 55.2305C110.25 29.6657 88.214 8.94141 61.0312 8.94141C33.8485 8.94141 11.8125 29.6657 11.8125 55.2305C11.8125 80.7952 33.8485 101.52 61.0312 101.52Z" fill="#6D4C41"/>
<path d="M9.51562 141.902V153.492H111.633V141.902C111.633 124.125 86.5664 115.102 60.9609 115.137C35.5078 115.172 9.51562 123.082 9.51562 141.902Z" fill="#558B2F"/>
<path d="M61.0313 108.105H50.3906V119.988C50.3906 125.367 54.7266 129.715 60.0703 129.715H62.0039C67.3477 129.715 71.6836 125.355 71.6836 119.988V108.105H61.0313Z" fill="#E49500"/>
<path d="M60.9023 17.0977C32.3672 17.0977 24.9023 39.2109 24.9023 70.2891C24.9023 101.355 47.0391 110.836 60.9023 110.836C74.7656 110.836 96.9023 101.355 96.9023 70.2891C96.9023 39.2109 89.4375 17.0977 60.9023 17.0977Z" fill="#FBC11B"/>
<path d="M71.6602 41.5312C67.875 45.1758 49.0547 62.1328 23.1211 66.5508V31.793C23.1211 31.793 34.3125 9.58594 61.1719 9.58594C88.0312 9.58594 99.2227 32.3555 99.2227 32.3555V66.5625C99.2227 66.5625 81.6211 59.8125 72.7852 41.7539C72.7392 41.6515 72.6694 41.5615 72.5815 41.4916C72.4936 41.4217 72.3903 41.3738 72.2802 41.352C72.17 41.3302 72.0562 41.3351 71.9484 41.3663C71.8405 41.3975 71.7417 41.454 71.6602 41.5312Z" fill="#6D4C41"/>
<path d="M49.8633 115.664L60.4453 129.715L50.4609 136.922L45.832 116.121L49.8633 115.664ZM71.1562 115.617L60.4687 129.715L70.5469 136.922L75.1758 116.074L71.1562 115.617Z" fill="#AED581"/>
<path d="M71.8477 92.7305H50.2148C48.9727 92.7305 48.4453 93.5625 49.2656 94.8164C50.4141 96.5625 54.668 99.9258 61.0313 99.9258C67.3945 99.9258 71.6484 96.5625 72.7969 94.8164C73.6172 93.5625 73.0781 92.7305 71.8477 92.7305ZM48.7266 72.3516C48.7266 75.6797 46.5 78.3867 43.7344 78.3867C40.9805 78.3867 38.7305 75.6914 38.7305 72.3516C38.7305 69.0117 40.9688 66.3164 43.7344 66.3164C46.5 66.3164 48.7266 69.0117 48.7266 72.3516ZM73.3242 72.3516C73.3242 75.6797 75.5508 78.3867 78.3281 78.3867C81.082 78.3867 83.3203 75.6914 83.3203 72.3516C83.3203 69.0117 81.082 66.3164 78.3281 66.3164C75.5625 66.3164 73.3242 69.0117 73.3242 72.3516Z" fill="#444444"/>
<path d="M66.1875 83.5313C64.3477 84.0469 62.4375 84.3047 60.9609 84.3047C59.4844 84.3047 57.5742 84.0469 55.7344 83.5313C54.9492 83.3086 54.6328 84.0586 54.9258 84.5508C55.5117 85.582 57.8555 87.6445 60.9609 87.6445C64.0664 87.6445 66.4102 85.5703 66.9961 84.5508C67.2891 84.0586 66.9727 83.3086 66.1875 83.5313Z" fill="#E49500"/>
<path d="M120.938 131.086C120.352 131.086 119.848 130.629 119.813 130.043L119.133 121.16C119.109 120.855 119.203 120.563 119.402 120.34C119.602 120.117 119.871 119.977 120.176 119.953H120.188C120.856 119.953 121.348 120.41 121.395 120.996L122.074 129.879C122.121 130.5 121.652 131.051 121.031 131.098C121.008 131.086 120.961 131.086 120.938 131.086Z" fill="#FFB300"/>
<path d="M120.258 120.527C120.539 120.527 120.785 120.75 120.809 121.031L121.488 129.914C121.512 130.219 121.289 130.477 120.984 130.5H120.937C120.656 130.5 120.41 130.277 120.387 129.996L119.707 121.113C119.684 120.809 119.906 120.551 120.211 120.527H120.258ZM120.258 119.355H120.129C119.18 119.426 118.477 120.258 118.547 121.207L119.227 130.09C119.297 130.98 120.047 131.672 120.937 131.672H121.066C122.016 131.602 122.719 130.77 122.648 129.82L121.969 120.937C121.933 120.507 121.738 120.106 121.421 119.813C121.105 119.52 120.689 119.357 120.258 119.355Z" fill="white"/>
<path d="M127.078 66C126.914 66 126.75 65.9297 126.633 65.8008C126.375 65.5078 125.789 62.8125 125.93 61.6055C126.082 60.1523 126.961 58.2656 128.121 56.9297C129.586 55.1953 132.375 53.2852 134.836 53.0039H134.906C135.117 53.0039 135.328 53.1211 135.422 53.3203C136.055 54.5391 135.961 56.2383 135.141 58.3711C134.355 60.375 132.609 62.1445 131.004 63.6211C130.172 64.3594 128.191 65.4727 127.547 65.8359L127.395 65.918C127.346 65.9532 127.29 65.9772 127.23 65.9883C127.184 66 127.137 66 127.078 66Z" fill="#FFB300"/>
<path d="M134.906 53.5898C135.574 54.8672 135.152 56.6953 134.59 58.1602C133.875 60 132.234 61.6992 130.605 63.1875C129.68 64.0195 127.066 65.4258 127.066 65.4258C127.055 65.4258 126.351 62.9531 126.504 61.6758C126.644 60.2813 127.5 58.5234 128.555 57.3164C129.949 55.6992 132.586 53.8594 134.906 53.5898ZM134.918 52.418C134.871 52.418 134.824 52.418 134.777 52.4297C132.047 52.7578 129.187 54.7969 127.687 56.5664C126.445 57.9961 125.531 59.9531 125.367 61.5586C125.226 62.6953 125.777 65.707 126.211 66.1992C126.352 66.3605 126.535 66.4797 126.74 66.5438C126.945 66.6079 127.163 66.6144 127.371 66.5625C127.488 66.5273 127.605 66.4805 127.699 66.4219L127.828 66.3516C129.644 65.332 130.805 64.582 131.402 64.0664C133.066 62.543 134.871 60.7148 135.703 58.5938C136.594 56.2852 136.676 54.4219 135.961 53.0508C135.75 52.6523 135.34 52.418 134.918 52.418Z" fill="white"/>
<path d="M119.356 109.98C118.981 109.98 115.969 108.422 114.961 107.578C113.625 106.488 112.301 104.648 111.668 103.02C110.789 100.816 110.555 97.6289 111.82 95.8125C111.938 95.6484 112.113 95.5664 112.301 95.5664C112.359 95.5664 112.406 95.5781 112.465 95.5898C114.398 96.1406 116.121 97.8984 117.211 99.2812C118.699 101.168 119.379 103.5 119.859 105.551C120.059 106.465 120 108.07 119.953 109.195L119.941 109.453C119.918 109.746 119.672 109.98 119.356 109.98Z" fill="#FFB300"/>
<path d="M112.301 96.1523C114.035 96.6445 115.641 98.2383 116.754 99.6445C118.149 101.414 118.817 103.641 119.285 105.68C119.531 106.828 119.344 109.395 119.356 109.395C119.344 109.395 116.508 108.105 115.336 107.133C114.047 106.078 112.793 104.32 112.207 102.82C111.41 100.816 111.141 97.8281 112.301 96.1523ZM112.301 94.9805C111.926 94.9805 111.563 95.1563 111.34 95.4844C109.887 97.5703 110.203 100.969 111.117 103.254C111.785 104.965 113.18 106.887 114.586 108.047C115.442 108.75 118.676 110.578 119.344 110.578C119.965 110.578 120.481 110.098 120.516 109.477V109.395L120.527 109.23C120.586 107.977 120.633 106.418 120.422 105.445C119.93 103.312 119.227 100.898 117.668 98.9297C116.52 97.4766 114.703 95.6367 112.617 95.0391C112.518 94.995 112.409 94.9749 112.301 94.9805Z" fill="white"/>
<path d="M121.934 109.992C121.09 109.992 120.105 106.066 120.094 105.727C119.93 103.16 120.457 101.039 121.617 99.6094C122.93 97.9922 124.687 96.9492 126.328 96.8086H126.375C126.574 96.8086 126.762 96.9023 126.867 97.0781C128.098 98.9648 128.074 101.789 127.687 103.641C127.348 105.152 126.504 106.758 125.543 107.742C124.805 108.48 123.176 109.406 122.273 109.898C122.156 109.957 122.051 109.992 121.934 109.992Z" fill="#FFB300"/>
<path d="M126.363 97.4062C127.488 99.1406 127.477 101.766 127.09 103.523C126.785 104.848 126.035 106.383 125.098 107.332C124.242 108.187 121.922 109.406 121.922 109.406C121.91 109.406 120.715 106.852 120.668 105.703C120.539 103.687 120.809 101.508 122.063 99.9844C123.047 98.7656 124.629 97.5469 126.363 97.4062ZM126.363 96.2344H126.27C124.477 96.375 122.555 97.5117 121.148 99.2461C119.895 100.781 119.32 103.043 119.496 105.773C119.52 106.359 119.754 107.238 120.211 108.398C120.844 110.016 121.055 110.566 121.922 110.566C122.133 110.566 122.332 110.508 122.496 110.414C123.668 109.781 125.18 108.891 125.93 108.152C126.973 107.098 127.875 105.375 128.238 103.77C128.684 101.707 128.672 98.8008 127.348 96.75C127.137 96.4336 126.762 96.2344 126.363 96.2344Z" fill="white"/>
<path d="M119.602 120.082C119.227 120.082 116.531 118.652 115.711 117.961C114.527 117 113.356 115.371 112.793 113.941C112.031 112.055 111.762 109.254 112.934 107.555C113.051 107.391 113.227 107.309 113.414 107.309C113.473 107.309 113.52 107.32 113.578 107.332C115.301 107.824 116.813 109.371 117.785 110.59C119.098 112.254 119.695 114.316 120.117 116.121C120.293 116.941 120.246 118.348 120.199 119.344L120.188 119.543C120.176 119.836 119.918 120.082 119.602 120.082Z" fill="#FFB300"/>
<path d="M113.426 107.883C114.949 108.316 116.355 109.711 117.328 110.941C118.559 112.5 119.133 114.445 119.543 116.238C119.754 117.246 119.59 119.496 119.602 119.496C119.59 119.496 117.094 118.359 116.074 117.516C114.937 116.59 113.848 115.055 113.332 113.73C112.641 111.973 112.395 109.348 113.426 107.883ZM113.426 106.711C113.051 106.711 112.687 106.887 112.465 107.215C111.152 109.09 111.434 112.125 112.254 114.164C112.852 115.699 114.07 117.375 115.348 118.418C116.051 119.004 118.957 120.668 119.613 120.668C119.914 120.668 120.204 120.553 120.422 120.346C120.64 120.138 120.77 119.855 120.785 119.555V119.473L120.797 119.332C120.844 118.219 120.891 116.848 120.703 115.98C120.27 114.094 119.637 111.961 118.254 110.203C117.234 108.914 115.617 107.273 113.754 106.746C113.637 106.723 113.531 106.711 113.426 106.711Z" fill="white"/>
<path d="M121.922 120.094C121.066 120.094 120.246 116.449 120.234 116.285C120.082 114.023 120.551 112.137 121.582 110.871C122.742 109.441 124.313 108.504 125.766 108.387H125.813C126.012 108.387 126.199 108.48 126.305 108.656C127.395 110.332 127.383 112.828 127.031 114.469C126.727 115.816 125.977 117.234 125.133 118.102C124.488 118.746 123.047 119.566 122.25 120C122.156 120.059 122.039 120.094 121.922 120.094Z" fill="#FFB300"/>
<path d="M125.813 108.984C126.797 110.496 126.785 112.805 126.457 114.352C126.199 115.512 125.531 116.859 124.711 117.691C123.961 118.441 121.922 119.508 121.922 119.508C121.91 119.508 120.867 117.27 120.82 116.262C120.703 114.492 120.949 112.582 122.039 111.246C122.906 110.18 124.301 109.102 125.813 108.984ZM125.813 107.813H125.719C124.102 107.941 122.391 108.949 121.125 110.508C120 111.891 119.484 113.906 119.648 116.332C119.648 116.355 120.328 120.68 121.922 120.68C122.133 120.68 122.332 120.621 122.496 120.527C123.539 119.965 124.875 119.18 125.531 118.523C126.457 117.574 127.266 116.039 127.594 114.609C127.992 112.77 127.981 110.168 126.785 108.34C126.681 108.176 126.538 108.042 126.367 107.95C126.197 107.858 126.006 107.81 125.813 107.813Z" fill="white"/>
<path d="M118.055 98.2617C117.609 98.2617 114.797 96.3164 114.047 95.5078C112.91 94.3008 111.926 92.3672 111.598 90.6914C111.129 88.4414 111.504 85.2891 113.109 83.6133C113.227 83.4961 113.379 83.4375 113.531 83.4375C113.602 83.4375 113.672 83.4492 113.742 83.4727C115.617 84.1758 117.012 86.0625 117.855 87.5156C119.004 89.5195 119.238 91.8984 119.32 93.9609C119.332 94.8984 118.969 96.4922 118.687 97.6172L118.652 97.7813C118.594 98.0508 118.348 98.2617 118.055 98.2617Z" fill="#FFB300"/>
<path d="M113.52 84.0117C115.172 84.6328 116.484 86.332 117.34 87.7969C118.406 89.6602 118.652 91.9102 118.723 93.9727C118.746 95.1328 118.043 97.6758 118.066 97.6758C118.055 97.6758 115.453 96.1641 114.481 95.1094C113.391 93.9609 112.477 92.1211 112.172 90.5742C111.75 88.5352 112.031 85.5586 113.52 84.0117ZM113.52 82.8398C113.203 82.8398 112.898 82.9688 112.676 83.2031C110.848 85.1133 110.543 88.4883 111.023 90.8203C111.375 92.6133 112.395 94.6172 113.625 95.918C114.246 96.5859 117.305 98.8594 118.066 98.8594C118.629 98.8594 119.121 98.4492 119.215 97.8984L119.25 97.7461C119.531 96.5977 119.906 94.9453 119.895 93.9609C119.813 91.8047 119.566 89.332 118.359 87.2227C117.457 85.6758 115.969 83.6836 113.941 82.9219C113.808 82.8666 113.664 82.8387 113.52 82.8398Z" fill="white"/>
<path d="M120.633 98.4375C120.469 98.4375 120.305 98.3672 120.188 98.2383C119.918 97.9219 119.367 95.0273 119.52 93.9844C119.848 91.4297 120.773 89.3906 122.203 88.0898C122.801 87.5391 124.957 85.7344 127.418 85.7227C127.652 85.7227 127.863 85.8633 127.957 86.0625C128.848 88.043 128.285 90.832 127.523 92.625C126.891 94.0898 125.742 95.6016 124.594 96.4922C123.773 97.1133 122.145 97.8516 120.926 98.3555C120.879 98.3906 120.82 98.4023 120.75 98.4258C120.715 98.4375 120.68 98.4375 120.633 98.4375Z" fill="#FFB300"/>
<path d="M127.418 86.3086C128.226 88.1016 127.711 90.6914 126.984 92.4141C126.422 93.7031 125.367 95.168 124.23 96.0469C123.199 96.832 120.621 97.8633 120.633 97.8633C120.621 97.8633 119.93 95.2148 120.105 94.0781C120.363 92.0625 121.066 89.9414 122.613 88.5234C123.82 87.3867 125.648 86.3086 127.418 86.3086ZM127.418 85.1367C125.613 85.1367 123.516 86.0859 121.805 87.6563C120.281 89.0508 119.285 91.2187 118.933 93.9141C118.769 94.9805 119.308 98.1094 119.742 98.6133C119.965 98.8711 120.293 99.0234 120.633 99.0234C120.703 99.0234 120.785 99.0117 120.867 99C120.949 98.9883 121.031 98.9531 121.101 98.9297C122.402 98.3906 124.078 97.6406 124.945 96.9727C126.176 96.0234 127.394 94.418 128.062 92.8711C128.906 90.8672 129.457 87.9727 128.484 85.8281C128.393 85.6213 128.244 85.4457 128.055 85.3228C127.865 85.2 127.644 85.1353 127.418 85.1367Z" fill="white"/>
<path d="M118.934 87.0703C118.43 87.0703 115.84 84.7617 115.313 84.0234C114.375 82.7461 113.719 80.7539 113.684 79.0781C113.613 76.8398 114.527 73.793 116.414 72.293C116.52 72.2109 116.649 72.1641 116.777 72.1641C116.859 72.1641 116.953 72.1875 117.024 72.2227C118.805 73.0664 119.895 75.0234 120.492 76.5234C121.313 78.5859 121.125 80.9414 120.832 82.9805C120.68 83.8945 120.035 85.4414 119.555 86.5195L119.484 86.6953C119.402 86.9063 119.18 87.0703 118.934 87.0703Z" fill="#FFB300"/>
<path d="M116.777 72.75C118.336 73.4883 119.355 75.2344 119.953 76.7344C120.703 78.6328 120.551 80.8477 120.258 82.8867C120.07 84.0234 118.922 86.4727 118.934 86.4844C118.922 86.4844 116.578 84.7969 115.781 83.6836C114.891 82.4648 114.293 80.5898 114.269 79.0664C114.199 77.0273 115.008 74.1445 116.777 72.75ZM116.777 71.5781C116.519 71.5781 116.262 71.6602 116.051 71.8359C113.918 73.5234 113.027 76.7813 113.098 79.1016C113.133 80.9063 113.812 82.9805 114.844 84.375C115.242 84.9375 118.066 87.6563 118.934 87.6563C119.426 87.6563 119.859 87.3516 120.035 86.8945L120.094 86.7539C120.586 85.6406 121.254 84.0586 121.418 83.0742C121.723 80.9414 121.91 78.4922 121.043 76.3008C120.398 74.707 119.226 72.6094 117.269 71.6836C117.115 71.6128 116.947 71.5768 116.777 71.5781Z" fill="white"/>
<path d="M122.133 87.3984C121.945 87.3984 121.77 87.3047 121.652 87.1523C121.395 86.8008 121.383 83.8242 121.711 82.8633C122.496 80.3906 123.774 78.4688 125.426 77.3203C127.113 76.125 129.07 75.4102 130.641 75.4102C130.77 75.4102 130.91 75.4102 131.039 75.4219C131.285 75.4453 131.496 75.6094 131.567 75.8555C132.117 77.8594 131.109 80.4727 129.984 82.2539C129.094 83.625 127.688 85.0195 126.375 85.8047C125.332 86.4141 123.211 87.1055 122.344 87.3633C122.344 87.3633 122.32 87.375 122.309 87.375C122.251 87.3893 122.192 87.3972 122.133 87.3984Z" fill="#FFB300"/>
<path d="M130.652 75.9961C130.77 75.9961 130.887 75.9961 131.004 76.0078C131.496 77.8125 130.523 80.3086 129.492 81.9375C128.707 83.1562 127.371 84.5273 126.082 85.3008C124.898 85.9922 122.133 86.8125 122.133 86.8242C122.121 86.8242 121.898 84.1641 122.273 83.0625C122.895 81.1055 123.973 79.0664 125.766 77.8125C127.102 76.8516 128.965 75.9961 130.652 75.9961ZM130.652 74.8242C128.215 74.8242 125.953 76.2305 125.098 76.8398C123.328 78.082 121.992 80.0508 121.16 82.6992C120.879 83.5313 120.715 86.8477 121.184 87.5039C121.328 87.7065 121.533 87.8579 121.769 87.9359C122.005 88.0139 122.26 88.0144 122.496 87.9375C123.645 87.5859 125.637 86.9297 126.68 86.3203C128.062 85.4883 129.551 84.0234 130.477 82.5938C131.672 80.6953 132.727 77.9063 132.129 75.7148C132.065 75.4816 131.931 75.2739 131.744 75.1206C131.557 74.9673 131.327 74.876 131.086 74.8594C130.945 74.8242 130.805 74.8242 130.652 74.8242Z" fill="white"/>
<path d="M121.887 75.8555C121.336 75.8555 119.098 73.3125 118.711 72.5742C117.984 71.25 117.68 69.2461 117.949 67.6055C118.277 65.4492 119.73 62.5781 121.875 61.3125C121.963 61.258 122.064 61.2292 122.168 61.2292C122.272 61.2292 122.373 61.258 122.461 61.3125C124.125 62.2852 124.887 64.2773 125.227 65.7891C125.684 67.8516 125.074 70.125 124.418 72.082C124.102 72.9609 123.176 74.4023 122.496 75.4219L122.391 75.5742C122.309 75.7383 122.109 75.8555 121.887 75.8555C121.898 75.8555 121.898 75.8555 121.887 75.8555Z" fill="#FFB300"/>
<path d="M122.18 61.8164C123.609 62.6484 124.324 64.418 124.664 65.9063C125.086 67.793 124.523 69.9375 123.867 71.8828C123.48 72.9727 121.875 75.2695 121.887 75.2695C121.875 75.2695 119.824 73.4414 119.227 72.293C118.547 71.0391 118.289 69.1758 118.523 67.6875C118.828 65.7305 120.152 63.0117 122.18 61.8164ZM122.18 60.6445C121.969 60.6445 121.77 60.7031 121.582 60.8086C119.168 62.2383 117.715 65.2969 117.375 67.5234C117.082 69.293 117.41 71.4023 118.207 72.8555C118.418 73.2656 120.879 76.4414 121.898 76.4414C122.32 76.4414 122.707 76.2187 122.906 75.8672L123 75.7266C123.691 74.6836 124.652 73.1953 124.98 72.2695C125.672 70.2187 126.293 67.8516 125.813 65.6484C125.449 64.0195 124.617 61.8633 122.777 60.7969C122.59 60.6914 122.379 60.6445 122.18 60.6445Z" fill="white"/>
<path d="M125.051 76.3359C124.852 76.3359 124.652 76.2305 124.547 76.043C124.289 75.5977 124.91 72.6328 125.356 71.8125C126.598 69.457 128.168 67.7578 130.043 66.7734C130.852 66.3398 132.973 65.3438 135.106 65.3438C135.41 65.3438 135.703 65.3672 135.984 65.4023C136.254 65.4375 136.453 65.6602 136.477 65.918C136.676 67.8867 135.211 70.3359 133.758 71.9648C132.621 73.2188 130.969 74.4492 129.527 75.1055C128.379 75.6211 126.129 76.1133 125.215 76.3008H125.203C125.156 76.3359 125.098 76.3359 125.051 76.3359Z" fill="#FFB300"/>
<path d="M135.105 65.9297C135.375 65.9297 135.644 65.9531 135.902 65.9883C136.078 67.7578 134.66 70.0898 133.336 71.5898C132.328 72.7148 130.746 73.9336 129.305 74.5781C127.992 75.1641 125.062 75.75 125.062 75.75C125.051 75.75 125.309 73.1484 125.883 72.0938C126.855 70.2422 128.297 68.3555 130.336 67.2891C131.695 66.5625 133.5 65.9297 135.105 65.9297ZM135.105 64.7578C132.844 64.7578 130.617 65.8125 129.773 66.2578C127.793 67.3008 126.129 69.082 124.84 71.5547C124.488 72.1875 123.598 75.5742 124.055 76.3477C124.266 76.7109 124.652 76.9219 125.062 76.9219C125.144 76.9219 125.238 76.9102 125.32 76.8867C126.539 76.6289 128.648 76.1484 129.785 75.6445C131.297 74.9531 133.031 73.6758 134.203 72.3633C135.738 70.6289 137.285 68.0156 137.074 65.8594C137.016 65.332 136.617 64.8984 136.09 64.8164C135.762 64.7813 135.434 64.7578 135.105 64.7578Z" fill="white"/>
<path d="M119.367 126.105C121.125 126.539 122.25 127.781 123.035 129.328C124.992 128.977 128.367 128.625 129.352 128.648C130.512 128.684 132.047 128.812 132.305 131.191C132.469 132.738 131.883 134.016 129.902 134.203C129.164 134.273 128.402 134.32 127.652 134.355L127.922 135.223C128.613 135.211 129.234 135.188 129.715 135.188C131.719 135.164 132.855 136.23 132.855 138.352C132.855 140.215 131.25 141.094 130.078 141.164C129.457 141.199 127.723 141.105 126.012 140.941L125.836 141.305L125.766 141.41C126.844 141.574 127.875 141.75 128.602 141.879C130.559 142.23 131.496 143.531 131.273 145.078C131.004 146.953 129.328 147.469 128.168 147.434C127.301 147.41 124.254 146.93 122.215 146.496L121.816 147.07C121.957 147.094 122.109 147.117 122.273 147.141C122.297 147.141 122.32 147.152 122.355 147.152L122.766 147.223C122.801 147.223 122.824 147.234 122.859 147.234C123.023 147.258 123.188 147.293 123.352 147.316H123.375C123.551 147.34 123.727 147.375 123.902 147.41C123.938 147.41 123.973 147.422 123.996 147.422L124.406 147.492C124.465 147.504 124.512 147.516 124.57 147.516C124.688 147.539 124.805 147.563 124.91 147.574L125.086 147.609C125.203 147.633 125.309 147.656 125.414 147.668L125.578 147.703C125.73 147.738 125.895 147.762 126.035 147.797C127.828 148.172 128.508 148.98 128.285 150.398C127.98 152.391 125.977 152.836 124.91 152.73C123.844 152.637 120.258 151.898 119.086 151.383L118.875 151.277L118.465 151.863C113.191 151.512 109.406 149.309 109.406 149.309C106.313 147.574 105.797 146.238 105.281 144.117C104.695 141.703 104.836 138.844 104.859 138.398C105.047 133.594 106.113 130.488 109.992 127.91C110.93 127.289 112.301 126.199 115.336 125.848C116.508 125.73 118.195 125.813 119.367 126.105Z" fill="#FBC11B"/>
<path d="M123.75 134.086C123.75 134.086 123.797 131.672 123.035 129.328L123.879 129.176C123.879 129.176 124.476 130.84 124.687 133.301C124.723 133.699 124.734 134.062 124.734 134.414L125.484 134.367L130.512 134.086C130.512 134.086 130.137 134.156 130.137 134.719C130.137 134.953 130.277 135.105 130.383 135.199C130.172 135.176 129.937 135.152 129.703 135.164L124.711 135.293C124.699 135.434 124.699 135.574 124.687 135.727C124.57 137.766 124.09 139.723 122.953 140.473C126.726 140.918 130.078 141.141 130.078 141.141C129.422 141.41 129.703 142.207 129.703 142.207C127.16 141.516 120.996 141.152 120.996 141.152C118.394 140.93 118.043 142.687 118.043 142.687C117.562 144.809 119.871 145.781 119.871 145.781C120.176 145.957 122.93 146.508 124.898 146.883L126.867 147.246L127.418 147.352C127.359 147.34 127.125 147.328 127.031 147.715C126.984 147.902 127.031 148.031 127.066 148.113C126.773 147.984 126.422 147.867 126.012 147.785C125.086 147.598 122.285 147.141 122.074 147.105L121.371 147.012C119.051 146.707 118.488 147.117 118.488 147.117C117.199 147.797 117.574 149.437 117.574 149.437C117.855 151.02 119.601 151.512 119.601 151.512C120.269 151.711 123.809 152.566 123.809 152.566L118.453 151.863C118.078 151.746 117.937 151.57 117.726 151.406C115.84 149.859 116.637 147.762 116.637 147.762C116.93 146.953 117.539 146.59 117.539 146.59C117.902 146.367 118.324 146.25 118.758 146.203C116.566 145.043 116.918 142.699 116.918 142.699C117.199 141.258 118.242 140.648 119.062 140.391C118.992 140.332 118.91 140.273 118.84 140.203C118.84 140.203 117.434 139.277 117.949 135.305C118.125 133.969 118.101 133.781 117.961 132.937C117.961 132.937 117.457 131.133 115.957 131.707C115.957 131.707 115.453 131.836 114.668 132.457C114.668 132.457 114.035 132.949 114.047 132.176C114.047 131.941 114.211 131.52 114.527 131.156C114.527 131.156 114.855 130.77 115.664 130.547C115.664 130.547 117.762 129.715 118.805 131.812C119.355 132.914 119.25 133.641 119.074 134.766C119.074 134.766 118.746 138.316 119.672 139.453C119.672 139.453 120.586 140.496 122.051 139.852C122.062 139.875 124.055 138.773 123.75 134.086Z" fill="#E49500"/>
<path d="M129.949 141.152H130.078C131.238 141.082 132.844 140.203 132.855 138.34C132.855 136.301 131.812 135.246 129.949 135.188L129.867 134.754L130.477 134.719C131.508 134.473 132.047 133.852 132.234 133.055C132.305 132.938 132.328 131.602 132.316 131.449C132.223 130.195 131.766 129.609 131.766 129.609C131.297 128.414 128.414 128.684 128.414 128.684L123.152 129.387C122.965 129.328 122.777 129.27 122.602 129.211C121.84 128.016 120.82 127.09 119.355 126.727C118.184 126.445 116.508 126.352 115.324 126.492C112.289 126.844 110.918 127.934 109.98 128.555C109.781 128.684 109.617 128.824 109.441 128.965C110.508 130.898 112.125 132.926 114.105 132.586C114.234 132.293 114.445 131.988 114.539 131.883C114.961 131.426 115.547 131.098 116.168 131.027C117.141 130.91 118.148 131.391 118.676 132.211C119.496 133.477 118.547 135.152 118.488 136.664C118.465 137.379 119.051 138.07 119.191 138.773C119.32 139.441 119.578 140.145 120.152 140.508C120.187 140.531 120.246 140.531 120.281 140.555C120.246 140.672 120.164 140.906 120.07 141.211C119.695 141.234 119.332 141.305 119.016 141.48C118.289 141.879 117.914 142.758 118.008 143.566C118.078 144.164 118.395 144.715 118.84 145.125C118.559 146.039 118.324 146.859 118.207 147.34C117.398 147.961 117.316 149.285 117.879 150.164C118.465 151.09 119.543 151.594 120.609 151.863C121.676 152.133 122.777 152.227 123.82 152.578C123.762 152.566 123.715 152.566 123.656 152.555C124.184 152.648 124.629 152.719 124.91 152.742C125.965 152.836 127.98 152.391 128.285 150.41C128.461 149.273 128.039 148.535 126.949 148.09C126.867 147.797 126.727 147.469 126.645 147.223C126.844 147.258 127.055 147.305 127.254 147.34C127.641 147.387 127.969 147.422 128.168 147.422C129.328 147.457 131.016 146.941 131.273 145.066C131.449 143.824 130.875 142.758 129.633 142.195C129.176 142.102 128.707 142.031 128.25 141.949C128.438 141.645 128.625 141.34 128.812 141.047L129.949 141.152Z" fill="#FBC11B"/>
<path d="M130.465 135.223C130.301 135.012 130.266 134.672 130.266 134.672H130.23C129.809 134.637 124.758 134.426 124.758 134.426C124.734 132.797 124.066 130.852 123.609 129.293C123.305 129.258 122.941 129.293 122.625 129.188C123.023 130.723 123.762 132.516 123.809 134.086C123.844 135.141 123.773 136.184 123.551 137.215C123.375 138.047 123.094 138.891 122.484 139.488C121.875 140.086 120.879 140.332 120.164 139.875C119.59 139.512 119.344 138.809 119.203 138.141C119.062 137.437 119.004 136.723 119.039 136.02C119.098 134.508 119.508 132.855 118.699 131.59C118.172 130.77 117.152 130.289 116.191 130.406C115.57 130.477 114.984 130.805 114.562 131.262C114.363 131.484 113.59 132.586 114.387 132.609C114.609 132.609 114.809 132.457 114.984 132.316C115.523 131.883 116.203 131.484 116.871 131.684C117.691 131.93 118.008 132.926 118.043 133.781C118.09 134.953 117.844 136.113 117.844 137.273C117.844 138.445 118.16 139.699 119.062 140.437C117.844 140.707 116.941 141.914 116.906 143.168C116.871 144.422 117.656 145.617 118.746 146.227C117.727 146.25 116.836 147.07 116.566 148.055C116.297 149.039 116.602 150.117 117.223 150.926C117.492 151.277 117.82 151.582 118.219 151.77C118.301 151.805 118.394 151.828 118.488 151.852L118.863 151.312L118.734 151.488L118.477 151.852C118.746 151.934 119.039 151.98 119.32 152.027C119.484 152.051 119.648 152.074 119.824 152.086C121.102 152.25 122.379 152.414 123.656 152.566C123.715 152.578 123.762 152.578 123.82 152.59C122.777 152.238 121.676 152.145 120.609 151.875C119.543 151.605 118.477 151.102 117.879 150.176C117.293 149.25 117.398 147.832 118.324 147.258C118.887 146.906 119.578 146.93 120.234 146.977C121.277 147.047 122.309 147.176 123.34 147.34C123.621 147.387 123.902 147.434 124.172 147.48L124.383 147.516C124.441 147.527 124.488 147.539 124.547 147.539C124.664 147.563 124.781 147.586 124.887 147.598L125.062 147.633C125.18 147.656 125.285 147.68 125.391 147.691L125.555 147.727C125.707 147.762 125.871 147.785 126.012 147.82C126.328 147.891 126.586 147.973 126.832 148.055C126.902 148.078 126.984 148.09 127.055 148.113C126.891 147.844 127.09 147.434 127.394 147.387L127.23 147.352L121.5 146.227C120.75 146.074 119.977 145.922 119.332 145.535C118.629 145.113 118.09 144.387 117.984 143.566C117.879 142.746 118.266 141.867 118.992 141.48C119.543 141.176 120.199 141.188 120.832 141.199C123.773 141.293 126.715 141.633 129.609 142.207C129.633 142.207 129.668 142.219 129.691 142.219C129.504 141.855 129.691 141.34 130.066 141.176C130.019 141.176 129.973 141.164 129.937 141.164C127.617 140.953 125.297 140.73 122.977 140.52C124.394 139.277 124.605 137.18 124.711 135.305C124.711 135.293 130.23 135.223 130.465 135.223Z" fill="#E49500"/>
<path d="M27.2929 55.2305C27.2929 55.2305 26.8945 111.187 61.2539 111.187M95.6601 55.2305C95.6601 55.2305 96.0586 111.187 61.6992 111.187" stroke="#8D6E63" stroke-width="2" stroke-miterlimit="10" stroke-linecap="round" stroke-linejoin="round"/>
<path d="M62.2383 112.184C62.2383 112.184 61.0899 115.641 58.2188 117.141C55.3477 118.641 52.5 118.852 51.8555 117.621C51.211 116.391 53.004 114.164 55.875 112.664C58.7461 111.164 62.2383 112.184 62.2383 112.184Z" stroke="#8D6E63" stroke-width="2.758" stroke-miterlimit="10" stroke-linecap="round" stroke-linejoin="round"/>
<path d="M61.2539 111.832C61.2539 111.832 62.6836 115.43 65.5547 116.93C68.4258 118.43 70.9922 118.5 71.6367 117.27C72.2813 116.039 70.4883 113.813 67.6172 112.313C64.7461 110.813 61.2539 111.832 61.2539 111.832Z" stroke="#8D6E63" stroke-width="2.758" stroke-miterlimit="10" stroke-linecap="round" stroke-linejoin="round"/>
<path d="M121.84 32.1328C121.84 46.6406 94.5703 59.5078 60.9258 59.5078C27.2813 59.5078 0 46.6289 0 32.1328C0 17.6367 27.2695 7.34766 60.9141 7.34766C94.5586 7.34766 121.84 17.625 121.84 32.1328Z" fill="#FFEE58"/>
<path d="M33.1641 29.9414L40.6406 5.26172C41.5078 2.40234 44.2734 0.433594 47.4141 0.433594H74.332C77.4727 0.433594 80.2266 2.39062 81.1055 5.23828L88.6758 29.9414C88.6758 29.9414 88.6758 36.7617 60.9141 36.7617C33.1523 36.7617 33.1641 29.9414 33.1641 29.9414Z" fill="#FDD835"/>
</g>
<defs>
<clipPath id="clip0_15_30">
<rect width="150" height="150" fill="white"/>
</clipPath>
</defs>
</svg>
