<svg width="22" height="31" viewBox="0 0 22 31" fill="none" xmlns="http://www.w3.org/2000/svg">
<path d="M17.744 0H3.99405C3.62938 0 3.27964 0.204129 3.02178 0.567481C2.76391 0.930832 2.61905 1.42364 2.61905 1.9375V21.3125C2.61905 21.8264 2.76391 22.3192 3.02178 22.6825C3.27964 23.0459 3.62938 23.25 3.99405 23.25H17.744C18.1087 23.25 18.4585 23.0459 18.7163 22.6825C18.9742 22.3192 19.119 21.8264 19.119 21.3125V1.9375C19.119 1.42364 18.9742 0.930832 18.7163 0.567481C18.4585 0.204129 18.1087 0 17.744 0ZM15.6815 12.5938H11.5565V18.4062C11.5565 18.6632 11.4841 18.9096 11.3552 19.0913C11.2263 19.2729 11.0514 19.375 10.869 19.375C10.6867 19.375 10.5118 19.2729 10.3829 19.0913C10.254 18.9096 10.1815 18.6632 10.1815 18.4062V12.5938H6.05655C5.87421 12.5938 5.69934 12.4917 5.57041 12.31C5.44148 12.1283 5.36905 11.8819 5.36905 11.625C5.36905 11.3681 5.44148 11.1217 5.57041 10.94C5.69934 10.7583 5.87421 10.6562 6.05655 10.6562H10.1815V4.84375C10.1815 4.58682 10.254 4.34042 10.3829 4.15874C10.5118 3.97706 10.6867 3.875 10.869 3.875C11.0514 3.875 11.2263 3.97706 11.3552 4.15874C11.4841 4.34042 11.5565 4.58682 11.5565 4.84375V10.6562H15.6815C15.8639 10.6562 16.0388 10.7583 16.1677 10.94C16.2966 11.1217 16.369 11.3681 16.369 11.625C16.369 11.8819 16.2966 12.1283 16.1677 12.31C16.0388 12.4917 15.8639 12.5938 15.6815 12.5938Z" fill="black"/>
</svg>
