<svg width="42" height="42" viewBox="0 0 42 42" fill="none" xmlns="http://www.w3.org/2000/svg">
<path d="M33.875 0H7.625C6.92881 0 6.26113 0.276562 5.76884 0.768845C5.27656 1.26113 5 1.92881 5 2.625V28.875C5 29.5712 5.27656 30.2389 5.76884 30.7312C6.26113 31.2234 6.92881 31.5 7.625 31.5H33.875C34.5712 31.5 35.2389 31.2234 35.7312 30.7312C36.2234 30.2389 36.5 29.5712 36.5 28.875V2.625C36.5 1.92881 36.2234 1.26113 35.7312 0.768845C35.2389 0.276562 34.5712 0 33.875 0ZM29.9375 17.0625H22.0625V24.9375C22.0625 25.2856 21.9242 25.6194 21.6781 25.8656C21.4319 26.1117 21.0981 26.25 20.75 26.25C20.4019 26.25 20.0681 26.1117 19.8219 25.8656C19.5758 25.6194 19.4375 25.2856 19.4375 24.9375V17.0625H11.5625C11.2144 17.0625 10.8806 16.9242 10.6344 16.6781C10.3883 16.4319 10.25 16.0981 10.25 15.75C10.25 15.4019 10.3883 15.0681 10.6344 14.8219C10.8806 14.5758 11.2144 14.4375 11.5625 14.4375H19.4375V6.5625C19.4375 6.2144 19.5758 5.88056 19.8219 5.63442C20.0681 5.38828 20.4019 5.25 20.75 5.25C21.0981 5.25 21.4319 5.38828 21.6781 5.63442C21.9242 5.88056 22.0625 6.2144 22.0625 6.5625V14.4375H29.9375C30.2856 14.4375 30.6194 14.5758 30.8656 14.8219C31.1117 15.0681 31.25 15.4019 31.25 15.75C31.25 16.0981 31.1117 16.4319 30.8656 16.6781C30.6194 16.9242 30.2856 17.0625 29.9375 17.0625Z" fill="black"/>
</svg>
