<svg width="15" height="24" viewBox="0 0 15 24" fill="none" xmlns="http://www.w3.org/2000/svg">
<path d="M13.75 0H1.25C0.918479 0 0.600537 0.210714 0.366116 0.585786C0.131696 0.960859 0 1.46957 0 2V22C0 22.5304 0.131696 23.0391 0.366116 23.4142C0.600537 23.7893 0.918479 24 1.25 24H13.75C14.0815 24 14.3995 23.7893 14.6339 23.4142C14.8683 23.0391 15 22.5304 15 22V2C15 1.46957 14.8683 0.960859 14.6339 0.585786C14.3995 0.210714 14.0815 0 13.75 0ZM11.875 13H3.125C2.95924 13 2.80027 12.8946 2.68306 12.7071C2.56585 12.5196 2.5 12.2652 2.5 12C2.5 11.7348 2.56585 11.4804 2.68306 11.2929C2.80027 11.1054 2.95924 11 3.125 11H11.875C12.0408 11 12.1997 11.1054 12.3169 11.2929C12.4342 11.4804 12.5 11.7348 12.5 12C12.5 12.2652 12.4342 12.5196 12.3169 12.7071C12.1997 12.8946 12.0408 13 11.875 13Z" fill="black"/>
</svg>
